{"glyphs":{"0":{"ha":875,"x_min":33,"x_max":842,"o":"m 842 410 q 728 109 842 235 q 437 -21 611 -21 q 147 109 264 -21 q 33 410 33 235 q 147 709 33 585 q 437 838 264 838 q 728 709 611 838 q 842 410 842 585 m 590 410 q 549 531 590 479 q 437 586 506 586 q 325 532 368 586 q 285 410 285 481 q 325 287 285 339 q 437 231 368 231 q 549 288 504 231 q 590 410 590 341 z "},"1":{"ha":447,"x_min":8,"x_max":375,"o":"m 368 35 q 357 11 368 22 q 332 0 345 0 q 234 -1 299 0 q 136 -1 169 -1 q 112 20 111 -1 l 113 28 q 122 342 122 287 l 122 543 q 113 562 122 562 q 72 554 100 562 q 31 546 45 546 q 9 571 9 546 q 9 640 9 594 q 8 710 8 686 q 25 730 8 724 q 182 842 125 772 q 201 856 193 856 q 210 854 203 856 q 286 838 235 849 q 366 825 313 834 q 375 810 375 823 q 374 796 375 806 q 366 504 366 736 q 367 269 366 426 q 368 35 368 113 z "},"2":{"ha":718,"x_min":15,"x_max":707,"o":"m 707 193 q 703 146 707 178 q 700 99 700 115 q 699 48 700 83 q 699 -4 699 13 q 676 -21 699 -21 q 612 -8 668 -21 q 382 5 551 5 q 225 0 330 5 q 70 -6 121 -6 q 50 11 52 -6 q 40 79 48 34 q 23 159 23 149 q 80 181 23 174 q 165 205 146 190 q 306 351 234 263 q 397 518 397 463 q 362 599 397 566 q 279 632 328 632 q 172 610 225 632 q 96 571 136 597 q 60 550 63 550 q 37 604 37 550 q 33 665 37 646 q 23 702 32 674 q 15 737 15 726 q 26 754 15 746 q 177 817 83 794 q 340 838 261 838 q 556 781 469 838 q 659 591 659 714 q 411 210 659 428 q 686 218 587 218 q 707 193 707 218 z "},"3":{"ha":676,"x_min":20,"x_max":654,"o":"m 654 232 q 551 39 654 106 q 330 -20 463 -20 q 163 -5 229 -20 q 20 47 20 24 q 22 60 20 52 q 50 135 32 85 q 69 210 56 160 q 90 227 75 227 q 150 204 87 227 q 253 182 213 182 q 386 271 386 182 q 260 342 386 342 q 215 340 243 342 q 178 339 187 339 q 133 340 137 339 q 103 363 103 343 q 111 493 103 467 q 133 510 117 510 q 201 504 156 510 q 269 498 246 498 q 317 518 298 498 q 336 567 336 537 q 220 647 336 647 q 87 621 171 647 q 81 620 84 620 q 66 639 73 620 q 62 704 65 667 q 58 736 62 712 q 56 768 56 756 q 167 824 56 804 q 315 838 243 838 q 517 787 431 838 q 623 618 623 726 q 510 429 623 494 q 615 354 576 407 q 654 232 654 301 z "},"4":{"ha":766,"x_min":26,"x_max":741,"o":"m 741 153 q 724 139 741 142 q 690 138 711 137 q 664 140 659 140 q 637 114 637 140 q 640 65 637 98 q 642 16 642 32 q 621 -8 642 -8 q 374 -2 387 -8 q 362 12 362 3 q 371 62 362 22 q 379 121 379 102 q 354 143 379 143 q 218 140 309 143 q 82 138 127 138 q 28 180 28 138 q 27 245 28 202 q 26 310 26 288 q 47 353 26 330 q 192 522 146 458 q 339 760 214 553 q 392 846 355 791 q 412 857 401 857 q 513 833 429 857 q 628 808 597 808 q 650 781 650 808 q 644 701 650 754 q 637 621 637 648 l 637 335 q 682 339 650 335 q 726 343 711 343 q 739 328 739 343 q 738 285 739 313 q 736 241 736 256 q 738 197 736 227 q 741 153 741 168 m 406 581 q 401 585 406 585 q 389 576 395 585 q 302 437 345 507 q 200 307 250 356 q 390 317 237 307 q 399 450 391 344 q 406 581 406 534 z "},"5":{"ha":701,"x_min":24,"x_max":669,"o":"m 669 283 q 296 -20 669 -20 q 151 -8 241 -20 q 26 28 33 7 q 24 88 24 37 q 31 164 24 117 q 51 225 39 225 q 62 221 54 225 q 248 180 144 180 q 397 278 397 180 q 342 359 397 332 q 240 380 300 380 q 165 374 215 380 q 90 368 115 368 q 66 390 66 368 q 72 589 66 455 q 78 787 78 722 q 88 814 78 800 q 110 831 98 828 q 298 833 125 833 q 564 832 496 833 q 582 817 582 831 q 574 711 582 778 q 549 625 564 625 l 542 625 q 351 639 389 639 q 271 631 276 639 q 259 554 259 610 q 262 541 259 545 q 316 544 279 541 q 370 547 351 547 q 579 480 496 547 q 669 283 669 408 z "},"6":{"ha":771,"x_min":33,"x_max":745,"o":"m 745 301 q 644 64 745 149 q 395 -16 550 -16 q 129 93 228 -16 q 33 366 33 197 q 195 715 33 578 q 566 846 349 846 q 585 829 578 846 q 637 683 637 696 q 607 652 637 652 q 459 631 527 652 q 339 553 371 606 q 332 534 332 541 q 336 530 332 530 q 346 533 338 530 q 475 559 405 559 q 667 490 593 559 q 745 301 745 418 m 511 298 q 480 378 511 347 q 401 410 449 410 q 317 380 350 410 q 283 298 283 350 q 311 209 283 243 q 396 172 341 172 q 482 208 451 172 q 511 298 511 243 z "},"7":{"ha":664,"x_min":8,"x_max":643,"o":"m 643 669 q 625 640 643 657 q 536 509 586 604 q 471 363 494 430 q 401 39 414 199 q 372 -12 398 -5 q 245 -18 353 -18 q 169 -17 181 -18 q 111 16 111 -11 q 174 262 111 113 q 292 493 218 366 q 355 600 355 602 q 326 607 355 607 q 176 602 276 607 q 25 597 75 597 q 8 614 8 597 q 15 669 8 633 q 24 724 22 710 q 26 825 26 754 q 57 843 26 843 q 131 838 85 843 q 205 831 193 831 q 606 822 322 822 q 639 790 636 822 q 643 669 643 742 z "},"8":{"ha":682,"x_min":14,"x_max":665,"o":"m 665 233 q 568 40 665 109 q 351 -21 481 -21 q 114 43 201 -21 q 14 260 14 116 q 40 351 14 307 q 89 411 58 382 q 115 435 115 435 q 94 465 115 443 q 54 516 66 492 q 32 606 32 555 q 133 791 32 728 q 347 844 218 844 q 547 786 456 844 q 652 615 652 719 q 628 515 652 560 q 585 456 613 485 q 562 429 562 433 q 589 400 562 427 q 639 336 621 368 q 665 233 665 288 m 469 615 q 437 672 469 650 q 373 692 409 692 q 278 612 278 692 q 399 526 278 559 q 412 524 408 524 q 452 559 434 524 q 469 615 469 590 m 403 226 q 293 325 403 292 q 254 336 257 336 q 208 298 231 336 q 187 237 187 263 q 222 163 187 192 q 300 136 254 136 q 403 226 403 136 z "},"9":{"ha":785,"x_min":33,"x_max":747,"o":"m 747 461 q 582 102 747 239 q 200 -25 427 -25 q 179 -7 186 -25 q 131 146 131 111 q 163 168 131 168 q 444 279 380 168 q 453 301 453 294 q 449 305 453 305 q 433 300 446 305 q 304 273 376 273 q 111 344 186 273 q 33 533 33 415 q 136 768 33 686 q 386 844 229 844 q 653 736 555 844 q 747 461 747 631 m 493 526 q 464 614 493 578 q 382 654 432 654 q 269 536 269 654 q 300 456 269 488 q 378 424 330 424 q 458 450 426 424 q 493 526 493 479 z "}," ":{"ha":347,"x_min":0,"x_max":0,"o":""},"!":{"ha":389,"x_min":74,"x_max":329,"o":"m 329 787 q 307 555 329 664 q 253 334 279 444 q 199 309 247 309 q 138 330 144 309 q 74 578 74 548 q 77 661 74 606 q 79 743 79 715 q 77 835 79 774 q 75 926 75 896 q 87 951 75 951 q 144 949 106 951 q 201 946 182 946 q 258 949 220 946 q 315 951 296 951 q 329 787 329 951 m 329 115 q 294 21 329 58 q 201 -17 258 -17 q 109 20 144 -17 q 74 115 74 58 q 109 209 74 172 q 201 245 144 245 q 293 209 258 245 q 329 115 329 172 z "},"\"":{"ha":543,"x_min":46,"x_max":497,"o":"m 497 861 q 450 624 497 738 q 401 610 444 610 q 381 611 395 610 q 359 612 367 612 q 346 622 349 612 q 324 687 342 631 q 306 754 306 747 q 307 845 306 785 q 307 936 307 906 q 314 953 307 953 q 359 954 329 953 q 404 956 389 956 q 447 954 418 956 q 490 953 476 953 q 497 936 497 953 l 497 861 m 237 754 q 220 688 237 746 q 199 621 203 633 q 143 610 194 610 q 93 624 99 610 q 46 861 46 736 l 46 936 q 53 953 46 953 q 96 954 67 953 q 140 956 125 956 q 185 954 155 956 q 229 953 214 953 q 236 936 236 953 q 237 845 236 906 q 237 754 237 785 z "},"#":{"ha":986,"x_min":54,"x_max":922,"o":"m 897 524 q 892 525 895 524 q 707 534 864 530 l 661 367 q 864 370 803 370 q 879 354 879 370 q 867 252 879 294 q 854 239 863 239 q 848 240 855 239 q 629 250 821 245 l 576 37 q 553 -58 570 5 q 534 -75 547 -75 q 524 -72 530 -75 q 489 -53 518 -69 q 456 -42 473 -47 q 435 -22 435 -34 q 514 252 435 -22 l 460 252 q 358 250 393 252 q 282 -53 334 149 q 265 -68 277 -68 q 254 -65 260 -68 q 218 -46 248 -62 q 171 -28 201 -41 q 163 -15 163 -23 q 240 248 163 -12 q 155 243 216 247 q 69 240 100 240 q 54 256 54 240 q 58 285 54 267 q 64 314 63 307 q 66 359 64 331 q 85 372 71 372 q 181 370 120 372 q 278 367 252 367 l 319 533 q 216 529 288 533 q 113 525 149 525 q 98 543 98 525 q 102 568 98 552 q 107 595 106 588 q 110 640 108 615 q 127 653 114 653 q 239 650 170 653 q 351 647 322 648 q 409 865 371 720 q 431 958 415 897 q 448 973 435 973 q 458 971 453 973 q 498 949 471 963 q 542 933 515 945 q 547 921 547 930 q 468 646 547 907 l 624 646 q 680 860 661 783 q 701 951 686 891 q 720 968 706 968 q 729 965 724 968 q 770 943 743 958 q 811 928 787 938 q 818 915 818 923 q 739 647 818 916 q 907 650 853 650 q 922 635 922 650 q 909 536 922 578 q 897 524 906 524 m 591 534 q 532 536 562 536 l 436 536 q 390 366 411 448 l 549 366 q 591 534 564 421 z "},"$":{"ha":675,"x_min":49,"x_max":635,"o":"m 572 589 q 511 618 572 589 q 411 647 450 647 q 335 576 335 647 q 406 493 335 536 q 536 409 518 425 q 607 261 607 347 q 380 17 607 78 q 386 -102 386 -91 q 371 -111 386 -109 q 342 -111 361 -112 q 321 -109 320 -109 q 295 -111 312 -109 q 270 -113 278 -113 q 260 -111 264 -113 q 256 -78 256 -105 q 258 -11 256 -56 q 74 14 77 -11 q 75 27 73 19 q 75 41 75 38 q 71 106 75 68 q 60 149 69 117 q 52 191 52 177 q 68 205 52 205 q 128 196 85 205 q 195 186 171 186 q 314 260 314 186 q 245 347 314 298 q 117 441 134 425 q 49 587 49 506 q 115 746 49 677 q 268 829 177 812 q 266 862 268 823 q 267 907 264 891 q 279 930 269 930 l 396 930 q 406 910 404 930 q 407 869 408 895 q 406 838 406 833 q 534 807 446 835 q 635 752 635 775 q 631 734 635 747 q 606 672 621 714 q 589 604 601 649 q 572 589 584 589 z "},"%":{"ha":1116,"x_min":21,"x_max":1095,"o":"m 1095 257 q 1024 67 1095 147 q 842 -17 950 -17 q 661 67 734 -17 q 590 257 590 148 q 661 448 590 367 q 842 532 733 532 q 1024 448 951 532 q 1095 257 1095 368 m 395 -30 q 352 -11 385 -30 q 319 17 319 9 q 533 433 319 28 q 614 623 551 465 q 704 851 646 699 q 718 873 711 873 q 756 855 730 873 q 783 825 783 837 q 689 633 783 823 q 582 415 590 433 q 410 -7 490 212 q 395 -30 401 -30 m 525 595 q 455 405 525 485 q 273 321 382 321 q 92 404 165 321 q 21 595 21 484 q 92 785 21 705 q 273 869 165 869 q 455 785 381 869 q 525 595 525 704 m 924 257 q 903 328 924 298 q 842 363 881 363 q 780 328 803 363 q 760 257 760 297 q 781 188 760 219 q 842 153 805 153 q 903 186 880 153 q 924 257 924 216 m 355 595 q 335 665 355 635 q 273 700 312 700 q 212 665 235 700 q 191 595 191 635 q 212 525 191 556 q 273 490 237 490 q 335 524 312 490 q 355 595 355 555 z "},"&":{"ha":970,"x_min":47,"x_max":929,"o":"m 929 31 q 895 0 929 0 q 829 -2 873 0 q 764 -4 786 -4 q 570 122 681 -4 q 460 28 535 89 q 278 -24 384 -24 q 106 52 170 -24 q 47 233 47 123 q 115 424 47 348 q 279 547 153 466 q 237 713 237 652 q 302 894 237 827 q 481 961 366 961 q 635 908 579 961 q 693 755 693 853 q 644 633 693 690 q 587 582 624 610 q 526 536 538 546 q 578 465 543 512 q 633 397 597 443 q 728 495 687 466 q 857 534 785 534 q 905 530 897 534 q 920 490 920 523 q 909 370 920 410 q 876 347 905 353 q 811 329 828 337 q 739 261 768 309 q 880 192 781 192 q 929 174 929 192 l 929 31 m 558 772 q 484 836 558 836 q 421 814 447 836 q 396 757 396 793 q 439 643 396 698 q 558 772 558 709 m 486 244 q 418 323 456 272 q 357 406 360 401 q 289 343 317 385 q 258 257 258 300 q 283 185 258 213 q 353 155 309 155 q 432 182 392 155 q 486 244 473 208 z "},"'":{"ha":322,"x_min":53,"x_max":272,"o":"m 272 829 q 222 585 272 717 q 207 571 218 572 q 163 568 191 568 q 123 571 143 568 q 71 697 94 575 q 53 850 53 794 l 53 933 q 61 951 53 949 q 158 956 73 956 q 260 951 250 956 q 272 829 272 946 z "},"(":{"ha":553,"x_min":65,"x_max":534,"o":"m 534 911 q 509 885 534 901 q 389 736 446 844 q 332 554 354 669 q 313 363 313 450 q 376 -14 313 109 q 509 -168 429 -116 q 529 -193 529 -182 q 510 -244 529 -204 q 483 -283 491 -283 q 458 -277 477 -283 q 228 -122 320 -222 q 107 105 153 -41 q 65 361 65 239 q 113 612 65 477 q 239 833 163 751 q 468 986 327 928 q 491 993 484 993 q 516 957 499 993 q 534 911 534 922 z "},")":{"ha":553,"x_min":19,"x_max":488,"o":"m 488 361 q 448 104 488 236 q 325 -122 401 -44 q 94 -277 234 -215 q 71 -284 77 -284 q 43 -244 62 -284 q 24 -193 24 -204 q 45 -168 24 -182 q 176 -14 132 -111 q 240 363 240 123 q 221 555 240 450 q 164 736 199 675 q 45 885 98 851 q 19 911 19 901 q 36 957 19 922 q 62 993 54 993 q 85 986 68 993 q 314 833 212 935 q 441 613 392 757 q 488 361 488 480 z "},"*":{"ha":589,"x_min":22,"x_max":556,"o":"m 556 722 q 487 654 556 696 q 417 602 417 613 q 445 538 417 598 q 473 448 473 479 q 427 402 473 402 q 353 456 400 402 q 292 511 307 511 q 234 458 280 511 q 166 406 188 406 q 117 449 117 406 q 142 539 117 479 q 167 598 167 600 q 95 655 167 610 q 22 726 22 700 q 33 755 22 741 q 58 770 44 770 q 128 767 81 770 q 197 764 174 764 q 224 787 219 764 q 248 922 233 849 q 292 947 260 947 q 335 922 323 947 q 358 787 335 922 q 385 764 362 764 q 518 762 505 764 q 556 722 556 759 z "},"+":{"ha":657,"x_min":22,"x_max":627,"o":"m 606 315 q 510 318 571 315 q 414 321 441 321 q 417 218 414 293 q 419 115 419 153 q 317 89 419 89 q 218 106 218 89 q 220 214 218 148 q 222 322 222 306 q 35 317 45 317 q 22 338 22 317 q 29 415 22 345 q 32 498 30 456 q 50 509 38 509 q 136 507 83 509 q 222 504 207 505 q 221 631 221 564 l 221 705 q 239 718 221 718 q 313 720 264 718 q 387 721 362 721 q 420 709 420 721 q 417 606 420 675 q 415 503 415 537 q 612 505 560 505 q 627 493 627 505 q 619 410 627 486 q 615 325 621 381 q 606 315 612 315 z "},",":{"ha":390,"x_min":-8,"x_max":355,"o":"m 355 229 q 218 -86 355 44 q 151 -140 197 -106 q 78 -181 94 -181 q 30 -138 68 -181 q -8 -81 -8 -94 q 17 -45 -8 -74 q 64 18 48 -11 q 89 120 89 65 q 86 145 89 129 q 84 170 84 162 q 96 199 84 186 q 208 233 104 207 q 328 257 309 257 q 355 229 355 257 z "},"-":{"ha":590,"x_min":49,"x_max":542,"o":"m 542 522 q 532 467 542 501 q 517 412 524 440 q 504 314 514 378 q 488 304 502 304 q 410 305 462 304 q 332 306 358 306 q 140 293 260 306 q 104 288 134 292 q 66 283 80 283 q 49 317 49 283 q 72 415 49 334 q 104 514 94 492 q 122 525 109 525 q 201 522 149 525 q 281 519 254 519 q 465 536 336 519 q 528 545 532 545 q 542 522 542 545 z "},".":{"ha":390,"x_min":36,"x_max":354,"o":"m 354 149 q 308 34 354 81 q 195 -14 261 -14 q 82 34 128 -14 q 36 149 36 82 q 82 262 36 215 q 195 310 128 310 q 308 262 261 310 q 354 149 354 215 z "},"/":{"ha":460,"x_min":23,"x_max":435,"o":"m 165 -90 q 155 -87 161 -90 q 28 -37 100 -68 q 23 -26 23 -35 q 25 -11 23 -19 q 163 482 119 313 l 248 811 q 279 946 257 857 q 294 961 283 961 q 373 938 315 961 q 435 897 435 913 q 374 670 435 891 q 301 411 306 428 q 220 90 275 310 q 179 -75 209 33 q 165 -90 174 -90 z "},":":{"ha":346,"x_min":39,"x_max":310,"o":"m 310 461 q 270 367 310 402 q 171 332 231 332 q 77 369 115 332 q 39 461 39 406 q 78 558 39 518 q 174 599 117 599 q 270 558 231 599 q 310 461 310 518 m 310 127 q 271 30 310 70 q 174 -11 231 -11 q 78 30 117 -11 q 39 127 39 71 q 77 225 39 189 q 176 262 115 262 q 272 224 235 262 q 310 127 310 186 z "},";":{"ha":346,"x_min":-37,"x_max":310,"o":"m 310 463 q 271 365 310 405 q 174 325 231 325 q 78 365 117 325 q 39 463 39 406 q 78 559 39 519 q 174 599 117 599 q 270 559 231 599 q 310 463 310 519 m 298 192 q 263 45 298 124 q 182 -82 231 -30 q 64 -178 113 -157 q 49 -182 55 -182 q 7 -154 45 -182 q -34 -120 -31 -125 q -37 -106 -37 -114 q 7 -46 -37 -99 q 54 57 50 6 q 54 97 56 73 q 53 138 53 130 q 75 172 53 165 q 168 189 106 177 q 222 206 175 191 q 269 220 262 220 q 298 192 298 220 z "},"<":{"ha":557,"x_min":46,"x_max":525,"o":"m 445 42 q 240 201 353 114 q 66 290 155 266 q 46 315 46 296 q 48 356 46 329 q 50 396 50 382 q 48 432 50 408 q 46 468 46 456 q 66 493 46 486 q 243 586 128 516 q 338 654 283 610 q 431 726 423 721 q 448 736 436 731 q 494 667 464 729 q 524 586 524 607 q 514 567 524 579 q 261 407 418 450 q 248 398 254 406 q 260 389 250 393 q 515 222 454 309 q 525 201 525 209 q 492 113 525 182 q 445 42 459 42 z "},"=":{"ha":669,"x_min":50,"x_max":624,"o":"m 604 456 q 599 457 604 456 q 313 464 559 464 q 187 461 271 464 q 62 458 104 458 q 50 482 50 458 q 56 550 50 488 q 58 624 56 585 q 74 635 62 635 q 205 631 117 635 q 336 628 292 628 q 474 630 382 628 q 611 632 566 632 q 623 618 623 632 q 614 467 623 522 q 604 456 612 456 m 606 201 l 599 201 q 313 208 459 208 q 187 205 271 208 q 62 201 104 201 q 50 222 50 201 q 53 257 50 235 q 57 292 56 282 q 58 366 56 325 q 74 376 62 376 q 205 373 117 376 q 336 370 292 370 q 474 372 382 370 q 612 374 566 374 q 624 360 624 374 q 619 282 624 353 q 614 210 614 211 q 606 201 611 201 z "},">":{"ha":557,"x_min":35,"x_max":513,"o":"m 513 315 q 492 290 513 298 q 315 197 430 267 q 220 130 276 173 q 127 57 136 62 q 111 47 122 52 q 68 111 96 54 q 40 184 40 168 q 50 204 40 192 q 297 376 159 338 q 311 385 304 378 q 298 395 308 391 q 45 568 113 471 q 35 589 35 581 q 68 673 35 606 q 113 741 102 741 q 318 582 205 669 q 492 493 403 517 q 513 468 513 488 q 511 428 513 454 q 509 387 509 401 q 511 352 509 376 q 513 315 513 328 z "},"?":{"ha":586,"x_min":19,"x_max":568,"o":"m 568 694 q 432 447 568 526 q 321 329 330 389 q 317 298 319 313 q 293 283 313 283 q 195 275 224 283 q 185 273 189 273 q 161 340 161 273 q 228 483 161 397 q 294 625 294 568 q 201 713 294 713 q 48 667 142 713 q 19 840 19 667 q 21 868 19 859 q 134 939 31 913 q 279 957 210 957 q 483 888 402 957 q 568 694 568 816 m 385 111 q 348 21 385 59 q 260 -17 312 -17 q 171 21 208 -17 q 135 111 135 59 q 171 200 135 163 q 260 237 208 237 q 348 200 312 237 q 385 111 385 163 z "},"@":{"ha":954,"x_min":37,"x_max":896,"o":"m 896 492 q 825 349 896 463 q 728 222 753 235 q 704 218 720 218 q 646 250 659 218 q 627 276 635 276 q 585 251 629 276 q 500 227 542 227 q 348 297 406 227 q 293 460 293 363 q 351 639 293 572 q 522 710 412 710 q 626 681 570 710 q 684 652 682 652 q 703 672 703 652 q 634 786 703 736 q 504 832 570 832 q 273 722 365 832 q 186 475 186 617 q 271 227 186 328 q 505 121 361 121 q 525 110 525 121 l 525 -11 q 505 -25 525 -25 q 168 125 302 -25 q 37 475 37 270 q 170 822 37 673 q 503 977 307 977 q 804 827 699 977 q 896 492 896 696 m 679 472 q 651 539 679 514 q 581 564 623 564 q 514 537 539 564 q 489 469 489 511 q 509 403 489 430 q 570 374 532 374 q 648 400 617 374 q 679 472 679 427 z "},"A":{"ha":964,"x_min":4,"x_max":957,"o":"m 957 17 q 940 0 957 5 q 814 -5 920 -5 q 689 0 717 -5 q 660 31 666 5 q 624 135 637 128 q 442 140 613 140 q 319 134 327 140 q 294 61 308 123 q 262 0 281 5 q 108 -5 239 -5 q 4 14 4 -5 q 157 448 4 32 q 338 942 323 897 q 357 968 346 968 q 413 964 375 968 q 471 961 452 961 q 525 963 489 961 q 578 966 560 966 q 602 943 591 966 q 795 455 635 872 q 957 17 957 35 m 476 635 q 428 505 462 605 q 391 381 391 399 q 432 368 391 369 q 501 366 453 366 q 551 377 546 366 q 552 387 552 380 q 521 510 552 409 q 476 635 490 608 z "},"B":{"ha":888,"x_min":60,"x_max":864,"o":"m 864 293 q 786 86 864 168 q 474 -8 697 -8 q 425 -7 457 -8 q 377 -7 393 -7 q 79 3 127 -7 q 60 24 60 7 q 68 243 60 96 q 77 464 77 391 q 68 760 77 543 q 61 926 66 815 l 60 936 q 82 951 60 949 q 239 954 104 954 q 492 953 455 954 q 738 899 659 947 q 843 681 843 834 q 819 596 843 641 q 772 532 801 564 q 747 507 747 505 q 765 492 747 502 q 840 406 812 465 q 864 293 864 353 m 572 675 q 514 752 572 733 q 407 762 481 762 q 334 751 334 762 q 331 712 334 739 q 329 673 329 686 q 340 597 329 606 q 427 591 348 591 q 572 675 572 591 m 593 296 q 542 378 593 357 q 436 392 509 392 q 341 386 349 392 q 334 302 334 379 q 342 214 334 222 q 440 205 351 205 q 543 217 513 205 q 593 296 593 237 z "},"C":{"ha":865,"x_min":37,"x_max":854,"o":"m 854 153 q 840 125 854 142 q 509 -24 715 -24 q 165 121 297 -24 q 37 473 37 260 q 163 823 37 680 q 496 974 294 974 q 840 839 715 974 q 854 812 854 824 q 807 717 854 800 q 747 624 760 634 q 734 618 742 618 q 700 646 730 618 q 628 696 663 678 q 517 724 574 724 q 357 649 417 724 q 302 478 302 580 q 357 305 302 375 q 517 229 417 229 q 629 255 576 229 q 699 302 663 272 q 732 328 729 328 q 746 321 739 328 q 805 236 757 309 q 854 153 854 161 z "},"D":{"ha":990,"x_min":65,"x_max":947,"o":"m 947 481 q 819 135 947 281 q 501 -3 706 4 q 285 -4 462 -4 q 185 -2 252 -4 q 85 0 118 0 q 65 16 65 0 q 71 240 65 90 q 77 464 77 389 q 71 697 77 542 q 65 930 65 853 q 85 947 65 945 q 243 953 133 953 q 513 947 452 953 q 765 865 674 930 q 900 694 850 804 q 947 481 947 591 m 688 481 q 619 668 688 595 q 436 743 550 743 q 332 715 332 743 q 330 595 332 675 q 329 475 329 515 q 330 356 329 435 q 332 237 332 277 q 440 208 332 208 q 625 286 557 208 q 688 481 688 360 z "},"E":{"ha":785,"x_min":59,"x_max":757,"o":"m 757 211 q 745 104 757 182 q 724 3 733 19 q 701 -10 715 -10 q 681 -8 695 -10 q 392 -1 631 -1 q 237 -1 340 -1 q 82 0 134 0 q 60 20 60 0 q 68 248 60 96 q 77 476 77 400 q 68 764 77 553 q 61 926 66 819 l 60 936 q 77 951 59 951 q 228 949 127 951 q 379 946 329 946 q 528 949 429 946 q 677 951 628 951 q 718 925 713 951 q 729 830 722 909 q 736 734 736 751 q 722 720 736 720 q 708 721 718 720 q 384 736 528 736 q 340 719 348 736 q 336 667 336 711 q 350 606 336 621 q 394 593 361 593 q 420 594 401 593 q 453 595 440 595 q 626 600 538 595 q 663 603 633 600 q 700 606 686 606 q 716 590 716 606 q 704 486 716 604 q 699 378 699 432 q 679 364 699 364 q 618 371 679 364 q 441 375 579 375 l 370 375 q 337 361 342 375 q 336 319 336 358 q 343 253 336 268 q 430 222 355 227 q 529 222 429 222 q 636 229 565 222 q 742 235 707 235 q 757 211 757 235 z "},"F":{"ha":781,"x_min":56,"x_max":763,"o":"m 763 730 q 749 723 763 723 q 595 732 699 723 q 440 741 492 741 q 364 736 375 741 q 339 671 339 724 q 372 597 339 606 q 413 594 385 594 q 553 599 460 594 q 693 604 646 604 q 715 485 715 604 q 708 364 715 381 q 690 352 703 352 q 647 357 699 352 q 427 363 574 363 q 374 363 380 363 q 339 334 339 357 q 347 112 339 237 q 354 11 354 -1 q 311 -9 354 -7 q 251 -9 323 -9 q 87 0 124 -9 q 68 21 68 5 q 73 247 68 96 q 78 473 78 398 q 70 699 78 563 q 57 924 58 908 l 56 932 q 77 949 56 949 q 228 947 127 949 q 380 945 330 945 q 544 953 435 945 q 707 961 652 961 q 745 933 741 961 q 747 846 745 904 q 756 788 749 831 q 763 730 763 751 z "},"G":{"ha":987,"x_min":37,"x_max":956,"o":"m 955 22 q 936 3 956 3 q 862 18 923 3 q 786 39 800 33 q 514 -17 644 -17 q 170 123 304 -17 q 37 471 37 260 q 166 827 37 686 q 511 974 299 974 q 705 935 614 974 q 860 812 804 891 q 871 789 871 796 q 811 692 871 768 q 732 616 750 616 q 701 644 728 616 q 633 696 668 677 q 519 724 582 724 q 358 648 418 724 q 302 473 302 578 q 360 298 302 363 q 529 232 420 232 q 684 267 598 232 q 671 380 682 289 q 663 494 663 451 q 671 510 663 507 q 682 511 675 511 q 742 508 702 511 q 802 504 781 504 q 867 507 823 504 q 932 510 910 510 q 949 488 949 510 q 945 389 949 455 q 941 291 941 323 q 954 29 941 203 l 955 22 z "},"H":{"ha":1035,"x_min":62,"x_max":972,"o":"m 972 21 q 966 3 972 7 q 947 0 964 1 q 831 -4 906 -4 q 706 0 724 -4 q 687 18 687 4 q 692 179 687 72 q 697 340 697 287 q 682 371 697 367 q 518 376 659 376 q 353 371 376 376 q 338 340 338 368 q 341 182 338 288 q 345 24 345 77 q 326 0 345 3 q 199 -4 304 -4 q 82 0 107 -4 q 62 21 62 3 q 70 242 62 94 q 77 464 77 390 q 70 700 77 543 q 63 937 63 858 q 77 951 63 951 q 141 949 98 951 q 204 947 183 947 q 270 949 226 947 q 335 951 313 951 q 347 939 347 951 q 339 787 347 888 q 332 635 332 686 q 345 607 332 611 q 518 602 362 602 q 686 607 663 602 q 703 635 703 611 q 698 782 703 684 q 693 930 693 881 q 710 951 693 951 q 770 949 730 951 q 831 947 810 947 q 891 949 850 947 q 951 951 931 951 q 971 935 971 951 q 965 700 971 857 q 958 464 958 543 q 965 242 958 390 q 972 21 972 94 z "},"I":{"ha":414,"x_min":58,"x_max":353,"o":"m 338 501 q 342 260 338 421 q 346 20 346 100 q 340 3 346 6 q 322 0 338 2 q 204 -5 278 -5 q 78 0 105 -5 q 58 21 58 4 q 64 140 58 10 q 77 501 77 415 q 72 719 77 574 q 67 937 67 864 q 83 951 67 951 q 146 949 104 951 q 210 947 189 947 q 272 949 231 947 q 334 951 313 951 q 353 937 353 951 q 346 719 353 864 q 338 501 338 574 z "},"J":{"ha":468,"x_min":2,"x_max":397,"o":"m 395 368 q 367 106 395 199 q 205 -153 317 -59 q 184 -164 193 -164 q 170 -155 177 -164 q 96 -72 146 -127 q 9 4 66 -47 q 2 18 2 12 q 9 31 2 24 q 73 91 60 75 q 114 171 100 123 q 133 387 133 237 q 109 928 133 736 q 107 938 107 935 q 129 950 107 950 q 193 948 151 950 q 257 946 235 946 q 317 948 277 946 q 378 950 357 950 q 397 932 397 950 q 396 651 397 839 q 395 368 395 463 z "},"K":{"ha":913,"x_min":62,"x_max":897,"o":"m 897 38 q 872 0 897 9 q 765 -7 852 -7 q 643 0 682 -7 q 619 7 625 3 q 604 26 613 11 q 506 208 555 117 q 410 370 425 355 q 336 332 336 343 q 340 178 336 281 q 345 24 345 75 q 326 0 345 3 q 199 -5 291 -5 q 82 0 111 -5 q 62 21 62 4 q 70 242 62 94 q 77 464 77 390 q 70 700 77 543 q 63 937 63 858 q 77 951 63 951 q 141 949 98 951 q 204 947 183 947 q 269 949 226 947 q 332 951 311 951 q 344 939 344 951 q 339 788 344 889 q 334 636 334 686 q 366 578 334 578 q 491 622 446 578 q 558 741 524 654 q 629 935 580 806 q 660 951 637 951 q 713 949 677 951 q 766 947 749 947 q 821 949 785 947 q 875 950 857 950 q 891 935 891 950 q 863 825 891 912 q 669 505 779 569 q 647 484 647 492 q 772 281 647 485 q 897 38 897 77 z "},"L":{"ha":760,"x_min":67,"x_max":745,"o":"m 686 -12 q 534 -9 627 -12 q 382 -5 412 -6 l 179 -3 q 92 0 149 -3 q 72 21 72 3 q 74 242 72 95 q 77 464 77 390 q 72 700 77 543 q 67 935 67 857 q 87 950 67 950 q 148 948 108 950 q 208 946 189 946 q 275 948 231 946 q 341 951 319 951 q 351 938 351 951 l 350 929 q 332 546 342 802 l 331 367 q 332 240 331 280 q 333 224 332 232 q 343 214 334 216 q 361 214 344 214 q 544 220 422 214 q 726 227 665 227 q 745 211 745 227 q 728 11 745 95 q 713 -10 724 -7 q 686 -12 710 -12 z "},"M":{"ha":1137,"x_min":62,"x_max":1074,"o":"m 1074 21 q 1054 0 1074 0 l 814 0 q 794 24 794 0 q 799 229 794 92 q 804 435 804 366 q 798 456 804 454 q 707 246 791 452 q 610 5 659 125 q 593 -13 603 -10 q 566 -14 589 -14 q 524 0 530 -14 q 427 217 487 75 q 332 435 363 368 q 326 442 330 438 q 321 422 321 436 q 324 223 321 356 q 328 24 328 90 q 309 0 328 0 l 82 0 q 65 4 68 0 q 62 20 62 9 q 70 242 62 94 q 77 464 77 390 q 70 759 77 543 q 64 926 69 815 l 63 938 q 92 951 62 951 q 203 954 129 951 q 315 956 278 956 q 336 928 323 956 l 534 493 q 570 449 555 449 q 602 500 577 449 q 804 929 670 642 q 829 956 816 956 q 889 954 849 956 q 949 951 928 951 q 1001 955 966 951 q 1053 958 1036 958 q 1073 942 1073 958 q 1067 703 1073 862 q 1061 464 1061 544 q 1067 242 1061 390 q 1074 21 1074 94 z "},"N":{"ha":1034,"x_min":62,"x_max":970,"o":"m 970 930 q 963 698 970 853 q 957 465 957 543 l 957 18 q 937 0 957 0 q 888 -1 921 0 q 839 -3 855 -3 q 786 0 821 -3 q 733 3 751 3 q 704 25 721 3 q 484 317 655 91 q 342 503 437 380 q 332 511 339 507 q 326 496 326 506 q 331 260 326 417 q 335 24 335 102 q 317 0 335 0 l 82 0 q 62 21 62 0 q 70 242 62 94 q 77 464 77 390 q 70 697 77 542 q 64 930 64 852 q 90 945 64 945 q 187 950 130 945 q 241 959 201 951 q 294 965 275 965 q 319 942 302 965 l 572 595 q 675 458 606 549 q 704 437 692 437 q 713 490 713 437 q 705 705 713 562 q 697 920 697 848 q 711 945 697 945 q 834 948 752 945 q 957 951 916 951 q 970 930 970 951 z "},"O":{"ha":1043,"x_min":37,"x_max":1004,"o":"m 1004 475 q 869 120 1004 263 q 521 -25 732 -25 q 173 121 311 -25 q 37 475 37 264 q 173 829 37 686 q 521 977 311 977 q 868 829 729 977 q 1004 475 1004 684 m 747 476 q 686 649 747 578 q 521 724 621 724 q 359 646 425 724 q 294 475 294 572 q 355 302 294 371 q 521 229 418 229 q 684 306 616 229 q 747 476 747 379 z "},"P":{"ha":905,"x_min":56,"x_max":875,"o":"m 875 589 q 789 323 875 425 q 534 215 696 215 q 453 218 507 215 q 371 221 398 221 q 342 196 342 221 q 348 103 342 165 q 354 11 354 41 q 340 -5 354 -5 q 216 -2 298 -5 q 92 0 133 0 q 72 20 72 0 q 74 246 72 95 q 77 472 77 397 q 58 920 77 685 l 58 929 q 78 945 56 942 q 311 951 131 951 q 515 949 418 951 q 774 848 676 944 q 875 589 875 749 m 604 578 q 450 736 604 736 q 336 724 342 736 q 332 567 332 715 q 333 505 332 546 q 335 443 335 464 q 457 429 335 429 q 604 578 604 429 z "},"Q":{"ha":1043,"x_min":37,"x_max":1004,"o":"m 1004 475 q 906 164 1004 294 q 632 -7 806 31 q 733 -134 666 -76 q 739 -142 739 -138 q 572 -170 739 -170 q 421 -160 450 -170 q 401 -135 406 -155 q 396 -4 393 -96 q 132 171 230 37 q 37 475 37 300 q 173 829 37 686 q 521 977 311 977 q 868 829 729 977 q 1004 475 1004 684 m 747 476 q 687 650 747 581 q 521 724 623 724 q 353 651 415 724 q 294 475 294 583 q 352 298 294 365 q 521 228 412 228 q 688 300 626 228 q 747 476 747 370 z "},"R":{"ha":885,"x_min":62,"x_max":871,"o":"m 871 7 q 857 0 871 2 q 728 -4 831 -4 q 607 0 639 -4 q 590 3 592 2 q 581 17 586 5 q 551 96 570 43 q 468 296 524 163 q 412 325 456 322 q 342 323 432 323 q 332 289 332 323 q 340 151 332 243 q 349 14 349 60 q 342 0 349 2 q 323 -1 333 -1 q 199 -4 283 -4 q 82 0 102 -4 q 62 21 62 4 q 70 246 62 96 q 77 472 77 397 q 64 920 77 759 l 63 929 q 84 945 62 941 q 292 953 106 949 q 492 956 417 956 q 744 886 646 956 q 854 659 854 807 q 826 500 854 559 q 721 386 798 441 q 705 366 705 375 q 788 195 705 366 q 871 7 871 24 m 586 615 q 532 730 586 698 q 400 754 490 754 q 332 734 336 754 q 328 602 328 711 q 328 555 328 586 q 329 510 329 525 q 351 503 329 507 q 437 497 392 497 q 586 615 586 497 z "},"S":{"ha":575,"x_min":30,"x_max":525,"o":"m 525 312 q 409 76 525 174 q 161 -35 307 -11 q 153 -35 156 -35 q 83 60 137 -35 q 30 176 30 155 q 40 186 30 184 q 170 224 138 208 q 241 328 241 259 q 195 427 241 372 q 108 529 115 519 q 61 685 61 600 q 176 891 61 809 q 406 979 269 959 q 417 980 413 980 q 433 964 427 980 q 515 785 451 914 q 517 778 517 781 q 505 766 517 766 q 487 768 500 766 q 467 770 474 770 q 382 748 418 770 q 338 676 338 722 q 387 574 338 635 q 477 460 473 466 q 525 312 525 386 z "},"T":{"ha":733,"x_min":7,"x_max":723,"o":"m 723 744 q 708 730 723 730 q 504 741 682 730 q 500 501 500 569 q 506 260 500 421 q 513 20 513 100 q 507 3 513 7 q 488 0 505 2 q 368 -5 447 -5 q 245 0 281 -5 q 227 21 227 3 q 233 261 227 101 q 240 501 240 421 q 235 737 240 554 q 18 724 99 724 q 7 730 7 724 q 17 783 7 739 q 29 840 28 830 q 34 904 31 872 q 50 955 39 955 q 60 954 52 955 q 385 940 170 940 q 610 953 446 940 q 699 960 698 960 q 714 958 712 960 q 717 945 716 956 q 715 894 717 926 q 714 843 714 858 q 719 793 714 826 q 723 744 723 760 z "},"U":{"ha":943,"x_min":59,"x_max":884,"o":"m 872 333 q 831 97 872 160 q 452 -18 755 -18 q 241 3 315 -18 q 87 132 123 37 q 70 299 70 179 q 72 382 70 327 q 74 464 74 437 q 66 700 74 543 q 59 935 59 857 q 73 951 59 951 q 198 948 115 951 q 323 945 282 945 q 340 930 340 945 q 335 662 340 840 q 329 393 329 483 q 351 250 329 287 q 476 199 381 199 q 615 334 615 199 q 610 629 615 432 q 606 924 606 825 q 623 945 606 945 q 743 948 663 945 q 864 951 824 951 q 884 935 884 951 q 877 700 884 857 q 871 464 871 543 q 871 398 871 442 q 872 333 872 355 z "},"V":{"ha":907,"x_min":41,"x_max":869,"o":"m 446 -3 q 341 0 354 -3 q 319 20 328 3 q 164 326 242 172 q 41 604 41 572 q 45 765 41 658 q 49 926 49 873 q 62 951 49 951 q 186 948 103 951 q 310 945 269 945 q 327 930 327 945 q 319 765 327 876 q 311 600 311 655 q 449 300 311 558 q 534 465 486 367 q 597 626 597 596 q 596 775 597 675 q 595 924 595 874 q 601 944 595 942 q 623 944 601 944 q 735 948 660 944 q 848 951 811 951 q 869 935 869 951 q 867 778 869 883 q 865 619 865 672 q 732 310 865 577 q 579 20 679 214 q 570 3 572 5 q 553 0 568 1 q 446 -3 518 -3 z "},"W":{"ha":1304,"x_min":40,"x_max":1267,"o":"m 1267 604 q 1141 331 1267 602 q 994 20 1013 54 q 987 6 988 7 q 974 0 984 3 q 878 -4 957 -4 q 787 0 804 -4 q 771 5 774 3 q 762 18 768 7 q 724 114 758 26 l 650 302 l 574 112 q 536 18 563 79 q 527 4 530 7 q 511 0 524 2 q 422 -4 488 -4 q 325 0 341 -4 q 306 20 313 3 q 40 604 40 566 q 44 767 40 659 q 47 929 47 875 q 61 951 47 951 q 178 948 100 951 q 296 945 256 945 q 311 932 311 945 q 306 768 311 878 q 301 604 301 659 q 351 475 301 584 q 416 342 395 377 q 429 325 426 325 q 457 390 435 325 q 522 606 521 572 q 523 764 525 668 q 521 924 521 903 q 523 939 521 937 q 538 943 525 941 q 657 947 572 947 q 787 929 787 947 q 783 788 787 884 q 781 647 780 695 l 781 612 q 850 392 781 578 q 879 328 874 328 q 892 345 882 328 q 954 477 911 378 q 1000 604 1000 584 q 995 769 1000 659 q 990 932 990 878 q 1006 945 990 945 q 1126 948 1046 945 q 1246 951 1206 951 q 1259 924 1259 951 q 1263 764 1259 871 q 1267 604 1267 657 z "},"X":{"ha":856,"x_min":41,"x_max":811,"o":"m 811 90 q 805 12 811 24 q 759 -3 798 -3 q 732 -3 753 -3 q 697 -3 711 -3 q 656 -1 684 -3 q 615 0 629 0 q 517 130 604 0 q 427 261 431 260 q 330 124 413 250 q 236 0 250 4 q 185 -3 227 -3 q 46 12 46 -3 q 44 52 46 26 q 43 92 43 79 q 53 191 43 176 q 165 339 54 191 q 255 475 255 458 q 165 610 255 492 q 52 755 108 682 q 44 785 45 764 q 44 823 43 799 q 46 856 46 852 q 44 898 46 869 q 41 940 41 926 q 65 953 41 953 q 111 951 81 953 q 157 949 142 949 q 197 950 170 949 q 236 951 223 951 q 335 820 247 951 q 427 688 422 688 q 526 826 440 696 q 621 951 608 951 l 782 951 q 806 940 806 951 l 806 775 q 701 621 806 758 q 596 477 596 485 q 688 343 596 465 q 802 193 797 200 q 811 90 811 178 z "},"Y":{"ha":863,"x_min":21,"x_max":840,"o":"m 840 705 q 829 654 840 676 q 587 285 741 479 q 566 233 566 256 q 570 125 566 197 q 574 18 574 54 q 568 3 574 6 q 550 0 567 3 q 428 -4 526 -4 q 302 0 330 -4 q 283 20 283 3 q 290 129 283 56 q 296 239 296 203 q 279 286 296 261 q 45 642 197 402 q 29 685 29 668 q 25 807 29 726 q 21 929 21 888 q 35 951 21 951 q 160 948 76 951 q 286 945 244 945 q 302 935 302 945 q 299 830 302 900 q 296 726 296 761 q 355 625 296 706 q 433 526 403 561 q 507 624 461 559 q 566 722 566 705 q 561 825 566 756 q 555 928 555 894 q 562 944 555 942 q 578 944 562 944 q 701 948 619 944 q 824 951 783 951 q 838 922 838 951 q 839 814 838 886 q 840 705 840 742 z "},"Z":{"ha":750,"x_min":43,"x_max":710,"o":"m 673 -11 q 553 -7 633 -11 q 433 -3 473 -3 q 263 -1 376 -3 q 93 0 150 0 q 65 16 68 0 q 52 144 64 59 q 43 182 43 178 q 210 445 43 185 q 376 724 376 704 q 358 734 376 734 q 215 732 311 734 q 71 729 119 729 q 56 745 56 729 q 71 842 56 770 q 86 947 86 915 q 104 958 86 958 q 386 954 198 958 q 667 950 573 950 q 685 935 681 950 q 697 779 697 880 q 685 749 697 767 q 505 476 642 687 q 349 224 349 235 q 361 218 349 218 q 572 224 498 218 q 637 232 587 224 q 701 239 680 239 q 710 224 710 239 q 690 4 710 114 q 673 -11 688 -11 z "},"[":{"ha":568,"x_min":87,"x_max":543,"o":"m 524 810 q 443 812 497 810 q 361 815 389 815 q 318 800 330 815 q 306 644 312 792 q 301 460 301 518 q 325 -114 301 -22 q 403 -115 349 -114 q 481 -115 455 -115 q 532 -120 525 -115 q 542 -164 542 -127 q 529 -261 542 -258 q 163 -264 279 -264 q 106 -252 115 -264 q 98 -67 99 -243 q 98 144 98 39 q 92 442 98 210 q 87 741 87 627 q 111 953 87 938 q 186 956 117 956 q 326 957 233 956 q 467 958 420 958 q 533 949 524 958 q 542 882 542 940 q 543 839 542 826 q 524 810 541 810 z "},"\\":{"ha":460,"x_min":27,"x_max":430,"o":"m 296 -87 q 283 -79 287 -87 q 255 25 281 -74 l 195 256 q 98 585 146 420 q 27 892 27 835 q 85 933 27 909 q 160 957 138 957 q 174 950 168 957 q 260 631 177 946 q 356 292 308 462 q 430 -22 430 28 l 429 -29 q 365 -60 427 -34 q 296 -87 304 -87 z "},"]":{"ha":568,"x_min":54,"x_max":509,"o":"m 509 741 q 504 442 509 627 q 497 144 498 210 q 497 -67 497 39 q 490 -252 496 -243 q 433 -264 480 -264 l 66 -261 q 54 -164 54 -256 q 57 -125 54 -144 q 139 -115 66 -115 q 206 -115 161 -115 q 271 -114 250 -114 q 295 460 295 -22 q 290 644 295 518 q 278 800 284 792 q 235 815 266 815 q 151 812 207 815 q 66 810 94 810 q 54 882 54 810 q 62 949 54 940 q 129 958 71 958 q 270 957 176 958 q 410 956 363 956 q 485 953 479 956 q 509 741 509 938 z "},"^":{"ha":724,"x_min":31,"x_max":701,"o":"m 554 376 q 533 390 547 376 q 364 661 429 504 q 357 667 361 667 q 350 661 353 667 q 329 602 343 642 q 193 393 282 485 q 172 379 180 379 q 134 398 168 379 q 92 422 96 420 q 31 454 31 450 q 41 476 31 460 q 166 663 139 618 q 264 865 224 758 q 285 885 271 885 q 321 883 297 885 q 358 880 346 880 q 399 883 372 880 q 439 885 426 885 q 460 865 454 885 q 542 679 486 767 q 628 557 549 668 q 701 452 701 455 q 693 444 701 447 q 616 408 678 440 q 554 376 556 376 z "},"_":{"ha":640,"x_min":-14,"x_max":646,"o":"m 621 -282 q 455 -279 566 -282 q 289 -275 345 -275 q 145 -279 241 -275 q 1 -282 50 -282 q -14 -261 -14 -282 q -9 -181 -14 -235 q -5 -100 -5 -127 q 9 -87 -5 -87 q 162 -91 60 -87 q 315 -94 264 -94 q 474 -92 368 -94 q 633 -90 581 -90 q 646 -105 646 -90 q 642 -188 646 -132 q 637 -271 637 -243 q 621 -282 637 -282 z "},"`":{"ha":514,"x_min":36,"x_max":446,"o":"m 446 747 q 431 734 446 734 l 425 734 q 224 789 337 743 q 46 896 107 838 q 36 911 36 905 q 46 924 36 916 q 104 960 66 935 q 155 1006 121 975 q 168 1013 159 1009 q 301 918 223 972 q 432 851 382 871 q 446 838 446 846 q 444 815 446 830 q 441 793 441 800 q 444 770 441 785 q 446 747 446 755 z "},"a":{"ha":817,"x_min":29,"x_max":763,"o":"m 739 339 q 745 184 739 287 q 751 29 751 81 q 728 0 751 2 q 535 -6 644 -6 q 518 33 522 -6 q 507 73 513 72 q 493 61 502 70 q 330 -16 417 -16 q 111 89 198 -16 q 29 322 29 186 q 114 574 29 479 q 355 673 202 673 q 524 599 462 673 q 528 595 526 595 q 542 628 534 595 q 561 661 550 661 q 656 647 586 661 q 753 624 724 633 q 763 613 763 620 q 761 599 763 610 q 739 339 739 476 m 521 335 q 485 430 521 393 q 390 468 448 468 q 296 431 332 468 q 260 335 260 393 q 298 241 260 280 q 390 201 336 201 q 484 239 448 201 q 521 335 521 277 z "},"b":{"ha":818,"x_min":44,"x_max":793,"o":"m 793 332 q 711 94 793 189 q 485 -8 625 -8 q 321 50 383 -8 q 313 54 316 54 q 300 29 306 54 q 286 1 294 4 q 93 -2 275 -2 q 50 14 50 -2 q 52 24 50 16 q 65 435 65 132 q 45 939 65 724 l 44 946 q 65 958 44 957 q 183 968 80 959 q 301 975 256 975 q 314 953 314 975 q 311 883 314 926 q 306 812 307 829 q 302 629 302 745 q 313 608 302 608 q 323 614 319 608 q 484 679 385 679 q 715 578 632 679 q 793 332 793 484 m 547 339 q 513 434 547 395 q 422 473 478 473 q 333 434 366 473 q 300 338 300 395 q 332 241 300 278 q 424 203 366 203 q 515 243 481 203 q 547 339 547 280 z "},"c":{"ha":578,"x_min":25,"x_max":564,"o":"m 507 446 q 466 457 506 446 q 400 468 425 468 q 304 432 340 468 q 268 335 268 395 q 307 237 268 273 q 410 201 347 201 q 477 217 439 201 q 512 232 514 232 q 542 146 524 232 q 557 41 557 67 q 473 -3 557 16 q 368 -17 408 -17 q 122 83 219 -17 q 25 334 25 184 q 122 584 25 482 q 368 685 220 685 q 546 642 469 685 q 564 623 564 632 q 543 543 564 614 q 518 460 524 475 q 507 446 513 446 z "},"d":{"ha":819,"x_min":26,"x_max":777,"o":"m 777 962 q 771 918 777 977 q 760 725 764 842 q 754 422 754 592 q 770 24 754 142 q 771 7 771 11 q 761 -1 771 0 q 581 -5 736 -5 q 539 9 545 -5 q 536 61 538 35 q 531 72 536 66 q 521 64 527 70 q 338 -8 448 -8 q 109 92 195 -8 q 26 334 26 188 q 107 577 26 481 q 338 679 193 679 q 497 614 440 679 q 511 603 507 603 q 517 621 517 603 q 514 777 517 673 q 511 932 511 880 q 522 954 511 951 q 642 962 566 956 q 762 979 777 979 q 777 962 777 979 m 521 339 q 484 433 521 393 q 393 473 446 473 q 305 433 338 473 q 272 336 272 393 q 305 243 272 281 q 393 203 339 203 q 484 243 448 203 q 521 339 521 284 z "},"e":{"ha":696,"x_min":28,"x_max":679,"o":"m 679 368 q 635 290 679 300 q 494 275 627 289 q 256 254 414 267 q 313 187 265 210 q 403 168 353 168 q 524 201 463 168 q 576 233 550 217 q 624 164 590 227 q 657 85 657 102 q 647 69 657 80 q 390 -20 564 -20 q 130 75 229 -20 q 28 330 28 170 q 119 586 28 486 q 367 689 212 689 q 588 594 497 689 q 679 368 679 499 m 441 410 q 412 484 441 452 q 340 515 382 515 q 270 479 298 515 q 244 401 244 446 q 263 383 244 383 q 419 399 313 383 q 441 410 441 402 z "},"f":{"ha":490,"x_min":16,"x_max":475,"o":"m 475 437 q 457 421 475 421 q 342 425 384 421 q 346 283 344 374 q 352 149 347 245 q 357 15 357 63 q 338 -1 357 1 q 222 -4 315 -4 q 123 0 146 -4 q 100 28 100 4 l 100 401 q 73 421 100 421 q 57 420 68 421 q 42 420 47 420 q 22 431 23 420 q 16 602 16 490 q 42 633 16 627 q 89 636 65 635 q 85 721 85 690 q 131 890 85 838 q 422 996 221 996 q 439 987 436 996 q 454 897 444 957 q 463 859 455 892 q 469 821 469 834 q 421 800 469 804 q 353 779 366 793 q 330 684 330 755 q 334 642 330 661 q 393 643 353 642 q 453 644 433 644 q 473 629 473 644 q 474 533 473 597 q 475 437 475 469 z "},"g":{"ha":793,"x_min":25,"x_max":738,"o":"m 733 176 q 652 -101 733 -17 q 372 -187 568 -187 q 217 -169 315 -187 q 92 -115 92 -146 q 121 18 92 -102 q 136 37 125 37 q 143 35 139 37 q 336 -17 248 -17 q 433 7 385 -17 q 492 81 492 37 l 492 126 q 314 61 422 61 q 104 153 186 61 q 25 370 25 241 q 101 585 25 499 q 309 673 180 673 q 465 600 411 673 q 480 585 476 585 q 486 610 486 585 q 498 664 486 664 q 616 653 509 664 q 726 640 722 642 q 738 623 738 636 q 735 483 738 576 q 732 343 732 390 q 732 260 732 315 q 733 176 733 204 m 498 364 q 466 450 498 414 q 383 486 433 486 q 301 449 334 486 q 268 363 268 412 q 301 277 268 313 q 383 241 335 241 q 466 278 433 241 q 498 364 498 315 z "},"h":{"ha":787,"x_min":47,"x_max":734,"o":"m 734 492 l 733 24 q 714 -3 733 0 q 615 -5 692 -5 q 511 0 541 -5 q 489 29 489 4 q 491 205 489 87 q 493 380 493 322 q 412 460 493 460 q 349 438 385 460 q 309 389 309 414 l 309 221 q 310 123 309 189 q 311 25 311 58 q 290 -3 311 0 q 172 -5 269 -5 q 92 0 117 -5 q 68 24 68 5 q 68 185 68 77 q 69 346 69 292 q 64 713 69 568 q 61 814 62 764 q 49 916 58 873 q 47 928 47 924 q 57 942 47 939 q 119 949 78 948 q 182 953 173 951 q 304 967 304 967 q 315 953 315 967 q 313 894 315 931 q 310 835 310 850 q 306 593 306 682 q 313 579 306 579 q 347 603 314 579 q 422 647 387 631 q 526 671 476 671 q 671 625 613 671 q 734 492 734 576 z "},"i":{"ha":382,"x_min":56,"x_max":326,"o":"m 326 815 q 193 697 326 697 q 99 727 136 697 q 58 815 58 760 q 100 902 58 868 q 193 933 139 933 q 285 901 246 933 q 326 815 326 867 m 309 311 q 311 164 309 262 q 313 17 313 66 q 296 0 313 3 q 192 -4 273 -4 q 87 0 111 -4 q 69 9 73 3 q 68 29 68 12 q 70 170 68 76 q 72 311 72 264 q 57 618 72 504 q 56 632 56 629 q 74 646 56 646 q 132 642 93 646 q 191 637 171 637 q 250 641 210 637 q 309 644 289 644 q 325 631 325 644 q 323 618 325 628 q 309 311 309 486 z "},"j":{"ha":386,"x_min":-20,"x_max":330,"o":"m 330 822 q 196 708 330 708 q 102 736 138 708 q 62 822 62 766 q 104 907 62 874 q 196 937 142 937 q 288 907 250 937 q 330 822 330 875 m 325 143 q 277 -68 325 3 q 92 -174 223 -146 q 7 -182 52 -182 q -20 -64 -20 -182 q -3 0 -20 -5 q 65 32 51 16 q 85 107 82 51 q 87 294 87 144 q 62 619 87 473 q 62 629 62 625 q 81 646 62 646 q 186 650 149 646 q 304 662 294 662 q 321 644 319 662 q 325 379 325 612 l 325 143 z "},"k":{"ha":835,"x_min":58,"x_max":811,"o":"m 811 443 q 664 215 811 293 q 650 201 650 208 q 713 105 650 189 q 777 16 777 20 q 597 -2 777 -2 q 517 16 528 -2 q 432 146 490 61 q 310 155 429 150 q 311 88 310 134 q 311 20 311 42 q 292 -3 311 -1 q 184 -4 279 -4 q 89 -1 102 -4 q 71 26 71 2 l 71 441 q 64 691 71 525 q 58 940 58 857 q 77 957 58 956 q 184 958 113 957 q 250 966 203 960 q 315 972 292 972 q 326 953 326 972 q 322 883 326 927 q 317 812 317 831 q 311 587 311 667 q 315 567 311 568 q 332 582 321 571 q 546 673 420 673 q 734 619 665 673 q 811 443 811 559 m 542 399 q 449 481 542 481 q 361 450 408 481 q 311 377 311 416 q 326 309 311 321 q 404 301 338 301 q 542 399 542 301 z "},"l":{"ha":371,"x_min":47,"x_max":324,"o":"m 304 408 q 306 124 304 223 q 308 71 306 109 q 310 17 310 36 q 293 0 310 3 q 183 -5 262 -5 q 79 0 102 -5 q 62 18 64 3 q 62 47 62 20 q 64 228 62 108 q 65 408 65 349 q 66 668 65 693 q 49 926 64 818 q 47 938 47 934 q 65 953 47 953 l 307 953 q 323 939 324 953 l 322 926 q 304 408 304 633 z "},"m":{"ha":1213,"x_min":50,"x_max":1141,"o":"m 1141 25 q 1121 -1 1141 1 q 1021 -4 1101 -4 q 918 0 938 -4 q 897 33 897 4 q 899 126 897 64 q 901 220 901 189 q 899 389 901 338 q 822 469 895 469 q 759 443 790 469 q 724 383 727 416 q 721 216 721 355 q 723 120 721 184 q 725 22 725 55 q 705 0 725 0 l 500 0 q 481 28 481 0 q 483 123 481 60 q 485 220 485 187 q 484 296 485 245 q 482 372 482 347 q 408 469 482 469 q 344 446 378 469 q 306 393 306 421 q 307 209 306 332 q 307 25 307 86 q 303 4 307 8 q 282 -1 299 0 q 186 -4 252 -4 q 89 0 143 -4 q 70 5 73 1 q 66 25 66 8 q 67 188 66 79 q 68 350 68 296 q 52 600 68 461 q 50 612 50 608 q 60 628 50 624 q 116 638 75 634 q 176 644 167 643 q 230 659 183 646 q 283 668 263 668 q 297 621 296 668 q 302 574 298 574 q 318 583 309 576 q 414 648 379 631 q 528 673 467 673 q 639 646 590 673 q 710 558 694 614 q 809 640 746 607 q 932 673 872 673 q 1078 632 1021 673 q 1141 498 1141 585 q 1139 390 1141 463 q 1137 282 1137 318 q 1139 154 1137 239 q 1141 25 1141 68 z "},"n":{"ha":787,"x_min":40,"x_max":732,"o":"m 732 20 q 713 -1 732 1 q 614 -4 694 -4 q 508 0 528 -4 q 488 28 488 4 q 490 124 488 60 q 492 221 492 189 q 490 296 492 246 q 489 371 489 346 q 408 464 489 464 q 347 441 382 464 q 309 390 309 415 l 309 24 q 288 -1 309 1 q 191 -4 264 -4 q 87 0 111 -4 q 66 22 66 3 q 67 182 66 75 q 68 342 68 288 q 41 607 68 511 q 40 617 40 613 q 50 632 40 628 q 164 647 93 637 q 286 668 272 668 q 297 622 293 668 q 309 576 301 576 q 381 624 301 576 q 522 671 462 671 q 666 630 608 671 q 730 500 730 583 l 730 283 q 731 152 730 239 q 732 20 732 64 z "},"o":{"ha":734,"x_min":25,"x_max":710,"o":"m 710 334 q 615 83 710 179 q 367 -14 521 -14 q 121 81 218 -14 q 25 326 25 176 q 117 581 25 483 q 367 679 210 679 q 615 583 520 679 q 710 334 710 487 m 488 334 q 454 428 488 387 q 368 469 421 469 q 280 427 315 469 q 248 334 248 388 q 280 239 248 279 q 368 197 315 197 q 456 239 421 197 q 488 334 488 279 z "},"p":{"ha":836,"x_min":56,"x_max":806,"o":"m 806 326 q 720 85 806 181 q 489 -14 632 -14 q 377 12 437 -14 q 323 38 317 38 q 314 18 314 38 q 317 -86 314 -17 q 321 -191 321 -156 q 298 -212 321 -212 l 160 -213 q 100 -210 113 -213 q 79 -184 79 -205 l 81 338 q 57 604 81 496 q 56 616 56 611 q 64 629 56 626 q 165 651 90 640 q 270 663 237 663 q 300 628 296 663 q 309 593 304 593 q 367 630 302 593 q 485 667 432 667 q 720 570 632 667 q 806 326 806 476 m 554 328 q 521 422 554 382 q 432 465 485 465 q 345 422 378 465 q 317 328 317 384 q 347 232 317 270 q 435 191 378 191 q 554 328 554 191 z "},"q":{"ha":822,"x_min":26,"x_max":762,"o":"m 747 248 l 747 151 q 751 -15 747 96 q 754 -182 754 -127 q 733 -204 754 -202 q 636 -207 704 -207 q 581 -210 618 -207 q 526 -212 545 -212 q 513 -192 513 -212 q 513 -72 513 -152 q 514 49 514 9 q 508 58 514 58 q 453 21 519 58 q 326 -16 387 -16 q 106 90 192 -16 q 26 325 26 188 q 104 570 26 472 q 330 676 187 676 q 496 614 439 676 q 509 602 500 608 q 516 629 515 608 q 516 658 516 644 q 539 684 518 684 q 665 677 595 684 q 762 653 762 668 q 761 637 762 653 q 747 248 747 456 m 510 336 q 479 433 510 395 q 389 473 447 473 q 302 432 334 473 q 272 338 272 393 q 305 243 272 281 q 396 203 340 203 q 482 242 452 203 q 510 336 510 278 z "},"r":{"ha":529,"x_min":37,"x_max":514,"o":"m 507 422 q 478 396 507 396 q 440 398 465 396 q 404 399 416 399 q 327 382 347 399 q 307 311 307 364 q 308 222 307 281 q 309 134 309 163 q 311 75 309 114 q 314 17 314 36 q 292 -1 314 1 q 192 -4 259 -4 q 89 0 127 -4 q 66 22 66 3 q 67 185 66 77 q 68 347 68 293 q 39 610 68 507 q 37 620 37 616 q 47 633 37 630 q 157 648 85 637 q 267 669 264 669 q 283 627 279 669 q 295 584 286 584 q 351 620 286 584 q 476 655 416 655 q 514 639 514 655 q 510 583 514 619 q 505 528 506 545 q 506 475 505 508 q 507 422 507 435 z "},"s":{"ha":494,"x_min":28,"x_max":454,"o":"m 454 549 q 444 530 454 542 q 406 535 425 535 q 339 517 366 535 q 307 460 307 497 q 341 399 307 436 q 406 326 393 345 q 440 215 440 274 q 427 142 440 180 q 387 79 411 99 q 270 6 337 36 q 136 -25 197 -25 q 76 48 123 -25 q 28 138 28 122 q 36 146 28 144 q 132 163 83 155 q 191 226 191 182 q 157 295 191 256 q 92 368 95 363 q 58 471 58 416 q 161 644 58 572 q 358 707 253 707 q 412 634 369 707 q 454 549 454 561 z "},"t":{"ha":525,"x_min":14,"x_max":511,"o":"m 511 199 q 506 137 511 178 q 501 76 501 96 q 497 52 501 57 q 475 36 493 46 q 281 -12 387 -12 q 85 138 85 -12 q 88 272 85 182 q 92 407 92 362 q 57 437 92 437 q 48 437 54 437 q 39 436 42 436 q 14 454 14 436 q 15 488 14 465 q 17 521 17 510 q 15 564 17 535 q 14 608 14 593 q 57 623 14 621 q 83 636 81 623 q 86 718 87 662 q 83 801 83 805 q 98 880 83 880 q 151 871 117 880 q 204 861 189 863 q 309 848 239 857 q 326 837 326 847 q 321 755 326 810 q 317 672 317 700 q 336 639 317 639 q 408 641 360 639 q 481 643 456 643 q 496 633 496 643 q 492 586 496 617 q 489 539 489 555 q 490 492 489 523 q 490 444 490 460 q 471 430 490 430 q 425 431 457 430 q 380 432 393 432 l 329 432 q 319 402 319 432 q 319 354 319 386 q 319 306 319 321 q 332 227 319 249 q 404 198 351 198 q 453 206 421 198 q 497 214 484 214 q 511 199 511 214 z "},"u":{"ha":810,"x_min":56,"x_max":755,"o":"m 755 616 q 751 466 755 566 q 746 315 746 366 q 749 169 746 267 q 753 23 753 71 q 736 0 753 5 q 627 -7 710 -7 q 524 -3 553 -7 q 507 14 511 -1 q 503 54 505 34 q 494 85 500 85 q 425 39 503 85 q 283 -7 347 -7 q 71 155 104 -7 q 56 374 56 231 q 81 618 56 528 q 109 646 88 646 q 203 645 140 646 q 298 644 267 644 q 319 627 319 644 q 318 612 319 622 q 304 425 304 520 q 311 264 304 307 q 400 189 323 189 q 465 216 430 189 q 501 271 500 242 q 503 611 503 296 q 506 637 503 633 q 530 644 510 644 q 630 644 564 644 q 730 643 697 643 q 754 633 751 643 q 755 616 755 627 z "},"v":{"ha":745,"x_min":33,"x_max":710,"o":"m 710 471 q 703 334 710 355 q 609 170 687 286 q 493 16 541 71 q 387 -5 475 -5 q 286 0 309 -5 q 262 14 272 3 q 146 167 222 58 q 50 328 66 284 q 33 468 33 374 q 34 548 33 494 q 35 628 35 601 q 58 646 35 646 q 162 644 93 646 q 267 642 232 642 q 282 621 282 642 q 279 563 282 602 q 277 505 277 525 q 281 390 277 435 q 320 303 283 367 q 376 236 359 236 q 431 302 393 236 q 469 386 467 363 q 475 503 475 434 q 471 562 475 522 q 467 621 467 602 q 481 642 467 642 q 529 641 497 642 q 578 640 562 640 q 627 643 594 640 q 676 646 660 646 q 699 628 693 646 q 710 471 710 589 z "},"w":{"ha":1051,"x_min":21,"x_max":1031,"o":"m 1031 475 q 1014 328 1031 369 q 926 166 996 284 q 827 16 854 45 q 737 -4 808 -4 q 663 0 678 -4 q 639 14 650 3 q 519 200 600 52 q 403 14 434 47 q 314 -4 387 -4 q 248 0 262 -4 q 133 147 214 9 q 39 328 67 260 q 21 475 21 371 q 28 628 21 600 q 52 646 33 646 q 145 644 83 646 q 239 642 208 642 q 254 619 254 642 q 253 559 254 600 q 252 499 252 519 q 256 378 252 417 q 292 301 257 363 q 335 240 327 240 q 380 300 347 240 q 414 376 406 351 q 422 498 422 401 q 419 559 422 519 q 415 619 415 600 q 431 640 415 640 q 506 641 450 640 l 534 642 q 531 642 533 642 q 530 642 530 642 l 535 642 l 553 642 q 628 640 578 642 q 643 619 643 638 q 640 541 643 593 q 636 463 636 488 q 642 375 636 393 q 674 301 649 352 q 717 240 705 240 q 762 302 729 240 q 796 379 794 361 q 799 619 799 405 q 812 643 799 643 q 906 645 844 643 q 1000 647 969 647 q 1023 628 1019 647 q 1031 475 1031 600 z "},"x":{"ha":679,"x_min":25,"x_max":656,"o":"m 656 18 q 633 0 656 3 q 549 -5 593 -5 q 469 0 501 -5 q 444 14 461 1 q 343 155 411 61 q 232 16 326 135 q 207 0 223 3 q 132 -5 183 -5 q 25 18 25 -5 q 26 78 25 38 q 26 139 26 119 q 39 164 26 151 q 195 330 92 219 q 100 421 147 376 q 25 509 25 495 l 25 628 q 49 646 25 646 q 130 644 76 646 q 211 642 184 642 q 236 627 224 642 q 340 501 273 577 q 437 627 401 575 q 463 640 448 640 q 547 643 491 640 q 632 646 604 646 q 656 628 656 646 l 656 509 q 644 485 656 496 q 492 326 593 433 q 644 163 543 273 q 656 138 656 150 l 656 18 z "},"y":{"ha":747,"x_min":32,"x_max":724,"o":"m 724 484 q 715 323 724 352 q 567 78 705 290 q 455 -76 545 45 q 342 -216 355 -209 q 134 -227 326 -227 q 94 -220 104 -227 q 72 -154 85 -192 q 50 -106 61 -130 q 35 -59 35 -71 q 46 -46 35 -46 q 235 40 235 -46 q 142 175 235 47 q 37 340 47 306 q 32 481 32 360 q 33 554 32 505 q 35 628 35 604 q 57 646 35 646 q 162 644 92 646 q 267 642 232 642 q 281 621 281 642 q 279 563 281 602 q 277 506 277 525 q 279 390 277 420 q 320 302 281 366 q 379 235 361 235 q 432 301 395 235 q 469 386 467 364 q 476 515 476 446 q 473 571 476 534 q 469 627 469 608 q 484 640 469 640 q 587 643 518 640 q 690 646 656 646 q 714 628 708 646 q 724 484 724 597 z "},"z":{"ha":650,"x_min":37,"x_max":641,"o":"m 580 -9 q 515 -4 557 -9 q 450 1 469 1 q 310 3 406 3 q 153 0 199 3 q 105 -4 143 -1 q 57 -7 75 -7 q 45 9 45 -7 q 45 55 44 26 q 46 100 46 88 q 42 138 46 113 q 37 174 37 163 q 47 192 37 183 q 301 433 186 310 q 254 435 286 433 q 205 436 222 436 q 131 434 181 436 q 57 431 81 431 q 45 439 45 431 q 66 531 45 455 q 87 643 87 606 q 111 654 87 654 q 192 646 113 654 q 368 639 257 639 q 478 640 405 639 q 587 642 551 642 q 610 623 610 642 l 610 476 q 351 201 610 453 q 623 215 551 201 q 631 216 629 216 q 641 209 641 216 q 612 102 641 220 q 596 5 608 69 q 580 -9 593 -9 z "},"{":{"ha":543,"x_min":41,"x_max":492,"o":"m 492 -264 q 479 -272 492 -269 q 358 -282 446 -282 q 183 -248 241 -282 q 109 -93 109 -203 q 144 47 109 -55 q 180 184 180 149 q 141 256 180 229 q 60 281 105 281 q 41 294 41 281 q 46 321 41 303 q 50 349 50 339 q 46 376 50 358 q 41 403 41 394 q 60 416 41 416 q 142 442 106 416 q 183 515 183 471 q 146 651 183 549 q 109 790 109 753 q 183 945 109 901 q 358 979 241 979 q 479 970 446 979 q 492 962 492 966 q 489 927 492 950 q 485 892 485 903 q 486 860 485 881 q 486 828 486 838 q 471 812 486 812 q 415 817 452 812 q 359 822 378 822 q 312 753 312 822 q 336 643 312 720 q 361 529 361 566 q 338 420 361 476 q 261 349 308 349 q 340 298 307 349 q 370 205 370 253 q 341 70 370 163 q 312 -59 312 -22 q 364 -131 312 -131 q 421 -123 383 -131 q 477 -115 459 -115 q 488 -131 488 -115 q 486 -164 488 -142 q 484 -197 484 -186 q 488 -231 484 -209 q 492 -264 492 -254 z "},"|":{"ha":432,"x_min":126,"x_max":301,"o":"m 300 -64 q 292 -78 301 -75 q 144 -95 156 -95 q 135 -79 137 -95 q 136 5 136 -84 l 136 486 q 131 705 136 559 q 126 924 126 851 q 135 947 126 942 q 227 965 164 965 q 292 945 290 965 q 292 860 294 924 q 289 770 289 778 q 290 613 289 718 q 290 456 290 508 q 300 -58 290 134 l 300 -64 z "},"}":{"ha":543,"x_min":51,"x_max":501,"o":"m 501 294 q 484 281 501 281 q 402 256 437 281 q 363 184 363 229 q 399 47 363 149 q 435 -93 435 -55 q 360 -248 435 -203 q 184 -282 302 -282 q 64 -272 97 -282 q 51 -264 51 -269 q 55 -231 51 -254 q 60 -197 60 -209 q 58 -164 60 -186 q 56 -131 56 -142 q 66 -115 56 -115 q 122 -123 84 -115 q 179 -131 160 -131 q 231 -59 231 -131 q 202 70 231 -22 q 172 205 172 163 q 203 298 172 253 q 282 349 236 349 q 205 420 235 349 q 182 529 182 476 q 207 643 182 566 q 231 753 231 720 q 183 822 231 822 q 128 817 165 822 q 72 812 91 812 q 57 828 57 812 q 58 860 57 838 q 58 892 58 881 q 55 927 58 903 q 51 962 51 950 q 64 970 51 966 q 184 979 97 979 q 360 945 302 979 q 435 790 435 901 q 397 651 435 753 q 359 515 359 549 q 401 442 359 471 q 484 416 437 416 q 501 403 501 416 q 497 376 501 394 q 493 349 493 358 q 497 321 493 339 q 501 294 501 303 z "},"~":{"ha":750,"x_min":7,"x_max":751,"o":"m 751 415 q 696 361 751 404 q 631 313 656 329 q 489 260 551 260 q 379 293 434 260 q 297 326 325 326 q 214 282 267 326 q 155 238 160 238 q 140 249 149 238 q 83 329 122 276 q 16 401 65 353 q 7 414 7 409 q 126 519 7 435 q 278 581 213 581 q 370 545 325 581 q 448 509 416 509 q 554 557 488 509 q 621 606 620 606 q 635 593 627 606 q 697 498 639 587 q 751 415 751 419 z "},"":{"ha":964,"x_min":4,"x_max":957,"o":"m 957 17 q 940 0 957 5 q 814 -5 920 -5 q 689 0 717 -5 q 660 31 666 5 q 624 135 637 128 q 442 140 613 140 q 319 134 327 140 q 294 61 308 123 q 262 0 281 5 q 108 -5 239 -5 q 4 14 4 -5 q 157 448 4 32 q 338 942 323 897 q 357 968 346 968 q 413 964 375 968 q 471 961 452 961 q 525 963 489 961 q 578 966 560 966 q 602 943 591 966 q 795 455 635 872 q 957 17 957 35 m 476 635 q 428 505 462 605 q 391 381 391 399 q 432 368 391 369 q 501 366 453 366 q 551 377 546 366 q 552 387 552 380 q 521 510 552 409 q 476 635 490 608 m 741 1116 q 746 1067 741 1099 q 751 1020 751 1036 q 724 1006 751 1009 q 671 1004 705 1003 q 630 1006 619 1006 q 589 1004 616 1006 q 549 1003 562 1003 q 524 1029 524 1003 q 525 1072 524 1044 q 526 1116 526 1101 q 525 1163 526 1131 q 523 1211 523 1196 q 543 1235 523 1235 q 593 1232 559 1235 q 644 1230 627 1230 q 685 1231 658 1230 q 726 1232 713 1232 q 749 1217 749 1232 q 745 1166 749 1200 q 741 1116 741 1133 m 406 1113 q 410 1064 406 1096 q 414 1015 414 1031 q 394 1002 414 1002 q 343 1004 377 1002 q 293 1006 310 1006 q 249 1004 278 1006 q 205 1002 220 1002 q 187 1019 187 1002 q 189 1061 187 1033 q 191 1104 191 1090 q 189 1159 191 1122 q 186 1213 186 1195 q 208 1233 186 1233 q 296 1232 237 1233 q 383 1231 354 1231 q 412 1212 412 1231 q 409 1162 412 1196 q 406 1113 406 1129 z "},"":{"ha":964,"x_min":4,"x_max":957,"o":"m 957 17 q 814 -5 957 -5 q 689 0 711 -5 q 660 31 668 5 q 644 87 652 58 q 624 135 631 130 q 442 140 614 140 q 319 133 326 140 q 288 40 312 126 q 281 16 281 16 q 262 0 276 5 q 140 -5 248 -5 q 4 14 4 -5 q 151 432 4 23 q 323 903 296 831 q 261 1043 261 958 q 326 1185 261 1127 q 473 1240 389 1240 q 621 1185 559 1240 q 685 1043 685 1127 q 621 901 685 961 q 806 427 671 779 q 957 17 957 35 m 561 1042 q 536 1104 561 1080 q 473 1129 511 1129 q 410 1105 436 1129 q 385 1043 385 1080 q 411 984 385 1009 q 472 958 438 958 q 534 982 508 958 q 561 1042 561 1006 m 476 635 q 428 505 462 605 q 391 381 391 399 q 501 366 391 366 q 552 387 552 366 q 521 510 552 409 q 476 635 490 608 z "},"":{"ha":865,"x_min":37,"x_max":854,"o":"m 854 153 q 840 125 854 142 q 509 -24 715 -24 q 165 121 297 -24 q 37 473 37 260 q 163 823 37 680 q 496 974 294 974 q 840 839 715 974 q 854 812 854 824 q 807 717 854 800 q 747 624 760 634 q 734 618 742 618 q 700 646 730 618 q 628 696 663 678 q 517 724 574 724 q 357 649 417 724 q 302 478 302 580 q 357 305 302 375 q 517 229 417 229 q 629 255 576 229 q 699 302 663 272 q 732 328 729 328 q 746 321 739 328 q 805 236 757 309 q 854 153 854 161 m 612 -77 q 416 -281 612 -281 q 349 -257 392 -281 q 302 -213 302 -232 q 334 -176 302 -211 q 355 -144 345 -160 q 380 -121 371 -121 q 401 -135 382 -121 q 435 -149 420 -149 q 475 -133 458 -149 q 493 -94 493 -116 q 438 -4 493 -37 l 569 -20 q 612 -77 584 -38 z "},"":{"ha":785,"x_min":59,"x_max":757,"o":"m 757 211 q 745 104 757 182 q 724 3 733 19 q 701 -10 715 -10 q 681 -8 695 -10 q 392 -1 631 -1 q 237 -1 340 -1 q 82 0 134 0 q 60 20 60 0 q 68 248 60 96 q 77 476 77 400 q 68 764 77 553 q 61 926 66 819 l 60 936 q 77 951 59 951 q 228 949 127 951 q 379 946 329 946 q 528 949 429 946 q 677 951 628 951 q 718 925 713 951 q 729 830 722 909 q 736 734 736 751 q 722 720 736 720 q 708 721 718 720 q 384 736 528 736 q 340 719 348 736 q 336 667 336 711 q 350 606 336 621 q 394 593 361 593 q 420 594 401 593 q 453 595 440 595 q 626 600 538 595 q 663 603 633 600 q 700 606 686 606 q 716 590 716 606 q 704 486 716 604 q 699 378 699 432 q 679 364 699 364 q 618 371 679 364 q 441 375 579 375 l 370 375 q 337 361 342 375 q 336 319 336 358 q 343 253 336 268 q 430 222 355 227 q 529 222 429 222 q 636 229 565 222 q 742 235 707 235 q 757 211 757 235 m 256 976 q 243 990 243 975 q 245 1007 243 996 q 246 1025 246 1019 q 244 1050 246 1033 q 241 1075 241 1067 q 256 1090 241 1084 q 385 1157 289 1103 q 510 1246 426 1187 q 524 1253 514 1249 q 535 1246 528 1251 q 585 1200 551 1230 q 640 1165 604 1189 q 651 1152 651 1158 q 642 1137 651 1146 q 463 1030 582 1081 q 262 976 343 980 l 256 976 z "},"":{"ha":1034,"x_min":62,"x_max":970,"o":"m 970 930 q 963 698 970 853 q 957 465 957 543 l 957 18 q 937 0 957 0 q 888 -1 921 0 q 839 -3 855 -3 q 786 0 821 -3 q 733 3 751 3 q 704 25 721 3 q 484 317 655 91 q 342 503 437 380 q 332 511 339 507 q 326 496 326 506 q 331 260 326 417 q 335 24 335 102 q 317 0 335 0 l 82 0 q 62 21 62 0 q 70 242 62 94 q 77 464 77 390 q 70 697 77 542 q 64 930 64 852 q 90 945 64 945 q 187 950 130 945 q 241 959 201 951 q 294 965 275 965 q 319 942 302 965 l 572 595 q 675 458 606 549 q 704 437 692 437 q 713 490 713 437 q 705 705 713 562 q 697 920 697 848 q 711 945 697 945 q 834 948 752 945 q 957 951 916 951 q 970 930 970 951 m 778 1072 q 598 976 692 976 q 531 1004 572 976 q 465 1032 491 1032 q 416 1009 441 1032 q 382 986 390 986 q 323 1031 363 993 q 283 1085 284 1069 q 353 1151 291 1114 q 448 1188 416 1188 q 523 1163 477 1188 q 597 1138 569 1138 q 652 1162 621 1138 q 694 1185 684 1185 q 742 1137 705 1185 q 779 1078 779 1089 q 778 1072 779 1078 z "},"":{"ha":1043,"x_min":37,"x_max":1004,"o":"m 1004 475 q 869 120 1004 263 q 521 -25 732 -25 q 173 121 311 -25 q 37 475 37 264 q 173 829 37 686 q 521 977 311 977 q 868 829 729 977 q 1004 475 1004 684 m 747 476 q 686 649 747 578 q 521 724 621 724 q 359 646 425 724 q 294 475 294 572 q 355 302 294 371 q 521 229 418 229 q 684 306 616 229 q 747 476 747 379 m 795 1106 q 801 1058 795 1090 q 806 1010 806 1026 q 779 996 806 1000 q 726 994 760 994 q 684 996 673 996 q 644 995 671 996 q 603 994 616 994 q 578 1019 578 994 q 579 1063 578 1034 q 581 1106 581 1091 q 579 1154 581 1122 q 577 1202 577 1186 q 597 1225 577 1225 q 648 1223 614 1225 q 699 1220 682 1220 q 740 1221 712 1220 q 781 1222 767 1222 q 804 1207 804 1222 q 800 1157 804 1190 q 795 1106 795 1123 m 460 1103 q 464 1054 460 1086 q 468 1006 468 1022 q 448 993 468 993 q 398 995 431 993 q 347 996 364 996 q 303 994 332 996 q 259 992 274 992 q 241 1009 241 992 q 243 1052 241 1023 q 245 1095 245 1080 q 243 1149 245 1113 q 240 1204 240 1185 q 262 1223 240 1223 q 350 1222 292 1223 q 437 1221 408 1221 q 466 1202 466 1221 q 463 1153 466 1186 q 460 1103 460 1120 z "},"":{"ha":943,"x_min":59,"x_max":884,"o":"m 872 333 q 831 97 872 160 q 452 -18 755 -18 q 241 3 315 -18 q 87 132 123 37 q 70 299 70 179 q 72 382 70 327 q 74 464 74 437 q 66 700 74 543 q 59 935 59 857 q 73 951 59 951 q 198 948 115 951 q 323 945 282 945 q 340 930 340 945 q 335 662 340 840 q 329 393 329 483 q 351 250 329 287 q 476 199 381 199 q 615 334 615 199 q 610 629 615 432 q 606 924 606 825 q 623 945 606 945 q 743 948 663 945 q 864 951 824 951 q 884 935 884 951 q 877 700 884 857 q 871 464 871 543 q 871 398 871 442 q 872 333 872 355 m 747 1088 q 752 1040 747 1072 q 757 993 757 1008 q 730 979 757 982 q 677 977 711 976 q 635 979 625 979 q 595 977 622 979 q 554 976 568 976 q 529 1002 529 976 q 530 1045 529 1017 q 532 1088 532 1074 q 530 1136 532 1104 q 528 1184 528 1168 q 548 1208 528 1208 q 599 1205 565 1208 q 650 1202 633 1202 q 691 1203 663 1202 q 732 1204 718 1204 q 755 1190 755 1204 q 751 1139 755 1173 q 747 1088 747 1105 m 411 1086 q 415 1037 411 1069 q 419 988 419 1004 q 399 975 419 975 q 349 977 382 975 q 298 979 315 979 q 254 977 283 979 q 210 975 225 975 q 193 991 193 975 q 195 1034 193 1006 q 197 1077 197 1063 q 194 1132 197 1095 q 191 1186 191 1168 q 214 1206 191 1206 q 301 1205 243 1206 q 388 1204 359 1204 q 417 1185 417 1204 q 414 1135 417 1168 q 411 1086 411 1102 z "},"":{"ha":817,"x_min":29,"x_max":763,"o":"m 739 339 q 745 184 739 287 q 751 29 751 81 q 728 0 751 2 q 535 -6 644 -6 q 518 33 522 -6 q 507 73 513 72 q 493 61 502 70 q 330 -16 417 -16 q 111 89 198 -16 q 29 322 29 186 q 114 574 29 479 q 355 673 202 673 q 524 599 462 673 q 528 595 526 595 q 542 628 534 595 q 561 661 550 661 q 656 647 586 661 q 753 624 724 633 q 763 613 763 620 q 761 599 763 610 q 739 339 739 476 m 521 335 q 485 430 521 393 q 390 468 448 468 q 296 431 332 468 q 260 335 260 393 q 298 241 260 280 q 390 201 336 201 q 484 239 448 201 q 521 335 521 277 m 280 726 q 267 741 267 726 q 269 758 267 746 q 270 775 270 769 q 268 800 270 783 q 265 825 265 817 q 279 840 265 835 q 408 907 313 853 q 534 996 450 937 q 547 1003 538 1000 q 559 996 552 1002 q 608 950 574 980 q 664 916 627 939 q 675 902 675 908 q 665 888 675 897 q 486 781 606 831 q 286 726 367 730 l 280 726 z "},"":{"ha":817,"x_min":29,"x_max":763,"o":"m 739 339 q 745 184 739 287 q 751 29 751 81 q 728 0 751 2 q 535 -6 644 -6 q 518 33 522 -6 q 507 73 513 72 q 493 61 502 70 q 330 -16 417 -16 q 111 89 198 -16 q 29 322 29 186 q 114 574 29 479 q 355 673 202 673 q 524 599 462 673 q 528 595 526 595 q 542 628 534 595 q 561 661 550 661 q 656 647 586 661 q 753 624 724 633 q 763 613 763 620 q 761 599 763 610 q 739 339 739 476 m 521 335 q 485 430 521 393 q 390 468 448 468 q 296 431 332 468 q 260 335 260 393 q 298 241 260 280 q 390 201 336 201 q 484 239 448 201 q 521 335 521 277 m 579 736 q 564 724 579 724 l 559 724 q 358 779 471 732 q 180 885 241 827 q 170 900 170 894 q 180 913 170 905 q 238 949 199 924 q 289 995 254 964 q 301 1002 293 998 q 435 907 357 961 q 566 840 516 861 q 579 827 579 835 q 577 804 579 819 q 575 782 575 789 q 577 759 575 774 q 579 736 579 744 z "},"":{"ha":817,"x_min":29,"x_max":763,"o":"m 739 339 q 745 184 739 287 q 751 29 751 81 q 728 0 751 2 q 535 -6 644 -6 q 518 33 522 -6 q 507 73 513 72 q 493 61 502 70 q 330 -16 417 -16 q 111 89 198 -16 q 29 322 29 186 q 114 574 29 479 q 355 673 202 673 q 524 599 462 673 q 528 595 526 595 q 542 628 534 595 q 561 661 550 661 q 656 647 586 661 q 753 624 724 633 q 763 613 763 620 q 761 599 763 610 q 739 339 739 476 m 521 335 q 485 430 521 393 q 390 468 448 468 q 296 431 332 468 q 260 335 260 393 q 298 241 260 280 q 390 201 336 201 q 484 239 448 201 q 521 335 521 277 m 543 724 q 404 850 508 724 l 399 846 q 345 774 387 817 q 274 726 299 726 q 214 749 273 726 q 168 770 168 766 q 175 782 168 773 q 262 880 218 831 q 332 989 315 944 q 349 1002 336 1002 l 467 1002 q 482 989 478 1002 q 542 889 496 944 q 651 770 596 831 q 599 746 650 768 q 543 724 548 724 z "},"":{"ha":817,"x_min":29,"x_max":763,"o":"m 739 339 q 745 184 739 287 q 751 29 751 81 q 728 0 751 2 q 535 -6 644 -6 q 518 33 522 -6 q 507 73 513 72 q 493 61 502 70 q 330 -16 417 -16 q 111 89 198 -16 q 29 322 29 186 q 114 574 29 479 q 355 673 202 673 q 524 599 462 673 q 528 595 526 595 q 542 628 534 595 q 561 661 550 661 q 656 647 586 661 q 753 624 724 633 q 763 613 763 620 q 761 599 763 610 q 739 339 739 476 m 521 335 q 485 430 521 393 q 390 468 448 468 q 296 431 332 468 q 260 335 260 393 q 298 241 260 280 q 390 201 336 201 q 484 239 448 201 q 521 335 521 277 m 676 842 q 681 793 676 825 q 686 746 686 762 q 659 732 686 735 q 606 730 640 729 q 565 732 554 732 q 524 730 551 732 q 484 729 497 729 q 458 755 458 729 q 460 798 458 770 q 461 842 461 827 q 459 889 461 857 q 458 937 458 922 q 477 961 458 961 q 528 958 494 961 q 579 956 562 956 q 620 957 593 956 q 661 958 648 958 q 684 943 684 958 q 680 892 684 926 q 676 842 676 859 m 340 839 q 345 790 340 822 q 349 741 349 758 q 329 728 349 728 q 278 730 312 728 q 228 732 245 732 q 184 730 213 732 q 140 728 155 728 q 122 745 122 728 q 124 787 122 759 q 126 830 126 816 q 123 885 126 848 q 121 939 121 921 q 143 959 121 959 q 231 958 172 959 q 318 957 289 957 q 347 938 347 957 q 343 888 347 922 q 340 839 340 855 z "},"":{"ha":817,"x_min":29,"x_max":763,"o":"m 739 339 q 745 184 739 287 q 751 29 751 81 q 728 0 751 2 q 535 -6 644 -6 q 518 33 522 -6 q 507 73 513 72 q 493 61 502 70 q 330 -16 417 -16 q 111 89 198 -16 q 29 322 29 186 q 114 574 29 479 q 355 673 202 673 q 524 599 462 673 q 528 595 526 595 q 542 628 534 595 q 561 661 550 661 q 656 647 586 661 q 753 624 724 633 q 763 613 763 620 q 761 599 763 610 q 739 339 739 476 m 521 335 q 485 430 521 393 q 390 468 448 468 q 296 431 332 468 q 260 335 260 393 q 298 241 260 280 q 390 201 336 201 q 484 239 448 201 q 521 335 521 277 m 654 827 q 475 730 569 730 q 408 759 448 730 q 342 787 368 787 q 292 764 318 787 q 258 741 267 741 q 200 785 239 747 q 160 840 161 823 q 230 905 168 868 q 325 943 292 943 q 399 918 353 943 q 473 892 446 892 q 529 916 497 892 q 571 940 561 940 q 618 892 581 940 q 656 832 656 844 q 654 827 656 832 z "},"":{"ha":817,"x_min":29,"x_max":763,"o":"m 739 339 q 745 184 739 287 q 751 29 751 81 q 728 0 751 2 q 535 -6 644 -6 q 518 33 522 -6 q 507 73 513 72 q 493 61 502 70 q 330 -16 417 -16 q 111 89 198 -16 q 29 322 29 186 q 114 574 29 479 q 355 673 202 673 q 524 599 462 673 q 528 595 526 595 q 542 628 534 595 q 561 661 550 661 q 656 647 586 661 q 753 624 724 633 q 763 613 763 620 q 761 599 763 610 q 739 339 739 476 m 521 335 q 485 430 521 393 q 390 468 448 468 q 296 431 332 468 q 260 335 260 393 q 298 241 260 280 q 390 201 336 201 q 484 239 448 201 q 521 335 521 277 m 585 880 q 533 766 585 812 q 412 721 481 721 q 293 767 345 721 q 241 880 241 812 q 292 995 241 948 q 412 1042 343 1042 q 533 996 482 1042 q 585 880 585 949 m 486 880 q 465 931 486 910 q 412 951 444 951 q 362 930 382 951 q 342 880 342 909 q 363 831 342 852 q 412 811 385 811 q 464 831 441 811 q 486 880 486 850 z "},"":{"ha":578,"x_min":25,"x_max":564,"o":"m 507 446 q 466 457 506 446 q 400 468 425 468 q 304 432 340 468 q 268 335 268 395 q 307 237 268 273 q 410 201 347 201 q 477 217 439 201 q 512 232 514 232 q 542 146 524 232 q 557 41 557 67 q 473 -3 557 16 q 368 -17 408 -17 q 122 83 219 -17 q 25 334 25 184 q 122 584 25 482 q 368 685 220 685 q 546 642 469 685 q 564 623 564 632 q 543 543 564 614 q 518 460 524 475 q 507 446 513 446 m 477 -63 q 281 -267 477 -267 q 214 -243 257 -267 q 168 -199 168 -218 q 199 -163 168 -197 q 220 -131 210 -146 q 245 -107 236 -107 q 266 -121 248 -107 q 300 -136 285 -136 q 340 -119 323 -136 q 358 -80 358 -102 q 303 9 358 -23 l 434 -6 q 477 -63 449 -24 z "},"":{"ha":696,"x_min":28,"x_max":679,"o":"m 679 368 q 635 290 679 300 q 494 275 627 289 q 256 254 414 267 q 313 187 265 210 q 403 168 353 168 q 524 201 463 168 q 576 233 550 217 q 624 164 590 227 q 657 85 657 102 q 647 69 657 80 q 390 -20 564 -20 q 130 75 229 -20 q 28 330 28 170 q 119 586 28 486 q 367 689 212 689 q 588 594 497 689 q 679 368 679 499 m 441 410 q 412 484 441 452 q 340 515 382 515 q 270 479 298 515 q 244 401 244 446 q 263 383 244 383 q 419 399 313 383 q 441 410 441 402 m 214 729 q 201 743 201 728 q 203 760 201 749 q 204 778 204 772 q 202 803 204 786 q 199 828 199 820 q 214 843 199 838 q 342 910 247 856 q 468 999 384 940 q 481 1006 472 1002 q 493 999 486 1004 q 543 953 509 983 q 598 918 562 942 q 609 905 609 911 q 600 890 609 899 q 420 784 540 834 q 220 729 301 733 l 214 729 z "},"":{"ha":696,"x_min":28,"x_max":679,"o":"m 679 368 q 635 290 679 300 q 494 275 627 289 q 256 254 414 267 q 313 187 265 210 q 403 168 353 168 q 524 201 463 168 q 576 233 550 217 q 624 164 590 227 q 657 85 657 102 q 647 69 657 80 q 390 -20 564 -20 q 130 75 229 -20 q 28 330 28 170 q 119 586 28 486 q 367 689 212 689 q 588 594 497 689 q 679 368 679 499 m 441 410 q 412 484 441 452 q 340 515 382 515 q 270 479 298 515 q 244 401 244 446 q 263 383 244 383 q 419 399 313 383 q 441 410 441 402 m 493 739 q 478 726 493 726 l 473 726 q 272 781 385 735 q 94 888 155 830 q 83 903 83 897 q 94 916 83 908 q 152 951 113 927 q 203 998 168 967 q 215 1004 207 1001 q 349 910 271 964 q 479 843 430 863 q 493 829 493 838 q 491 807 493 822 q 489 785 489 792 q 491 762 489 777 q 493 739 493 747 z "},"":{"ha":696,"x_min":28,"x_max":679,"o":"m 679 368 q 635 290 679 300 q 494 275 627 289 q 256 254 414 267 q 313 187 265 210 q 403 168 353 168 q 524 201 463 168 q 576 233 550 217 q 624 164 590 227 q 657 85 657 102 q 647 69 657 80 q 390 -20 564 -20 q 130 75 229 -20 q 28 330 28 170 q 119 586 28 486 q 367 689 212 689 q 588 594 497 689 q 679 368 679 499 m 441 410 q 412 484 441 452 q 340 515 382 515 q 270 479 298 515 q 244 401 244 446 q 263 383 244 383 q 419 399 313 383 q 441 410 441 402 m 484 726 q 346 852 450 726 l 340 848 q 287 777 328 820 q 216 729 241 729 q 155 751 215 729 q 109 772 109 769 q 117 785 109 776 q 203 882 160 833 q 273 991 257 947 q 290 1004 278 1004 l 408 1004 q 424 991 420 1004 q 484 892 438 947 q 593 772 538 834 q 541 748 591 770 q 484 726 490 726 z "},"":{"ha":696,"x_min":28,"x_max":679,"o":"m 679 368 q 635 290 679 300 q 494 275 627 289 q 256 254 414 267 q 313 187 265 210 q 403 168 353 168 q 524 201 463 168 q 576 233 550 217 q 624 164 590 227 q 657 85 657 102 q 647 69 657 80 q 390 -20 564 -20 q 130 75 229 -20 q 28 330 28 170 q 119 586 28 486 q 367 689 212 689 q 588 594 497 689 q 679 368 679 499 m 441 410 q 412 484 441 452 q 340 515 382 515 q 270 479 298 515 q 244 401 244 446 q 263 383 244 383 q 419 399 313 383 q 441 410 441 402 m 642 850 q 647 802 642 834 q 652 755 652 770 q 625 741 652 744 q 572 739 606 738 q 530 741 519 741 q 490 739 517 741 q 449 738 463 738 q 424 764 424 738 q 425 807 424 779 q 427 850 427 836 q 425 898 427 866 q 423 946 423 930 q 443 970 423 970 q 494 967 460 970 q 545 964 528 964 q 586 965 558 964 q 627 966 613 966 q 650 951 650 966 q 646 901 650 935 q 642 850 642 867 m 306 848 q 310 799 306 831 q 314 750 314 766 q 294 737 314 737 q 244 739 277 737 q 193 741 210 741 q 149 739 178 741 q 105 736 120 736 q 87 753 87 736 q 90 796 87 768 q 92 839 92 825 q 89 893 92 857 q 86 948 86 930 q 109 968 86 968 q 196 967 138 968 q 283 966 254 966 q 312 947 312 966 q 309 897 312 930 q 306 848 306 864 z "},"":{"ha":382,"x_min":26,"x_max":435,"o":"m 310 311 q 312 169 310 264 q 314 27 314 75 q 297 0 314 0 q 245 3 280 0 q 193 5 210 5 q 142 3 176 5 q 92 0 109 0 q 72 35 72 0 q 74 173 72 81 q 77 311 77 265 q 56 636 77 416 q 55 650 55 646 q 74 665 55 665 q 133 659 94 665 q 193 653 173 653 q 254 659 214 653 q 314 665 294 665 q 333 650 333 665 q 321 482 333 597 q 310 311 310 367 m 41 726 q 28 741 28 726 q 29 758 28 746 q 31 775 31 769 q 28 800 31 783 q 26 825 26 817 q 40 840 26 835 q 169 907 73 853 q 294 996 210 937 q 308 1003 298 1000 q 319 996 313 1002 q 369 950 335 980 q 425 916 388 939 q 435 902 435 908 q 426 888 435 897 q 247 781 366 831 q 47 726 127 730 l 41 726 z "},"":{"ha":382,"x_min":-36,"x_max":374,"o":"m 310 311 q 312 169 310 264 q 314 27 314 75 q 297 0 314 0 q 245 3 280 0 q 193 5 210 5 q 142 3 176 5 q 92 0 109 0 q 72 35 72 0 q 74 173 72 81 q 77 311 77 265 q 56 636 77 416 q 55 650 55 646 q 74 665 55 665 q 133 659 94 665 q 193 653 173 653 q 254 659 214 653 q 314 665 294 665 q 333 650 333 665 q 321 482 333 597 q 310 311 310 367 m 374 736 q 359 724 374 724 l 353 724 q 153 779 265 732 q -26 885 35 827 q -36 900 -36 894 q -26 913 -36 905 q 33 949 -6 924 q 83 995 49 964 q 96 1002 87 998 q 229 907 151 961 q 360 840 311 861 q 374 827 374 835 q 372 804 374 819 q 370 782 370 789 q 372 759 370 774 q 374 736 374 744 z "},"":{"ha":382,"x_min":-49,"x_max":435,"o":"m 310 311 q 312 169 310 264 q 314 27 314 75 q 297 0 314 0 q 245 3 280 0 q 193 5 210 5 q 142 3 176 5 q 92 0 109 0 q 72 35 72 0 q 74 173 72 81 q 77 311 77 265 q 56 636 77 416 q 55 650 55 646 q 74 665 55 665 q 133 659 94 665 q 193 653 173 653 q 254 659 214 653 q 314 665 294 665 q 333 650 333 665 q 321 482 333 597 q 310 311 310 367 m 326 726 q 188 852 292 726 l 182 848 q 129 777 170 820 q 58 729 83 729 q -3 751 57 729 q -49 772 -49 769 q -41 785 -49 776 q 45 882 2 833 q 115 991 99 947 q 132 1004 120 1004 l 250 1004 q 266 991 262 1004 q 326 892 280 947 q 435 772 380 834 q 382 748 433 770 q 326 726 332 726 z "},"":{"ha":382,"x_min":-88,"x_max":477,"o":"m 310 311 q 312 169 310 264 q 314 27 314 75 q 297 0 314 0 q 245 3 280 0 q 193 5 210 5 q 142 3 176 5 q 92 0 109 0 q 72 35 72 0 q 74 173 72 81 q 77 311 77 265 q 56 636 77 416 q 55 650 55 646 q 74 665 55 665 q 133 659 94 665 q 193 653 173 653 q 254 659 214 653 q 314 665 294 665 q 333 650 333 665 q 321 482 333 597 q 310 311 310 367 m 467 837 q 472 789 467 821 q 477 741 477 757 q 450 727 477 730 q 397 725 431 724 q 356 727 345 727 q 315 726 342 727 q 275 724 288 724 q 250 750 250 724 q 251 793 250 765 q 252 837 252 822 q 251 885 252 852 q 249 932 249 917 q 269 956 249 956 q 319 954 286 956 q 370 951 353 951 q 411 952 384 951 q 452 953 439 953 q 475 938 475 953 q 471 887 475 921 q 467 837 467 854 m 132 834 q 136 785 132 817 q 140 736 140 753 q 120 724 140 724 q 70 725 103 724 q 19 727 36 727 q -25 725 4 727 q -69 723 -54 723 q -87 740 -87 723 q -85 783 -87 754 q -83 825 -83 811 q -85 880 -83 844 q -88 935 -88 916 q -66 954 -88 954 q 22 953 -37 954 q 109 952 80 952 q 138 933 138 952 q 135 884 138 917 q 132 834 132 850 z "},"":{"ha":787,"x_min":40,"x_max":732,"o":"m 732 20 q 713 -1 732 1 q 614 -4 694 -4 q 508 0 528 -4 q 488 28 488 4 q 490 124 488 60 q 492 221 492 189 q 490 296 492 246 q 489 371 489 346 q 408 464 489 464 q 347 441 382 464 q 309 390 309 415 l 309 24 q 288 -1 309 1 q 191 -4 264 -4 q 87 0 111 -4 q 66 22 66 3 q 67 182 66 75 q 68 342 68 288 q 41 607 68 511 q 40 617 40 613 q 50 632 40 628 q 164 647 93 637 q 286 668 272 668 q 297 622 293 668 q 309 576 301 576 q 381 624 301 576 q 522 671 462 671 q 666 630 608 671 q 730 500 730 583 l 730 283 q 731 152 730 239 q 732 20 732 64 m 654 827 q 475 730 569 730 q 408 759 448 730 q 342 787 368 787 q 292 764 318 787 q 258 741 267 741 q 200 785 239 747 q 160 840 161 823 q 230 905 168 868 q 325 943 292 943 q 399 918 353 943 q 473 892 446 892 q 529 916 497 892 q 571 940 561 940 q 618 892 581 940 q 656 832 656 844 q 654 827 656 832 z "},"":{"ha":734,"x_min":25,"x_max":710,"o":"m 710 334 q 615 83 710 179 q 367 -14 521 -14 q 121 81 218 -14 q 25 326 25 176 q 117 581 25 483 q 367 679 210 679 q 615 583 520 679 q 710 334 710 487 m 488 334 q 454 428 488 387 q 368 469 421 469 q 280 427 315 469 q 248 334 248 388 q 280 239 248 279 q 368 197 315 197 q 456 239 421 197 q 488 334 488 279 m 226 726 q 213 741 213 726 q 214 758 213 746 q 216 775 216 769 q 213 800 216 783 q 211 825 211 817 q 225 840 211 835 q 354 907 258 853 q 479 996 395 937 q 493 1003 484 1000 q 505 996 498 1002 q 554 950 520 980 q 610 916 573 939 q 621 902 621 908 q 611 888 621 897 q 432 781 551 831 q 232 726 313 730 l 226 726 z "},"":{"ha":734,"x_min":25,"x_max":710,"o":"m 710 334 q 615 83 710 179 q 367 -14 521 -14 q 121 81 218 -14 q 25 326 25 176 q 117 581 25 483 q 367 679 210 679 q 615 583 520 679 q 710 334 710 487 m 488 334 q 454 428 488 387 q 368 469 421 469 q 280 427 315 469 q 248 334 248 388 q 280 239 248 279 q 368 197 315 197 q 456 239 421 197 q 488 334 488 279 m 524 736 q 509 724 524 724 l 503 724 q 302 779 415 732 q 124 885 185 827 q 114 900 114 894 q 124 913 114 905 q 182 949 144 924 q 233 995 199 964 q 245 1002 237 998 q 379 907 301 961 q 510 840 460 861 q 524 827 524 835 q 522 804 524 819 q 519 782 519 789 q 522 759 519 774 q 524 736 524 744 z "},"":{"ha":734,"x_min":25,"x_max":710,"o":"m 710 334 q 615 83 710 179 q 367 -14 521 -14 q 121 81 218 -14 q 25 326 25 176 q 117 581 25 483 q 367 679 210 679 q 615 583 520 679 q 710 334 710 487 m 488 334 q 454 428 488 387 q 368 469 421 469 q 280 427 315 469 q 248 334 248 388 q 280 239 248 279 q 368 197 315 197 q 456 239 421 197 q 488 334 488 279 m 495 724 q 357 850 460 724 l 351 846 q 298 774 339 817 q 227 726 252 726 q 166 749 226 726 q 120 770 120 766 q 127 782 120 773 q 214 880 171 831 q 284 989 268 944 q 301 1002 289 1002 l 419 1002 q 435 989 431 1002 q 494 889 449 944 q 604 770 549 831 q 551 746 602 768 q 495 724 500 724 z "},"":{"ha":734,"x_min":25,"x_max":710,"o":"m 710 334 q 615 83 710 179 q 367 -14 521 -14 q 121 81 218 -14 q 25 326 25 176 q 117 581 25 483 q 367 679 210 679 q 615 583 520 679 q 710 334 710 487 m 488 334 q 454 428 488 387 q 368 469 421 469 q 280 427 315 469 q 248 334 248 388 q 280 239 248 279 q 368 197 315 197 q 456 239 421 197 q 488 334 488 279 m 635 845 q 640 797 635 829 q 645 749 645 765 q 618 735 645 739 q 565 733 599 732 q 524 735 513 735 q 483 734 510 735 q 442 732 456 732 q 417 758 417 732 q 418 802 417 773 q 420 845 420 830 q 418 893 420 861 q 416 941 416 925 q 436 964 416 964 q 487 962 453 964 q 538 959 521 959 q 579 960 551 959 q 620 961 606 961 q 643 946 643 961 q 639 896 643 929 q 635 845 635 862 m 299 842 q 303 793 299 825 q 307 745 307 761 q 288 732 307 732 q 237 733 271 732 q 186 735 203 735 q 142 733 172 735 q 98 731 113 731 q 81 748 81 731 q 83 791 81 762 q 85 833 85 819 q 82 888 85 852 q 79 943 79 924 q 102 962 79 962 q 189 961 131 962 q 276 960 248 960 q 305 941 305 960 q 302 892 305 925 q 299 842 299 859 z "},"":{"ha":734,"x_min":25,"x_max":710,"o":"m 710 334 q 615 83 710 179 q 367 -14 521 -14 q 121 81 218 -14 q 25 326 25 176 q 117 581 25 483 q 367 679 210 679 q 615 583 520 679 q 710 334 710 487 m 488 334 q 454 428 488 387 q 368 469 421 469 q 280 427 315 469 q 248 334 248 388 q 280 239 248 279 q 368 197 315 197 q 456 239 421 197 q 488 334 488 279 m 616 827 q 436 730 530 730 q 369 759 410 730 q 303 787 329 787 q 254 764 279 787 q 220 741 228 741 q 161 785 201 747 q 121 840 122 823 q 191 905 129 868 q 286 943 254 943 q 361 918 315 943 q 435 892 407 892 q 490 916 458 892 q 532 940 522 940 q 580 892 543 940 q 617 832 617 844 q 616 827 617 832 z "},"":{"ha":810,"x_min":56,"x_max":755,"o":"m 755 616 q 751 466 755 566 q 746 315 746 366 q 749 169 746 267 q 753 23 753 71 q 736 0 753 5 q 627 -7 710 -7 q 524 -3 553 -7 q 507 14 511 -1 q 503 54 505 34 q 494 85 500 85 q 425 39 503 85 q 283 -7 347 -7 q 71 155 104 -7 q 56 374 56 231 q 81 618 56 528 q 109 646 88 646 q 203 645 140 646 q 298 644 267 644 q 319 627 319 644 q 318 612 319 622 q 304 425 304 520 q 311 264 304 307 q 400 189 323 189 q 465 216 430 189 q 501 271 500 242 q 503 611 503 296 q 506 637 503 633 q 530 644 510 644 q 630 644 564 644 q 730 643 697 643 q 754 633 751 643 q 755 616 755 627 m 279 724 q 266 738 266 723 q 267 755 266 743 q 269 772 269 766 q 266 798 269 781 q 264 823 264 814 q 278 838 264 832 q 407 905 311 850 q 532 994 448 935 q 546 1000 536 997 q 557 994 551 999 q 607 947 573 977 q 663 913 626 937 q 673 899 673 905 q 664 885 673 894 q 485 778 604 829 q 285 724 366 728 l 279 724 z "},"":{"ha":810,"x_min":56,"x_max":755,"o":"m 755 616 q 751 466 755 566 q 746 315 746 366 q 749 169 746 267 q 753 23 753 71 q 736 0 753 5 q 627 -7 710 -7 q 524 -3 553 -7 q 507 14 511 -1 q 503 54 505 34 q 494 85 500 85 q 425 39 503 85 q 283 -7 347 -7 q 71 155 104 -7 q 56 374 56 231 q 81 618 56 528 q 109 646 88 646 q 203 645 140 646 q 298 644 267 644 q 319 627 319 644 q 318 612 319 622 q 304 425 304 520 q 311 264 304 307 q 400 189 323 189 q 465 216 430 189 q 501 271 500 242 q 503 611 503 296 q 506 637 503 633 q 530 644 510 644 q 630 644 564 644 q 730 643 697 643 q 754 633 751 643 q 755 616 755 627 m 581 734 q 566 721 581 721 l 560 721 q 359 776 472 730 q 181 882 242 825 q 171 897 171 891 q 181 910 171 903 q 239 946 201 922 q 290 992 256 962 q 302 999 294 996 q 436 905 358 958 q 567 838 517 858 q 581 824 581 832 q 578 802 581 817 q 576 779 576 787 q 578 756 576 772 q 581 734 581 741 z "},"":{"ha":810,"x_min":56,"x_max":755,"o":"m 755 616 q 751 466 755 566 q 746 315 746 366 q 749 169 746 267 q 753 23 753 71 q 736 0 753 5 q 627 -7 710 -7 q 524 -3 553 -7 q 507 14 511 -1 q 503 54 505 34 q 494 85 500 85 q 425 39 503 85 q 283 -7 347 -7 q 71 155 104 -7 q 56 374 56 231 q 81 618 56 528 q 109 646 88 646 q 203 645 140 646 q 298 644 267 644 q 319 627 319 644 q 318 612 319 622 q 304 425 304 520 q 311 264 304 307 q 400 189 323 189 q 465 216 430 189 q 501 271 500 242 q 503 611 503 296 q 506 637 503 633 q 530 644 510 644 q 630 644 564 644 q 730 643 697 643 q 754 633 751 643 q 755 616 755 627 m 551 724 q 412 850 516 724 l 407 846 q 353 774 395 817 q 282 726 307 726 q 222 749 281 726 q 176 770 176 766 q 183 782 176 773 q 270 880 227 831 q 340 989 323 944 q 357 1002 345 1002 l 475 1002 q 490 989 486 1002 q 550 889 505 944 q 659 770 604 831 q 607 746 658 768 q 551 724 556 724 z "},"":{"ha":810,"x_min":56,"x_max":755,"o":"m 755 616 q 751 466 755 566 q 746 315 746 366 q 749 169 746 267 q 753 23 753 71 q 736 0 753 5 q 627 -7 710 -7 q 524 -3 553 -7 q 507 14 511 -1 q 503 54 505 34 q 494 85 500 85 q 425 39 503 85 q 283 -7 347 -7 q 71 155 104 -7 q 56 374 56 231 q 81 618 56 528 q 109 646 88 646 q 203 645 140 646 q 298 644 267 644 q 319 627 319 644 q 318 612 319 622 q 304 425 304 520 q 311 264 304 307 q 400 189 323 189 q 465 216 430 189 q 501 271 500 242 q 503 611 503 296 q 506 637 503 633 q 530 644 510 644 q 630 644 564 644 q 730 643 697 643 q 754 633 751 643 q 755 616 755 627 m 699 828 q 704 780 699 812 q 709 732 709 748 q 682 718 709 722 q 629 716 663 715 q 587 718 576 718 q 547 717 574 718 q 506 715 519 715 q 481 741 481 715 q 482 785 481 756 q 484 828 484 813 q 482 876 484 844 q 480 924 480 908 q 500 947 480 947 q 551 945 517 947 q 602 942 585 942 q 643 943 615 942 q 684 944 670 944 q 707 929 707 944 q 703 879 707 912 q 699 828 699 845 m 363 825 q 367 776 363 808 q 371 728 371 744 q 351 715 371 715 q 301 716 334 715 q 250 718 267 718 q 206 716 235 718 q 162 714 177 714 q 144 731 144 714 q 146 774 144 745 q 149 817 149 802 q 146 871 149 835 q 143 926 143 907 q 165 945 143 945 q 253 944 195 945 q 340 943 311 943 q 369 924 369 943 q 366 875 369 908 q 363 825 363 842 z "},"":{"ha":717,"x_min":40,"x_max":676,"o":"m 676 665 q 674 617 676 649 q 672 568 672 585 q 673 527 672 554 q 675 486 675 500 q 654 463 675 463 q 475 471 655 463 l 475 382 q 476 146 475 303 q 478 -89 478 -11 q 478 -131 478 -128 q 460 -149 475 -145 q 357 -158 417 -158 q 256 -149 292 -158 q 236 -135 239 -144 q 236 -109 236 -134 q 239 137 236 -27 q 241 382 241 300 q 240 469 241 439 q 152 465 224 469 q 64 463 98 463 q 41 486 41 463 q 43 527 41 500 q 45 568 45 554 q 42 617 45 585 q 40 665 40 649 q 57 685 40 685 q 146 683 90 685 q 235 681 212 681 q 232 812 235 707 q 231 945 231 894 q 231 966 231 965 q 249 977 234 977 q 304 975 267 977 q 359 972 341 972 q 414 975 378 972 q 469 977 451 977 q 485 956 485 977 q 481 681 485 844 q 570 683 503 681 q 659 685 625 685 q 676 665 676 685 z "},"":{"ha":578,"x_min":41,"x_max":532,"o":"m 532 711 q 462 531 532 606 q 286 454 390 454 q 111 532 183 454 q 41 711 41 607 q 111 892 41 816 q 286 971 182 971 q 463 892 391 971 q 532 711 532 817 m 396 711 q 368 798 396 764 q 286 836 337 836 q 206 798 237 836 q 178 711 178 762 q 208 628 178 663 q 286 590 239 590 q 366 625 336 590 q 396 711 396 661 z "},"":{"ha":567,"x_min":17,"x_max":555,"o":"m 504 539 q 466 550 500 539 q 419 561 432 560 q 372 271 404 465 q 397 269 381 269 q 471 287 429 269 q 511 304 514 304 q 524 290 517 304 q 537 208 524 289 q 549 123 549 127 q 457 78 549 95 q 339 65 389 65 q 324 1 328 1 q 245 7 254 1 q 242 16 242 9 q 253 81 242 28 q 78 208 142 115 q 17 415 17 297 q 116 667 17 568 q 368 766 215 766 q 385 838 372 802 q 428 827 386 838 q 460 812 460 818 q 452 757 460 821 q 555 705 555 730 q 537 632 555 703 q 517 554 519 562 q 504 539 511 539 m 332 554 q 241 416 241 525 q 290 304 241 344 q 332 554 304 387 z "},"":{"ha":676,"x_min":50,"x_max":696,"o":"m 343 -1 q 172 -8 250 -1 q 99 -16 85 -16 q 86 -4 90 -16 q 70 77 79 16 q 60 159 60 138 q 77 174 60 172 q 222 281 222 190 q 220 301 222 292 q 111 298 192 298 q 62 298 63 298 q 50 344 50 304 q 57 467 50 446 q 77 482 62 482 q 100 481 84 482 q 123 481 116 481 q 77 616 77 562 q 176 787 77 726 q 375 839 259 839 q 615 770 519 839 q 625 749 625 762 q 611 693 625 752 q 600 614 607 676 q 591 590 600 604 q 586 589 590 589 q 514 628 592 589 q 379 667 437 667 q 298 587 298 667 q 350 481 298 545 q 536 479 380 479 q 561 390 561 479 q 530 298 561 298 q 435 301 479 298 q 439 265 439 281 q 387 179 439 210 q 532 180 435 179 q 677 182 629 182 q 696 174 696 182 q 675 14 696 131 q 656 0 673 0 q 499 -1 604 0 q 343 -1 395 -1 z "},"":{"ha":667,"x_min":40,"x_max":624,"o":"m 624 463 q 609 375 624 406 q 549 310 593 342 q 536 293 536 300 q 555 269 536 286 q 591 222 579 247 q 611 123 611 183 q 515 -56 611 7 q 310 -110 433 -110 q 173 -92 239 -110 q 56 -25 90 -68 q 43 -1 43 -10 q 119 132 43 -2 q 130 140 124 140 q 186 100 126 140 q 294 60 245 60 q 370 114 370 60 q 284 181 370 150 q 125 247 155 229 q 40 386 40 300 q 63 481 40 439 q 105 535 78 509 q 127 560 127 557 q 106 587 127 567 q 68 637 81 611 q 47 737 47 678 q 138 915 47 854 q 339 966 216 966 q 460 948 399 966 q 566 888 530 926 q 574 871 574 879 q 541 808 574 869 q 503 735 507 743 q 495 728 500 728 q 437 764 494 728 q 338 800 380 800 q 271 753 271 800 q 362 668 271 709 q 532 591 447 629 q 624 463 624 537 m 406 412 q 357 472 406 441 q 282 500 313 500 q 254 487 265 500 q 243 456 243 473 q 290 399 243 429 q 363 372 332 372 q 392 385 378 372 q 406 412 406 397 z "},"":{"ha":811,"x_min":60,"x_max":747,"o":"m 747 401 q 641 158 747 269 q 403 47 535 47 q 155 149 251 47 q 60 401 60 249 q 165 646 60 535 q 403 757 270 757 q 652 656 556 757 q 747 401 747 555 z "},"":{"ha":817,"x_min":45,"x_max":751,"o":"m 751 893 q 751 700 751 829 q 750 507 750 571 q 449 -5 750 117 q 227 -50 340 -50 q 189 -31 197 -50 q 173 22 173 8 q 189 36 173 34 q 300 46 245 41 q 410 74 363 54 q 604 283 551 136 q 642 576 642 388 q 639 730 642 687 q 570 764 623 759 q 555 441 570 536 q 382 147 524 224 q 195 101 298 101 q 132 204 132 101 q 146 231 132 231 q 163 227 152 231 q 267 211 204 211 q 400 271 354 211 q 446 369 446 330 q 435 387 446 387 q 383 365 440 387 q 289 343 326 343 q 107 417 173 343 q 45 607 45 488 q 142 872 45 774 q 406 970 239 970 q 595 951 476 970 q 751 893 751 926 m 468 593 q 467 681 468 623 q 465 770 465 740 q 429 781 465 781 q 321 734 360 781 q 283 619 283 690 q 311 524 283 560 q 399 484 342 484 q 461 496 428 484 q 468 593 468 530 z "},"":{"ha":755,"x_min":50,"x_max":724,"o":"m 724 328 q 583 54 724 157 q 379 -62 425 -62 q 358 -40 370 -62 q 288 81 338 -1 q 290 42 288 68 q 292 4 292 17 q 222 -14 292 -14 q 78 0 136 -14 q 50 22 50 7 q 54 223 50 89 q 58 424 58 357 q 56 510 58 452 q 53 597 53 568 q 124 848 53 749 q 351 960 205 960 q 519 909 448 960 q 599 760 599 852 q 582 670 599 715 q 533 595 564 619 q 724 328 724 516 m 411 703 q 351 787 411 787 q 296 743 317 787 q 278 668 278 707 q 279 613 278 650 q 279 558 279 576 q 411 703 411 604 m 475 301 q 420 406 475 370 q 302 434 373 435 l 286 433 q 283 361 283 409 q 285 237 283 319 q 286 114 286 152 q 414 178 359 130 q 475 301 475 232 z "},"":{"ha":928,"x_min":57,"x_max":868,"o":"m 868 528 q 753 229 868 355 q 463 102 634 102 q 173 230 292 102 q 57 528 57 355 q 172 827 57 702 q 463 957 290 957 q 753 828 635 957 q 868 528 868 703 m 785 526 q 696 771 785 671 q 463 876 605 876 q 288 822 361 876 q 282 813 282 818 q 289 807 284 807 q 331 809 303 807 q 374 811 359 811 q 589 793 528 811 q 708 640 708 758 q 690 550 708 583 q 624 486 671 517 q 614 474 614 480 q 701 294 614 473 q 785 526 785 391 m 543 616 q 512 686 543 669 q 436 699 491 699 q 393 689 399 699 q 392 649 393 675 q 390 608 390 622 q 391 579 390 598 q 392 550 392 558 q 456 545 429 545 q 543 616 543 545 m 661 268 q 553 268 661 268 q 538 278 542 268 q 472 436 516 330 q 456 454 466 451 q 429 454 452 454 q 404 453 406 454 q 395 433 395 450 q 399 350 395 406 q 404 267 404 295 q 397 263 404 263 q 355 266 384 263 q 313 268 327 268 q 257 265 285 268 q 463 186 345 186 q 654 249 577 186 q 665 264 664 256 l 661 268 m 243 536 q 233 774 243 705 q 142 526 142 677 q 212 313 142 398 q 224 306 218 306 q 235 317 233 306 q 243 536 243 378 z "},"":{"ha":928,"x_min":57,"x_max":869,"o":"m 869 528 q 754 230 869 355 q 464 102 635 102 q 174 230 292 102 q 57 528 57 355 q 172 828 57 703 q 464 957 291 957 q 755 827 636 957 q 869 528 869 702 m 785 530 q 694 770 785 669 q 464 876 600 876 q 232 772 326 876 q 142 530 142 670 q 232 290 142 391 q 464 186 326 186 q 694 291 601 186 q 785 530 785 392 m 644 751 q 625 687 644 741 q 601 633 606 633 q 596 635 599 633 q 505 652 557 652 q 429 618 460 652 q 397 538 397 584 q 427 454 397 486 q 507 421 456 421 q 564 430 530 421 q 599 438 598 438 q 605 434 603 438 q 624 371 608 429 q 640 307 640 312 q 572 275 640 290 q 489 264 517 264 q 300 342 378 264 q 222 532 222 421 q 296 725 222 649 q 488 802 370 802 q 576 790 525 802 q 644 751 644 775 z "},"":{"ha":865,"x_min":7,"x_max":815,"o":"m 815 541 q 812 532 815 532 l 697 532 q 688 543 688 532 q 690 637 688 574 q 692 732 692 701 q 688 741 692 741 q 685 739 686 741 q 610 532 650 640 q 591 524 604 524 q 570 532 576 524 q 532 637 563 540 q 497 739 501 735 q 494 741 496 740 q 492 732 492 741 q 494 637 492 701 q 496 543 496 574 q 486 532 496 532 q 458 533 477 532 q 429 534 439 534 q 400 533 420 534 q 372 532 381 532 q 368 541 368 532 q 371 640 368 573 q 374 739 374 706 q 371 842 374 773 q 368 946 368 911 q 378 957 368 957 q 430 960 395 957 q 481 962 464 962 q 541 855 492 962 q 593 747 589 748 q 688 950 624 815 q 700 960 692 960 l 804 960 q 814 955 814 960 q 812 847 814 919 q 810 739 810 775 q 812 640 810 706 q 815 541 815 573 m 342 860 q 336 855 342 855 q 237 860 343 855 q 236 764 236 833 q 239 652 236 726 q 241 541 241 578 q 236 532 241 532 q 204 533 225 532 q 174 534 184 534 q 145 533 164 534 q 117 532 126 532 q 107 541 107 532 q 111 652 107 578 q 114 764 114 726 q 113 811 114 780 q 113 859 113 843 q 11 852 35 852 q 7 855 7 853 q 22 957 7 900 q 33 961 23 961 q 107 958 58 961 q 182 954 157 954 q 257 956 207 954 q 332 958 307 958 q 340 956 340 958 q 339 932 340 947 q 338 908 338 916 q 340 884 338 900 q 342 860 342 868 z "},"":{"ha":514,"x_min":72,"x_max":481,"o":"m 87 734 q 74 749 74 734 q 75 766 74 754 q 77 783 77 777 q 74 808 77 791 q 72 833 72 825 q 86 848 72 843 q 215 916 119 861 q 340 1004 256 945 q 354 1011 345 1008 q 366 1004 359 1010 q 415 958 381 988 q 471 924 434 947 q 481 910 481 916 q 472 896 481 905 q 293 789 412 840 q 93 734 174 739 l 87 734 z "},"":{"ha":514,"x_min":-25,"x_max":541,"o":"m 530 886 q 535 838 530 870 q 541 791 541 806 q 513 777 541 780 q 460 774 494 774 q 419 777 408 777 q 378 775 406 777 q 338 774 351 774 q 313 800 313 774 q 314 843 313 814 q 315 886 315 871 q 314 934 315 902 q 312 982 312 966 q 332 1006 312 1006 q 382 1003 349 1006 q 433 1000 416 1000 q 474 1001 447 1000 q 515 1002 502 1002 q 538 987 538 1002 q 534 937 538 970 q 530 886 530 903 m 195 884 q 199 834 195 867 q 203 786 203 802 q 183 773 203 773 q 133 775 166 773 q 82 777 99 777 q 38 774 67 777 q -6 772 9 772 q -24 789 -24 772 q -22 832 -24 804 q -20 875 -20 861 q -22 929 -20 893 q -25 984 -25 966 q -3 1004 -25 1004 q 85 1003 26 1004 q 172 1002 143 1002 q 201 983 201 1002 q 198 933 201 966 q 195 884 195 900 z "},"":{"ha":612,"x_min":69,"x_max":543,"o":"m 543 265 l 308 265 l 254 47 l 174 66 l 223 265 l 69 265 l 69 346 l 243 346 l 285 513 l 69 513 l 69 595 l 305 595 l 359 812 l 438 792 l 389 595 l 543 595 l 543 513 l 369 513 l 328 346 l 543 346 l 543 265 z "},"":{"ha":1202,"x_min":-7,"x_max":1175,"o":"m 1175 211 q 1164 104 1175 182 q 1141 3 1151 18 q 1119 -10 1133 -10 q 1099 -8 1113 -10 q 865 -1 1050 -1 q 714 -1 814 -1 q 562 0 613 0 q 549 2 553 0 q 542 20 542 5 q 543 94 542 48 q 546 168 545 153 q 469 174 496 174 q 289 168 340 174 q 273 164 276 167 q 264 151 269 162 q 212 16 238 96 q 207 4 210 5 q 195 0 205 2 q 106 -4 169 -4 q 14 0 43 -4 q -7 18 -7 3 q -4 67 -7 35 q -1 117 -1 100 q 4 147 -1 133 q 75 298 5 149 q 309 821 148 454 q 358 935 328 859 q 383 961 367 961 q 492 956 421 961 q 600 950 566 951 q 726 947 623 949 q 852 946 804 946 q 974 949 893 946 q 1096 951 1055 951 q 1136 925 1131 951 q 1147 830 1140 907 q 1154 734 1154 753 q 1140 720 1154 720 q 1063 726 1114 720 q 985 732 1009 732 q 921 734 967 732 q 857 736 881 736 q 813 719 821 736 q 810 667 810 711 q 823 606 810 621 q 867 593 835 593 q 894 594 875 593 q 926 595 913 595 q 1051 599 998 595 q 1085 603 1059 599 q 1118 606 1106 606 q 1135 590 1135 606 q 1122 486 1135 604 q 1117 378 1117 432 q 1097 364 1117 364 q 1036 371 1097 364 q 900 375 998 375 q 867 376 886 375 q 843 378 848 378 q 817 367 823 378 q 810 319 810 355 q 817 253 810 268 q 903 222 829 227 q 1003 222 902 222 q 1082 229 1029 222 q 1160 235 1135 235 q 1175 211 1175 235 m 557 749 q 541 786 557 786 q 517 757 529 786 q 444 567 498 713 q 382 394 382 405 q 415 376 382 376 q 475 375 435 376 q 535 374 515 374 q 554 375 548 374 q 557 512 557 458 l 557 749 z "},"":{"ha":1043,"x_min":37,"x_max":1004,"o":"m 1004 475 q 869 120 1004 263 q 521 -25 732 -25 q 173 121 311 -25 q 37 475 37 264 q 173 829 37 686 q 521 977 311 977 q 868 829 729 977 q 1004 475 1004 684 m 747 476 q 686 649 747 578 q 521 724 621 724 q 359 646 425 724 q 294 475 294 572 q 355 302 294 371 q 521 229 418 229 q 684 306 616 229 q 747 476 747 379 m 953 856 q 936 829 953 848 q 811 703 895 787 l 262 142 q 118 -7 214 92 q 102 -14 111 -14 q 93 -11 102 -14 q 46 68 46 41 q 61 92 46 77 q 638 680 76 106 q 880 928 718 764 q 897 938 886 932 q 929 900 905 936 q 953 856 953 863 z "},"":{"ha":861,"x_min":24,"x_max":838,"o":"m 838 171 q 762 94 838 94 l 591 94 q 498 171 548 94 l 431 273 l 364 170 q 321 113 336 125 q 273 94 302 95 l 101 94 q 24 171 24 94 l 24 515 q 101 592 24 592 l 273 592 q 366 515 317 591 l 432 413 l 498 515 q 591 592 548 592 l 762 592 q 838 515 838 592 l 838 171 m 747 174 l 747 513 l 586 513 l 477 344 l 587 174 l 747 174 m 386 342 l 274 513 l 115 513 l 115 174 l 277 174 l 386 342 z "},"":{"ha":568,"x_min":46,"x_max":524,"o":"m 521 441 l 325 441 l 325 269 l 244 269 l 244 441 l 47 441 l 47 518 l 244 518 l 244 697 l 325 697 l 325 518 l 521 518 l 521 441 m 524 129 l 46 129 l 46 212 l 524 212 l 524 129 z "},"":{"ha":473,"x_min":52,"x_max":396,"o":"m 396 205 l 392 205 l 52 439 l 52 488 l 396 725 l 396 631 l 144 465 l 396 299 l 396 205 m 396 98 l 52 98 l 52 179 l 396 179 l 396 98 z "},"":{"ha":473,"x_min":65,"x_max":410,"o":"m 410 439 l 65 205 l 65 299 l 316 465 l 65 631 l 65 725 l 69 725 l 410 488 l 410 439 m 409 98 l 65 98 l 65 179 l 409 179 l 409 98 z "},"":{"ha":983,"x_min":15,"x_max":965,"o":"m 965 646 q 964 617 965 636 q 962 589 962 598 l 962 541 q 859 533 962 530 q 753 370 822 479 q 834 372 780 370 q 917 375 889 375 q 929 366 929 375 q 930 309 929 347 q 932 253 932 271 q 917 243 932 243 l 667 243 q 638 206 652 224 q 624 164 624 184 q 628 88 624 138 q 632 12 632 37 q 490 -4 632 -4 q 370 0 399 -4 q 350 20 350 3 q 356 94 350 44 q 363 170 363 144 q 326 243 363 200 l 66 243 q 47 307 47 243 q 47 347 47 355 q 62 375 49 375 q 148 373 91 375 q 233 371 205 371 q 131 533 169 470 q 83 532 115 533 q 36 530 52 530 q 18 568 18 530 q 16 607 18 586 q 15 633 15 629 q 28 655 15 652 q 92 656 33 656 q 87 736 91 673 q 83 817 83 786 q 97 839 83 839 q 219 836 138 839 q 342 832 301 832 q 357 822 357 832 q 355 737 357 791 q 351 652 352 675 l 640 652 q 631 815 631 827 q 636 831 631 829 q 653 832 637 832 q 770 836 692 832 q 886 839 848 839 q 900 810 900 839 q 901 733 900 785 q 903 656 903 682 l 959 656 q 965 646 965 656 m 587 538 l 414 538 q 507 411 443 494 q 587 538 536 447 z "},"":{"ha":532,"x_min":74,"x_max":458,"o":"m 458 0 l 370 0 l 370 19 q 245 -1 323 -1 q 163 26 181 -1 l 163 -250 l 74 -250 l 74 660 l 163 660 l 163 172 q 256 77 163 77 q 369 88 321 77 l 369 660 l 458 660 l 458 0 z "},"":{"ha":589,"x_min":84,"x_max":505,"o":"m 505 583 l 505 75 q 484 21 505 42 q 430 0 463 0 l 159 0 q 105 21 126 0 q 84 75 84 42 l 84 510 q 105 564 84 543 q 159 585 126 585 l 401 585 l 180 1061 l 282 1061 l 505 583 m 410 83 l 410 503 l 178 503 l 178 83 l 410 83 z "},"":{"ha":496,"x_min":58,"x_max":440,"o":"m 440 0 l 58 0 l 58 73 l 317 540 l 58 977 l 58 1061 l 436 1061 l 436 978 l 151 978 l 393 580 l 393 499 l 152 83 l 440 83 l 440 0 z "},"":{"ha":545,"x_min":26,"x_max":518,"o":"m 518 978 l 418 978 l 418 0 l 326 0 l 326 978 l 216 978 l 216 0 l 124 0 l 124 978 l 26 978 l 26 1061 l 518 1061 l 518 978 z "},"":{"ha":545,"x_min":26,"x_max":518,"o":"m 518 522 l 418 522 l 418 0 l 326 0 l 326 522 l 216 522 l 216 0 l 124 0 l 124 522 l 26 522 l 26 606 l 518 606 l 518 522 z "},"":{"ha":330,"x_min":-22,"x_max":323,"o":"m 323 982 l 196 982 l 196 -196 q 178 -247 196 -226 q 123 -271 158 -271 l -22 -272 l -22 -193 l 106 -193 l 107 985 q 183 1061 107 1061 l 323 1061 l 323 982 z "},"":{"ha":689,"x_min":17,"x_max":656,"o":"m 631 694 q 639 509 631 623 q 646 424 646 412 q 627 403 646 405 q 545 401 612 401 q 500 399 530 401 q 457 397 471 397 q 435 428 437 397 q 425 459 434 459 q 376 424 431 459 q 269 389 321 389 q 84 479 156 389 q 17 679 17 563 q 87 891 17 812 q 292 974 161 974 q 419 927 356 974 q 445 907 446 907 q 455 939 450 907 q 473 971 460 971 q 647 939 525 971 q 656 930 656 937 q 654 917 656 927 q 631 694 631 774 m 627 169 q 479 173 578 169 q 330 176 380 176 q 198 173 286 176 q 66 170 111 170 q 54 186 54 170 q 60 321 54 298 q 72 330 62 330 q 212 328 119 330 q 353 325 306 325 q 492 327 399 325 q 632 329 585 329 q 642 318 642 329 q 636 250 642 310 q 635 176 638 223 q 627 169 633 169 m 424 689 q 400 764 424 732 q 334 799 374 799 q 262 764 290 799 q 236 688 236 732 q 261 608 236 640 q 335 575 288 575 q 401 612 376 575 q 424 689 424 646 z "},"":{"ha":636,"x_min":26,"x_max":607,"o":"m 607 673 q 520 465 607 556 q 317 374 434 374 q 107 459 189 374 q 26 673 26 545 q 113 883 26 791 q 317 975 200 975 q 525 886 441 975 q 607 673 607 799 m 570 169 l 562 170 q 301 176 427 176 q 183 173 262 176 q 65 170 104 170 q 53 186 53 170 q 58 321 53 299 q 71 330 61 330 q 197 328 113 330 q 323 325 281 325 q 449 327 366 325 q 575 329 533 329 q 585 318 585 329 q 579 250 585 310 q 578 176 581 223 q 570 169 576 169 m 411 675 q 318 794 411 794 q 244 757 271 794 q 221 675 221 724 q 318 559 221 559 q 389 595 363 559 q 411 675 411 627 z "},"":{"ha":716,"x_min":40,"x_max":678,"o":"m 678 -1 l 415 -1 l 415 332 l 540 332 l 540 978 l 180 977 l 179 332 l 304 332 l 304 -1 l 40 -1 l 40 87 l 224 87 l 224 248 l 160 248 q 106 269 127 248 q 85 323 85 290 l 85 986 q 106 1040 85 1019 q 160 1061 127 1061 l 557 1061 q 612 1040 590 1061 q 634 986 634 1019 l 634 323 q 613 269 634 290 q 559 248 592 248 l 494 248 l 494 87 l 678 87 l 678 -1 z "},"":{"ha":1178,"x_min":29,"x_max":1161,"o":"m 1161 368 q 1117 290 1161 297 q 938 273 1098 288 q 726 254 867 265 q 790 187 736 211 q 885 168 834 168 q 1006 201 945 168 q 1058 233 1032 217 q 1105 164 1072 227 q 1139 85 1139 102 q 1129 69 1139 80 q 872 -16 1053 -16 q 770 6 836 -16 q 703 28 705 28 q 693 9 693 28 q 665 -5 693 -3 q 585 -4 682 -4 q 546 -5 572 -4 q 507 -6 520 -6 q 493 22 495 -6 q 485 51 490 50 q 469 40 479 48 q 330 -11 404 -11 q 111 90 196 -11 q 29 322 29 184 q 114 574 29 479 q 355 673 202 673 q 501 619 443 673 q 506 617 504 617 q 519 650 514 617 q 539 682 524 682 q 583 679 553 682 q 627 676 612 676 q 666 679 640 676 q 704 681 692 681 q 722 664 715 681 q 731 648 728 648 q 734 648 732 648 q 848 682 793 682 q 1070 591 979 682 q 1161 368 1161 499 m 924 410 q 894 484 924 452 q 823 515 864 515 q 748 480 780 515 q 715 401 715 445 q 734 383 715 383 q 901 399 795 383 q 924 410 924 402 m 521 335 q 485 430 521 393 q 390 468 448 468 q 296 431 332 468 q 260 335 260 393 q 298 241 260 280 q 390 201 336 201 q 484 239 448 201 q 521 335 521 277 z "},"":{"ha":734,"x_min":25,"x_max":710,"o":"m 710 334 q 615 83 710 179 q 367 -14 521 -14 q 121 81 218 -14 q 25 326 25 176 q 117 581 25 483 q 367 679 210 679 q 615 583 520 679 q 710 334 710 487 m 488 334 q 454 428 488 387 q 368 469 421 469 q 280 427 315 469 q 248 334 248 388 q 280 239 248 279 q 368 197 315 197 q 456 239 421 197 q 488 334 488 279 m 694 643 q 679 618 694 634 q 555 480 637 572 q 106 -7 408 315 q 88 -18 100 -12 q 60 10 83 -16 q 37 41 37 37 q 54 64 37 48 q 214 234 85 93 q 494 544 319 350 q 631 696 538 596 q 645 706 635 701 q 675 678 655 703 q 694 643 694 654 z "},"":{"ha":586,"x_min":22,"x_max":572,"o":"m 456 827 q 419 737 456 774 q 330 700 383 700 q 242 737 278 700 q 205 827 205 774 q 242 917 205 879 q 330 954 278 954 q 419 917 382 954 q 456 827 456 879 m 311 -20 q 107 49 188 -20 q 22 243 22 122 q 158 490 22 412 q 269 608 261 549 q 273 640 271 624 q 297 654 277 654 q 396 663 366 654 q 405 664 402 664 q 429 597 429 664 q 362 455 429 541 q 296 313 296 370 q 389 224 296 224 q 487 248 427 224 q 542 271 547 271 q 572 98 572 271 q 570 69 572 79 q 456 -1 560 24 q 311 -20 380 -20 z "},"":{"ha":389,"x_min":65,"x_max":322,"o":"m 321 828 q 286 734 321 770 q 193 697 250 697 q 101 734 136 697 q 65 828 65 771 q 101 922 65 885 q 193 960 136 960 q 286 923 250 960 q 321 828 321 886 m 322 387 q 319 305 322 360 q 317 222 317 250 q 319 117 317 187 q 321 11 321 46 q 309 -14 321 -14 q 252 -11 290 -14 q 195 -8 214 -8 q 138 -11 176 -8 q 81 -14 100 -14 q 68 11 68 -14 q 67 94 68 39 q 66 178 66 150 q 90 410 66 301 q 143 632 117 521 q 197 657 149 657 q 236 654 224 657 q 258 635 254 650 q 322 387 322 429 z "},"":{"ha":639,"x_min":81,"x_max":558,"o":"m 558 225 l 474 225 l 474 423 l 81 423 l 81 507 l 558 507 l 558 225 z "},"":{"ha":1137,"x_min":14,"x_max":1126,"o":"m 1126 892 q 1110 874 1126 880 q 1083 867 1097 870 q 954 766 1027 840 q 847 639 889 702 q 691 351 764 513 q 589 43 609 170 q 581 -30 585 7 q 558 -93 572 -85 q 493 -117 515 -117 q 474 -85 481 -117 q 465 -45 469 -65 q 301 232 420 113 q 95 389 197 335 q 35 416 75 398 q 14 441 14 427 q 24 460 14 451 q 111 533 54 482 q 183 614 134 561 q 205 627 197 627 q 231 615 212 627 q 391 473 311 562 q 510 294 475 378 q 541 248 529 248 q 576 311 557 248 q 778 715 649 544 q 1057 1011 948 941 q 1076 1018 1068 1018 q 1110 962 1091 1018 q 1126 892 1126 913 z "},"":{"ha":587,"x_min":20,"x_max":561,"o":"m 561 755 q 553 663 561 716 q 524 590 542 590 q 483 626 524 590 q 396 663 442 663 q 348 645 360 663 q 338 595 338 631 q 343 507 338 578 l 358 507 q 461 497 461 509 q 456 465 461 486 q 450 433 451 440 q 441 379 444 388 q 420 367 436 367 q 394 369 416 367 q 353 371 372 371 q 370 89 370 197 q 216 -170 370 -87 q 204 -174 208 -174 q 131 -104 186 -174 q 75 -14 75 -35 q 118 20 75 -8 q 161 98 161 49 q 122 370 161 226 q 50 364 97 364 q 36 374 36 364 q 28 438 36 397 q 20 492 20 479 q 58 504 20 503 q 106 504 81 504 q 97 623 97 592 q 171 788 97 722 q 343 851 242 851 q 473 831 408 851 q 561 755 561 803 z "},"":{"ha":701,"x_min":115,"x_max":586,"o":"m 586 545 q 530 487 586 487 q 460 500 496 487 l 204 598 l 204 491 l 115 491 l 115 633 q 171 691 115 691 q 241 677 205 691 l 497 580 l 497 687 l 586 687 l 586 545 m 586 277 q 530 219 586 219 q 460 233 496 219 l 204 330 l 204 223 l 115 223 l 115 365 q 171 423 115 423 q 241 409 205 423 l 497 312 l 497 419 l 586 419 l 586 277 z "},"":{"ha":555,"x_min":31,"x_max":526,"o":"m 526 0 l 31 0 l 31 83 l 232 1064 l 325 1064 q 431 547 332 1025 q 526 80 526 81 l 526 0 m 432 90 l 277 895 l 122 90 l 432 90 z "},"":{"ha":791,"x_min":47,"x_max":766,"o":"m 766 516 q 671 441 766 492 q 576 392 623 416 q 669 344 623 368 q 762 264 762 292 q 758 253 762 260 q 722 189 745 232 q 699 123 709 159 q 690 114 696 114 q 672 125 684 114 q 427 286 583 215 q 408 310 408 294 q 410 351 408 323 q 412 393 412 379 q 410 430 412 406 q 408 467 408 454 q 427 490 408 482 q 676 653 568 555 q 694 663 688 663 q 701 653 699 663 q 736 576 705 637 q 766 516 766 519 m 405 516 q 310 441 405 491 q 214 392 262 416 q 309 345 262 368 q 401 264 401 293 q 397 253 401 261 q 338 123 374 212 q 329 114 334 114 q 311 125 323 114 q 65 286 208 221 q 47 310 47 294 q 50 351 47 323 q 52 393 52 379 q 50 430 52 406 q 47 467 47 454 q 65 490 47 482 q 315 653 183 543 q 333 663 327 663 q 340 653 338 663 q 375 576 345 636 q 405 516 405 520 z "},"":{"ha":791,"x_min":37,"x_max":755,"o":"m 755 467 q 753 429 755 454 q 751 392 751 404 q 753 351 751 378 q 754 310 754 323 q 736 286 754 294 q 492 125 593 221 q 473 114 480 114 q 464 123 467 114 q 404 253 454 155 q 401 264 401 260 q 476 334 401 288 q 576 385 534 369 q 587 392 581 386 q 488 444 538 418 q 397 516 397 492 q 415 554 397 523 q 439 596 437 590 q 469 663 467 663 q 488 653 475 663 q 737 490 617 545 q 755 467 755 482 m 395 310 q 375 286 395 295 q 131 125 227 219 q 112 114 119 114 q 103 123 106 114 q 45 253 91 162 q 41 265 41 260 q 116 334 41 288 q 215 385 176 370 q 226 392 220 386 q 128 443 177 418 q 37 517 37 492 q 54 555 37 524 q 78 596 75 590 q 109 663 106 663 q 126 653 115 663 q 376 490 237 554 q 395 467 395 482 q 392 430 395 454 q 390 393 390 406 q 392 351 390 379 q 395 310 395 323 z "},"":{"ha":1116,"x_min":41,"x_max":1074,"o":"m 1074 136 q 1032 32 1074 75 q 929 -12 990 -12 q 827 32 869 -12 q 785 136 785 75 q 827 240 785 197 q 929 283 869 283 q 1032 240 990 283 q 1074 136 1074 197 m 705 136 q 663 32 705 75 q 559 -12 621 -12 q 457 32 499 -12 q 415 136 415 75 q 457 240 415 197 q 559 283 499 283 q 663 240 621 283 q 705 136 705 197 m 332 136 q 289 32 332 75 q 186 -12 247 -12 q 84 32 126 -12 q 41 136 41 76 q 84 240 41 197 q 186 283 126 283 q 289 240 247 283 q 332 136 332 197 z "},"":{"ha":174,"x_min":0,"x_max":0,"o":""},"":{"ha":964,"x_min":4,"x_max":957,"o":"m 957 17 q 940 0 957 5 q 814 -5 920 -5 q 689 0 717 -5 q 660 31 666 5 q 624 135 637 128 q 442 140 613 140 q 319 134 327 140 q 294 61 308 123 q 262 0 281 5 q 108 -5 239 -5 q 4 14 4 -5 q 157 448 4 32 q 338 942 323 897 q 357 968 346 968 q 413 964 375 968 q 471 961 452 961 q 525 963 489 961 q 578 966 560 966 q 602 943 591 966 q 795 455 635 872 q 957 17 957 35 m 476 635 q 428 505 462 605 q 391 381 391 399 q 432 368 391 369 q 501 366 453 366 q 551 377 546 366 q 552 387 552 380 q 521 510 552 409 q 476 635 490 608 m 633 996 q 618 983 633 983 l 612 983 q 412 1038 524 992 q 233 1145 294 1087 q 223 1160 223 1154 q 233 1173 223 1165 q 292 1208 253 1184 q 342 1255 308 1224 q 355 1261 347 1258 q 488 1167 410 1221 q 619 1100 570 1120 q 633 1086 633 1095 q 631 1064 633 1079 q 629 1042 629 1049 q 631 1019 629 1034 q 633 996 633 1004 z "},"":{"ha":964,"x_min":4,"x_max":957,"o":"m 957 17 q 940 0 957 5 q 814 -5 920 -5 q 689 0 717 -5 q 660 31 666 5 q 624 135 637 128 q 442 140 613 140 q 319 134 327 140 q 294 61 308 123 q 262 0 281 5 q 108 -5 239 -5 q 4 14 4 -5 q 157 448 4 32 q 338 942 323 897 q 357 968 346 968 q 413 964 375 968 q 471 961 452 961 q 525 963 489 961 q 578 966 560 966 q 602 943 591 966 q 795 455 635 872 q 957 17 957 35 m 476 635 q 428 505 462 605 q 391 381 391 399 q 432 368 391 369 q 501 366 453 366 q 551 377 546 366 q 552 387 552 380 q 521 510 552 409 q 476 635 490 608 m 711 1107 q 532 1011 626 1011 q 465 1039 505 1011 q 399 1067 425 1067 q 349 1044 375 1067 q 315 1021 323 1021 q 257 1066 296 1028 q 217 1120 218 1104 q 287 1186 224 1149 q 382 1223 349 1223 q 456 1198 410 1223 q 530 1173 503 1173 q 586 1197 554 1173 q 628 1221 618 1221 q 675 1173 638 1221 q 713 1113 713 1124 q 711 1107 713 1113 z "},"":{"ha":1043,"x_min":37,"x_max":1004,"o":"m 1004 475 q 869 120 1004 263 q 521 -25 732 -25 q 173 121 311 -25 q 37 475 37 264 q 173 829 37 686 q 521 977 311 977 q 868 829 729 977 q 1004 475 1004 684 m 747 476 q 686 649 747 578 q 521 724 621 724 q 359 646 425 724 q 294 475 294 572 q 355 302 294 371 q 521 229 418 229 q 684 306 616 229 q 747 476 747 379 m 771 1096 q 591 1000 686 1000 q 525 1028 565 1000 q 458 1056 484 1056 q 409 1033 435 1056 q 375 1010 383 1010 q 317 1055 356 1017 q 277 1109 277 1093 q 347 1175 284 1137 q 441 1212 409 1212 q 516 1187 470 1212 q 590 1162 562 1162 q 646 1185 614 1162 q 688 1209 677 1209 q 735 1161 698 1209 q 772 1101 772 1113 q 771 1096 772 1101 z "},"":{"ha":1450,"x_min":37,"x_max":1421,"o":"m 1421 211 q 1409 104 1421 182 q 1388 3 1397 20 q 1365 -10 1380 -10 q 1344 -8 1359 -10 q 1055 -1 1295 -1 q 904 -1 1005 -1 q 753 0 803 0 q 730 40 730 0 q 521 -18 645 -18 q 172 123 308 -18 q 37 475 37 262 q 172 829 37 688 q 521 970 307 970 q 630 955 570 970 q 732 913 696 938 q 754 951 731 951 q 899 949 802 951 q 1043 946 995 946 q 1192 949 1093 946 q 1341 951 1292 951 q 1382 925 1376 951 q 1392 831 1385 911 q 1400 734 1400 751 q 1386 720 1400 720 q 1372 721 1382 720 q 1034 736 1190 736 q 990 719 998 736 q 986 667 986 711 q 1000 606 986 621 q 1044 593 1011 593 q 1071 594 1051 593 q 1103 595 1090 595 q 1282 600 1187 595 q 1322 603 1291 600 q 1364 606 1348 606 q 1380 590 1380 606 q 1368 486 1380 605 q 1362 378 1362 431 q 1343 364 1362 364 q 1282 371 1342 364 q 1095 375 1243 375 l 1019 375 q 987 361 991 375 q 986 319 986 358 q 994 250 986 264 q 1082 222 1008 227 q 1179 222 1082 222 q 1293 229 1217 222 q 1406 235 1369 235 q 1421 211 1421 235 m 755 476 q 694 652 755 585 q 525 724 631 724 q 360 647 428 724 q 294 475 294 574 q 356 300 294 370 q 525 229 420 229 q 695 299 633 229 q 755 476 755 367 z "},"":{"ha":1150,"x_min":25,"x_max":1132,"o":"m 1132 368 q 1088 290 1132 299 q 944 275 1078 288 q 704 254 864 267 q 764 187 713 211 q 856 168 805 168 q 977 201 916 168 q 1029 233 1003 217 q 1076 164 1043 227 q 1109 85 1109 101 q 1100 69 1109 80 q 843 -20 1019 -20 q 718 -3 768 -20 q 607 54 674 12 q 602 56 604 56 q 591 53 598 56 q 581 49 583 50 q 367 -17 490 -17 q 120 80 216 -17 q 25 330 25 178 q 115 588 25 489 q 367 690 208 690 q 583 621 494 690 q 596 615 591 615 q 610 621 602 615 q 819 689 712 689 q 1042 593 949 689 q 1132 368 1132 499 m 895 410 q 865 484 895 452 q 793 515 835 515 q 722 480 751 515 q 693 401 693 446 q 712 383 693 383 q 872 399 766 383 q 895 410 895 402 m 488 338 q 454 432 488 391 q 368 473 421 473 q 280 431 315 473 q 248 338 248 392 q 280 243 248 283 q 368 201 315 201 q 456 243 421 201 q 488 338 488 283 z "},"":{"ha":857,"x_min":39,"x_max":822,"o":"m 807 304 q 795 292 808 292 q 606 295 732 292 q 416 298 480 298 q 236 294 357 298 q 56 290 116 290 q 39 315 39 290 q 50 411 39 340 q 57 509 52 456 q 77 522 62 522 q 242 519 132 522 q 408 517 353 517 q 607 519 475 517 q 806 522 739 522 q 822 505 822 522 q 815 401 822 494 q 807 304 808 308 z "},"":{"ha":1203,"x_min":50,"x_max":1158,"o":"m 1122 292 q 855 295 1034 292 q 587 298 677 298 q 330 294 502 298 q 72 290 158 290 q 50 315 50 290 q 65 411 50 328 q 72 509 68 458 q 98 522 78 522 q 341 519 179 522 q 583 517 503 517 q 860 519 675 517 q 1136 522 1044 522 q 1158 504 1158 522 q 1139 304 1158 494 q 1122 292 1135 292 z "},"":{"ha":571,"x_min":40,"x_max":543,"o":"m 389 471 q 368 481 382 471 q 288 576 313 515 q 187 489 218 524 q 171 477 178 477 q 151 488 164 477 q 40 697 40 574 q 186 996 40 859 q 208 1009 200 1009 q 222 1000 214 1009 q 289 940 241 979 q 296 930 296 934 q 263 883 296 937 q 229 771 229 828 q 261 686 229 728 q 294 831 261 767 q 412 975 370 975 q 427 966 419 975 q 497 901 452 938 q 505 890 505 895 q 476 847 505 895 q 447 761 447 800 q 495 663 447 715 q 543 610 543 610 q 470 536 543 601 q 389 471 397 471 z "},"":{"ha":571,"x_min":31,"x_max":533,"o":"m 533 768 q 387 473 533 610 q 366 460 374 460 q 351 469 359 460 q 285 529 333 490 q 277 540 277 535 q 311 587 277 532 q 345 699 345 642 q 313 783 345 742 q 279 639 313 703 q 161 494 203 494 q 147 503 155 494 q 77 568 121 531 q 68 580 68 574 q 97 622 68 574 q 126 708 126 670 q 78 806 126 753 q 31 859 31 859 q 104 933 31 869 q 185 998 177 998 q 205 989 191 998 q 286 893 260 954 q 386 981 356 945 q 402 991 396 991 q 422 982 410 991 q 533 768 533 896 z "},"":{"ha":385,"x_min":60,"x_max":345,"o":"m 186 479 q 167 489 179 479 q 60 694 60 572 q 102 859 60 770 q 201 997 142 940 q 223 1010 215 1010 q 237 1002 230 1010 q 279 964 241 996 q 313 931 313 935 q 279 885 313 938 q 244 774 244 831 q 295 676 244 728 q 345 623 345 624 q 311 584 345 611 q 267 550 289 567 q 225 511 246 531 q 186 479 191 479 z "},"":{"ha":385,"x_min":39,"x_max":325,"o":"m 325 785 q 282 621 325 708 q 183 482 243 540 q 161 469 170 469 q 147 478 155 469 q 105 515 143 483 q 71 548 71 545 q 106 594 71 541 q 140 705 140 648 q 90 802 140 749 q 39 857 39 854 q 73 895 39 868 q 118 929 96 912 q 159 968 139 949 q 199 1000 194 1000 q 218 990 205 1000 q 325 785 325 907 z "},"":{"ha":568,"x_min":47,"x_max":521,"o":"m 355 640 q 334 589 355 610 q 283 568 313 568 q 234 589 254 568 q 213 640 213 610 q 234 691 213 670 q 283 712 254 712 q 334 691 313 712 q 355 640 355 670 m 521 424 l 47 424 l 47 509 l 521 509 l 521 424 m 355 292 q 334 241 355 262 q 283 220 313 220 q 234 241 254 220 q 213 292 213 262 q 234 343 213 321 q 283 364 254 364 q 334 343 313 364 q 355 292 355 321 z "},"":{"ha":560,"x_min":20,"x_max":541,"o":"m 541 389 l 306 45 l 257 45 l 20 389 l 257 734 l 306 734 l 541 389 m 447 389 l 281 641 l 115 389 l 281 138 l 447 389 z "},"":{"ha":747,"x_min":32,"x_max":724,"o":"m 724 484 q 715 323 724 352 q 567 78 705 290 q 455 -76 545 45 q 342 -216 355 -209 q 134 -227 326 -227 q 94 -220 104 -227 q 72 -154 85 -192 q 50 -106 61 -130 q 35 -59 35 -71 q 46 -46 35 -46 q 235 40 235 -46 q 142 175 235 47 q 37 340 47 306 q 32 481 32 360 q 33 554 32 505 q 35 628 35 604 q 57 646 35 646 q 162 644 92 646 q 267 642 232 642 q 281 621 281 642 q 279 563 281 602 q 277 506 277 525 q 279 390 277 420 q 320 302 281 366 q 379 235 361 235 q 432 301 395 235 q 469 386 467 364 q 476 515 476 446 q 473 571 476 534 q 469 627 469 608 q 484 640 469 640 q 587 643 518 640 q 690 646 656 646 q 714 628 708 646 q 724 484 724 597 m 643 833 q 648 785 643 817 q 653 738 653 753 q 626 724 653 727 q 573 722 607 721 q 532 724 521 724 q 491 722 518 724 q 450 721 464 721 q 425 747 425 721 q 427 790 425 762 q 428 833 428 819 q 426 881 428 849 q 425 929 425 913 q 444 953 425 953 q 495 950 461 953 q 546 947 529 947 q 587 948 559 947 q 628 949 614 949 q 651 935 651 949 q 647 884 651 918 q 643 833 643 850 m 307 831 q 311 782 307 814 q 315 733 315 749 q 296 720 315 720 q 245 722 279 720 q 195 724 212 724 q 151 722 180 724 q 106 720 121 720 q 89 736 89 720 q 91 779 89 751 q 93 822 93 808 q 90 877 93 840 q 87 931 87 913 q 110 951 87 951 q 197 950 139 951 q 284 949 256 949 q 313 930 313 949 q 310 880 313 913 q 307 831 307 847 z "},"":{"ha":863,"x_min":21,"x_max":840,"o":"m 840 705 q 829 654 840 676 q 587 285 741 479 q 566 233 566 256 q 570 125 566 197 q 574 18 574 54 q 568 3 574 6 q 550 0 567 3 q 428 -4 526 -4 q 302 0 330 -4 q 283 20 283 3 q 290 129 283 56 q 296 239 296 203 q 279 286 296 261 q 45 642 197 402 q 29 685 29 668 q 25 807 29 726 q 21 929 21 888 q 35 951 21 951 q 160 948 76 951 q 286 945 244 945 q 302 935 302 945 q 299 830 302 900 q 296 726 296 761 q 355 625 296 706 q 433 526 403 561 q 507 624 461 559 q 566 722 566 705 q 561 825 566 756 q 555 928 555 894 q 562 944 555 942 q 578 944 562 944 q 701 948 619 944 q 824 951 783 951 q 838 922 838 951 q 839 814 838 886 q 840 705 840 742 m 703 1083 q 708 1035 703 1067 q 713 987 713 1003 q 686 973 713 977 q 633 971 667 970 q 591 973 581 973 q 551 972 578 973 q 510 970 524 970 q 485 996 485 970 q 486 1040 485 1011 q 488 1083 488 1068 q 486 1131 488 1099 q 484 1179 484 1163 q 504 1202 484 1202 q 555 1200 521 1202 q 606 1197 589 1197 q 647 1198 619 1197 q 688 1199 674 1199 q 711 1184 711 1199 q 707 1134 711 1167 q 703 1083 703 1100 m 367 1080 q 371 1031 367 1063 q 375 983 375 999 q 355 970 375 970 q 305 971 338 970 q 254 973 271 973 q 210 971 239 973 q 166 969 181 969 q 149 986 149 969 q 151 1029 149 1000 q 153 1072 153 1057 q 150 1126 153 1090 q 147 1181 147 1162 q 170 1200 147 1200 q 257 1199 199 1200 q 344 1198 315 1198 q 373 1179 373 1198 q 370 1130 373 1163 q 367 1080 367 1097 z "},"":{"ha":450,"x_min":-55,"x_max":496,"o":"m 496 789 q 492 776 496 785 q 296 380 426 644 q 160 73 252 277 q 123 -14 141 29 q 80 -83 91 -83 q 17 -47 78 -83 q -49 -7 -43 -12 q -55 2 -55 -2 q 172 470 48 213 q 299 747 215 562 q 328 816 314 781 q 361 871 353 871 q 437 837 378 871 q 496 789 496 802 z "},"":{"ha":828,"x_min":96,"x_max":743,"o":"m 743 745 l 623 625 l 623 357 l 743 237 l 663 157 l 531 288 l 307 288 l 176 157 l 96 237 l 216 357 l 216 625 l 96 745 l 176 825 l 308 694 l 532 694 l 663 825 l 743 745 m 511 389 l 511 594 l 328 594 l 328 389 l 511 389 z "},"":{"ha":458,"x_min":47,"x_max":431,"o":"m 431 516 q 334 441 431 492 q 237 392 286 416 q 333 344 286 368 q 427 264 427 292 q 398 201 427 262 q 364 123 368 137 q 356 115 361 115 q 287 163 353 115 q 208 220 216 215 q 65 286 196 227 q 47 310 47 294 q 50 351 47 323 q 52 393 52 379 q 50 430 52 406 q 47 467 47 454 q 65 490 47 482 q 342 653 210 554 q 359 662 354 662 q 367 653 364 662 q 401 577 370 637 q 431 516 431 519 z "},"":{"ha":458,"x_min":28,"x_max":412,"o":"m 412 310 q 395 286 412 294 q 252 217 288 238 q 122 125 206 191 q 103 115 109 115 q 96 123 98 115 q 62 200 92 138 q 33 264 33 262 q 109 335 33 290 q 211 385 168 370 q 222 392 216 386 q 122 443 222 392 q 28 516 28 491 q 58 578 28 520 q 92 653 87 639 q 100 662 94 662 q 118 653 105 662 q 395 490 253 555 q 412 467 412 482 q 410 429 412 454 q 408 392 408 404 q 410 351 408 378 q 412 310 412 323 z "},"":{"ha":836,"x_min":16,"x_max":782,"o":"m 765 311 q 767 164 765 262 q 770 17 770 66 q 753 0 770 3 q 648 -4 726 -4 q 545 0 568 -4 q 526 9 530 3 q 525 29 525 12 q 527 170 525 76 q 529 311 529 264 q 528 429 529 387 q 441 433 488 433 l 342 433 q 346 283 344 389 q 352 153 347 245 q 357 22 357 69 q 338 -1 357 1 q 222 -4 316 -4 q 123 0 146 -4 q 100 28 100 4 l 100 404 q 73 424 100 424 q 57 423 68 424 q 42 422 47 422 q 22 433 23 422 q 16 602 16 491 q 42 633 16 627 q 89 636 66 635 q 85 724 85 690 q 131 904 85 852 q 425 1002 214 1002 q 563 986 467 1002 q 677 949 677 968 q 650 867 677 944 q 619 783 623 791 q 604 774 614 773 l 599 774 q 509 787 597 774 q 418 794 456 794 q 355 785 364 794 q 331 675 331 758 q 334 642 331 657 q 530 637 408 637 l 647 637 q 707 641 667 637 q 765 644 746 644 q 782 631 782 644 q 781 618 782 628 q 765 311 765 486 z "},"":{"ha":861,"x_min":16,"x_max":814,"o":"m 794 408 q 796 124 794 223 q 798 71 796 109 q 800 17 800 36 q 783 0 800 3 q 673 -5 753 -5 q 570 0 591 -5 q 557 5 559 3 q 553 18 555 7 q 553 47 553 20 q 554 228 553 108 q 555 408 555 349 l 555 429 q 475 433 501 433 l 342 433 q 346 283 344 389 q 352 153 347 245 q 357 22 357 69 q 338 -1 357 1 q 222 -4 319 -4 q 122 0 145 -4 q 100 28 100 4 l 100 404 q 73 424 100 424 q 57 423 68 424 q 42 422 47 422 q 22 433 24 422 q 16 602 16 488 q 42 633 16 627 q 89 636 65 635 q 85 724 85 690 q 131 904 85 851 q 425 1002 213 1002 q 555 988 476 1002 q 676 950 654 972 q 737 951 696 950 q 798 953 777 953 q 813 939 814 953 l 812 926 q 794 408 794 633 m 554 637 q 550 782 552 723 q 415 794 484 794 q 355 785 364 794 q 331 675 331 758 q 334 642 331 657 q 554 637 407 641 z "},"":{"ha":729,"x_min":46,"x_max":682,"o":"m 682 665 q 680 619 682 650 q 677 572 677 588 q 679 534 677 559 q 681 496 681 509 q 660 471 681 471 q 472 479 652 471 q 469 426 472 462 q 467 372 467 390 q 469 321 467 353 q 471 269 471 282 q 660 275 641 275 q 679 252 679 275 q 677 213 679 239 q 676 174 676 186 q 679 127 676 158 q 681 82 681 97 q 661 62 681 62 q 479 68 654 62 q 484 -67 479 26 q 489 -203 489 -155 q 472 -232 489 -232 q 417 -230 454 -232 q 363 -228 381 -228 q 308 -230 344 -228 q 253 -232 271 -232 q 235 -221 238 -232 q 235 -197 235 -219 q 239 -64 235 -149 q 244 68 243 33 q 155 65 219 68 q 65 62 98 62 q 46 81 46 62 q 48 126 46 96 q 50 172 50 157 q 48 211 50 185 q 46 250 46 237 q 65 275 46 275 q 160 272 102 275 q 254 268 239 269 q 256 319 254 285 q 257 370 257 353 q 256 478 257 448 q 69 471 47 471 q 49 494 49 471 q 50 533 49 507 q 52 572 52 559 q 50 619 52 588 q 47 665 47 650 q 64 685 47 685 q 155 683 98 685 q 245 681 224 681 q 241 812 245 707 q 237 945 237 894 q 237 966 237 966 q 254 977 240 977 q 310 975 273 977 q 366 972 347 972 q 420 975 384 972 q 475 977 457 977 q 492 947 492 977 q 488 814 492 897 q 482 681 483 712 q 573 683 505 681 q 664 685 630 685 q 682 665 682 685 z "},"":{"ha":390,"x_min":36,"x_max":354,"o":"m 354 501 q 308 387 354 435 q 195 339 261 339 q 82 387 129 339 q 36 501 36 435 q 82 615 36 568 q 195 663 128 663 q 308 615 261 663 q 354 501 354 568 z "},"":{"ha":385,"x_min":39,"x_max":323,"o":"m 323 132 q 283 -32 323 53 q 183 -168 244 -114 q 161 -181 169 -181 q 147 -172 155 -181 q 105 -135 143 -168 q 71 -102 71 -105 q 106 -56 71 -109 q 140 56 140 -2 q 90 152 140 100 q 39 207 39 205 q 47 222 39 213 q 118 279 72 241 q 180 339 139 299 q 197 348 191 348 q 216 339 205 348 q 323 132 323 256 z "},"":{"ha":571,"x_min":31,"x_max":532,"o":"m 532 131 q 387 -160 532 -24 q 366 -173 374 -173 q 351 -164 359 -173 q 285 -104 333 -142 q 277 -94 277 -98 q 311 -46 277 -101 q 345 65 345 8 q 313 150 345 109 q 279 5 313 69 q 161 -138 203 -138 q 147 -131 155 -138 q 77 -65 121 -102 q 68 -54 68 -59 q 97 -11 68 -59 q 126 75 126 37 q 78 174 126 121 q 31 226 31 227 q 104 300 31 235 q 185 365 177 365 q 205 355 191 365 q 286 260 260 320 q 386 347 356 312 q 402 359 396 359 q 422 349 410 359 q 532 131 532 263 z "},"":{"ha":1432,"x_min":21,"x_max":1411,"o":"m 1411 257 q 1340 67 1411 147 q 1158 -17 1267 -17 q 1002 45 1069 -17 q 842 -17 932 -17 q 661 67 734 -17 q 590 257 590 148 q 661 448 590 367 q 842 532 733 532 q 1000 471 932 532 q 1158 532 1069 532 q 1341 448 1267 532 q 1411 257 1411 368 m 395 -30 q 352 -11 385 -30 q 319 17 319 9 q 533 433 319 28 q 614 623 551 465 q 704 851 646 699 q 718 873 711 873 q 756 855 730 873 q 783 825 783 837 q 689 633 783 823 q 582 415 590 433 q 410 -7 490 212 q 395 -30 401 -30 m 525 595 q 455 405 525 485 q 273 321 382 321 q 92 404 165 321 q 21 595 21 484 q 92 785 21 705 q 273 869 165 869 q 455 785 381 869 q 525 595 525 704 m 1240 257 q 1220 328 1240 298 q 1158 363 1198 363 q 1097 328 1120 363 q 1076 257 1076 296 q 1097 186 1076 217 q 1158 153 1120 153 q 1220 186 1197 153 q 1240 257 1240 216 m 924 257 q 903 328 924 297 q 842 363 880 363 q 780 328 803 363 q 760 257 760 297 q 781 188 760 219 q 842 153 805 153 q 903 186 880 153 q 924 257 924 216 m 355 595 q 335 665 355 635 q 273 700 312 700 q 212 665 235 700 q 191 595 191 635 q 212 525 191 556 q 273 490 237 490 q 335 524 312 490 q 355 595 355 555 z "},"":{"ha":964,"x_min":4,"x_max":957,"o":"m 957 17 q 940 0 957 5 q 814 -5 920 -5 q 689 0 717 -5 q 660 31 666 5 q 624 135 637 128 q 442 140 613 140 q 319 134 327 140 q 294 61 308 123 q 262 0 281 5 q 108 -5 239 -5 q 4 14 4 -5 q 157 448 4 32 q 338 942 323 897 q 357 968 346 968 q 413 964 375 968 q 471 961 452 961 q 525 963 489 961 q 578 966 560 966 q 602 943 591 966 q 795 455 635 872 q 957 17 957 35 m 476 635 q 428 505 462 605 q 391 381 391 399 q 432 368 391 369 q 501 366 453 366 q 551 377 546 366 q 552 387 552 380 q 521 510 552 409 q 476 635 490 608 m 606 985 q 468 1111 572 985 l 463 1107 q 409 1035 450 1078 q 338 987 363 987 q 277 1010 337 987 q 231 1031 231 1027 q 239 1043 231 1034 q 326 1141 282 1092 q 395 1250 379 1205 q 412 1263 400 1263 l 530 1263 q 546 1250 542 1263 q 606 1150 560 1205 q 715 1031 660 1093 q 663 1007 713 1029 q 606 985 612 985 z "},"":{"ha":785,"x_min":59,"x_max":757,"o":"m 757 211 q 745 104 757 182 q 724 3 733 19 q 701 -10 715 -10 q 681 -8 695 -10 q 392 -1 631 -1 q 237 -1 340 -1 q 82 0 134 0 q 60 20 60 0 q 68 248 60 96 q 77 476 77 400 q 68 764 77 553 q 61 926 66 819 l 60 936 q 77 951 59 951 q 228 949 127 951 q 379 946 329 946 q 528 949 429 946 q 677 951 628 951 q 718 925 713 951 q 729 830 722 909 q 736 734 736 751 q 722 720 736 720 q 708 721 718 720 q 384 736 528 736 q 340 719 348 736 q 336 667 336 711 q 350 606 336 621 q 394 593 361 593 q 420 594 401 593 q 453 595 440 595 q 626 600 538 595 q 663 603 633 600 q 700 606 686 606 q 716 590 716 606 q 704 486 716 604 q 699 378 699 432 q 679 364 699 364 q 618 371 679 364 q 441 375 579 375 l 370 375 q 337 361 342 375 q 336 319 336 358 q 343 253 336 268 q 430 222 355 227 q 529 222 429 222 q 636 229 565 222 q 742 235 707 235 q 757 211 757 235 m 533 975 q 395 1101 498 975 l 389 1097 q 336 1025 377 1069 q 264 978 290 978 q 204 1000 264 978 q 158 1021 158 1018 q 165 1034 158 1025 q 252 1131 209 1082 q 322 1240 306 1196 q 339 1253 327 1253 l 457 1253 q 473 1240 469 1253 q 532 1141 487 1196 q 642 1021 587 1083 q 589 997 640 1019 q 533 975 538 975 z "},"":{"ha":964,"x_min":4,"x_max":957,"o":"m 957 17 q 940 0 957 5 q 814 -5 920 -5 q 689 0 717 -5 q 660 31 666 5 q 624 135 637 128 q 442 140 613 140 q 319 134 327 140 q 294 61 308 123 q 262 0 281 5 q 108 -5 239 -5 q 4 14 4 -5 q 157 448 4 32 q 338 942 323 897 q 357 968 346 968 q 413 964 375 968 q 471 961 452 961 q 525 963 489 961 q 578 966 560 966 q 602 943 591 966 q 795 455 635 872 q 957 17 957 35 m 476 635 q 428 505 462 605 q 391 381 391 399 q 432 368 391 369 q 501 366 453 366 q 551 377 546 366 q 552 387 552 380 q 521 510 552 409 q 476 635 490 608 m 351 972 q 338 986 338 971 q 339 1003 338 991 q 340 1021 340 1015 q 338 1046 340 1029 q 336 1071 336 1063 q 350 1086 336 1080 q 479 1153 383 1099 q 604 1242 520 1183 q 618 1249 608 1245 q 629 1242 623 1247 q 679 1196 645 1225 q 734 1161 698 1185 q 745 1147 745 1154 q 736 1133 745 1142 q 557 1026 676 1077 q 357 972 437 976 l 351 972 z "},"":{"ha":785,"x_min":59,"x_max":757,"o":"m 757 211 q 745 104 757 182 q 724 3 733 19 q 701 -10 715 -10 q 681 -8 695 -10 q 392 -1 631 -1 q 237 -1 340 -1 q 82 0 134 0 q 60 20 60 0 q 68 248 60 96 q 77 476 77 400 q 68 764 77 553 q 61 926 66 819 l 60 936 q 77 951 59 951 q 228 949 127 951 q 379 946 329 946 q 528 949 429 946 q 677 951 628 951 q 718 925 713 951 q 729 830 722 909 q 736 734 736 751 q 722 720 736 720 q 708 721 718 720 q 384 736 528 736 q 340 719 348 736 q 336 667 336 711 q 350 606 336 621 q 394 593 361 593 q 420 594 401 593 q 453 595 440 595 q 626 600 538 595 q 663 603 633 600 q 700 606 686 606 q 716 590 716 606 q 704 486 716 604 q 699 378 699 432 q 679 364 699 364 q 618 371 679 364 q 441 375 579 375 l 370 375 q 337 361 342 375 q 336 319 336 358 q 343 253 336 268 q 430 222 355 227 q 529 222 429 222 q 636 229 565 222 q 742 235 707 235 q 757 211 757 235 m 677 1101 q 682 1053 677 1085 q 687 1006 687 1021 q 660 991 687 995 q 607 989 641 989 q 566 991 555 991 q 525 990 552 991 q 484 989 498 989 q 459 1015 459 989 q 460 1058 459 1029 q 462 1101 462 1086 q 460 1149 462 1117 q 458 1197 458 1181 q 478 1221 458 1221 q 529 1218 495 1221 q 580 1215 563 1215 q 621 1216 593 1215 q 662 1217 648 1217 q 685 1202 685 1217 q 681 1152 685 1185 q 677 1101 677 1118 m 341 1099 q 345 1049 341 1082 q 349 1001 349 1017 q 330 988 349 988 q 279 990 313 988 q 229 991 245 991 q 184 989 214 991 q 140 987 155 987 q 123 1004 123 987 q 125 1047 123 1019 q 127 1090 127 1076 q 124 1144 127 1108 q 121 1199 121 1181 q 144 1219 121 1219 q 231 1218 173 1219 q 318 1217 290 1217 q 347 1198 347 1217 q 344 1148 347 1181 q 341 1099 341 1115 z "},"":{"ha":785,"x_min":59,"x_max":757,"o":"m 757 211 q 745 104 757 182 q 724 3 733 19 q 701 -10 715 -10 q 681 -8 695 -10 q 392 -1 631 -1 q 237 -1 340 -1 q 82 0 134 0 q 60 20 60 0 q 68 248 60 96 q 77 476 77 400 q 68 764 77 553 q 61 926 66 819 l 60 936 q 77 951 59 951 q 228 949 127 951 q 379 946 329 946 q 528 949 429 946 q 677 951 628 951 q 718 925 713 951 q 729 830 722 909 q 736 734 736 751 q 722 720 736 720 q 708 721 718 720 q 384 736 528 736 q 340 719 348 736 q 336 667 336 711 q 350 606 336 621 q 394 593 361 593 q 420 594 401 593 q 453 595 440 595 q 626 600 538 595 q 663 603 633 600 q 700 606 686 606 q 716 590 716 606 q 704 486 716 604 q 699 378 699 432 q 679 364 699 364 q 618 371 679 364 q 441 375 579 375 l 370 375 q 337 361 342 375 q 336 319 336 358 q 343 253 336 268 q 430 222 355 227 q 529 222 429 222 q 636 229 565 222 q 742 235 707 235 q 757 211 757 235 m 573 990 q 558 977 573 977 l 553 977 q 352 1032 465 986 q 174 1139 235 1081 q 163 1154 163 1147 q 174 1166 163 1159 q 232 1202 193 1178 q 283 1249 248 1218 q 295 1255 287 1252 q 429 1161 351 1215 q 559 1094 510 1114 q 573 1080 573 1088 q 571 1058 573 1073 q 569 1036 569 1043 q 571 1013 569 1028 q 573 990 573 998 z "},"":{"ha":414,"x_min":58,"x_max":471,"o":"m 338 501 q 342 260 338 421 q 346 20 346 100 q 340 3 346 6 q 322 0 338 2 q 204 -5 278 -5 q 78 0 105 -5 q 58 21 58 4 q 64 140 58 10 q 77 501 77 415 q 72 719 77 574 q 67 937 67 864 q 83 951 67 951 q 146 949 104 951 q 210 947 189 947 q 272 949 231 947 q 334 951 313 951 q 353 937 353 951 q 346 719 353 864 q 338 501 338 574 m 76 979 q 63 993 63 978 q 64 1010 63 998 q 66 1027 66 1021 q 63 1053 66 1036 q 61 1078 61 1069 q 75 1093 61 1087 q 204 1160 109 1105 q 330 1249 245 1190 q 343 1255 334 1252 q 355 1249 348 1254 q 404 1202 370 1232 q 460 1168 423 1192 q 471 1154 471 1160 q 461 1140 471 1149 q 282 1033 401 1084 q 82 979 163 983 l 76 979 z "},"":{"ha":414,"x_min":-28,"x_max":455,"o":"m 338 501 q 342 260 338 421 q 346 20 346 100 q 340 3 346 6 q 322 0 338 2 q 204 -5 278 -5 q 78 0 105 -5 q 58 21 58 4 q 64 140 58 10 q 77 501 77 415 q 72 719 77 574 q 67 937 67 864 q 83 951 67 951 q 146 949 104 951 q 210 947 189 947 q 272 949 231 947 q 334 951 313 951 q 353 937 353 951 q 346 719 353 864 q 338 501 338 574 m 347 982 q 208 1108 312 982 l 203 1104 q 149 1032 191 1076 q 78 985 103 985 q 18 1007 77 985 q -28 1028 -28 1025 q -21 1040 -28 1031 q 66 1138 22 1089 q 136 1247 119 1202 q 153 1260 140 1260 l 271 1260 q 286 1247 282 1260 q 346 1147 300 1202 q 455 1028 400 1090 q 403 1004 454 1026 q 347 982 352 982 z "},"":{"ha":414,"x_min":-68,"x_max":498,"o":"m 338 501 q 342 260 338 421 q 346 20 346 100 q 340 3 346 6 q 322 0 338 2 q 204 -5 278 -5 q 78 0 105 -5 q 58 21 58 4 q 64 140 58 10 q 77 501 77 415 q 72 719 77 574 q 67 937 67 864 q 83 951 67 951 q 146 949 104 951 q 210 947 189 947 q 272 949 231 947 q 334 951 313 951 q 353 937 353 951 q 346 719 353 864 q 338 501 338 574 m 488 1101 q 493 1053 488 1085 q 498 1006 498 1021 q 471 991 498 995 q 418 989 452 989 q 376 991 366 991 q 336 990 363 991 q 295 989 309 989 q 270 1015 270 989 q 271 1058 270 1029 q 273 1101 273 1086 q 271 1149 273 1117 q 269 1197 269 1181 q 289 1221 269 1221 q 340 1218 306 1221 q 391 1215 374 1215 q 432 1216 404 1215 q 473 1217 459 1217 q 496 1202 496 1217 q 492 1152 496 1185 q 488 1101 488 1118 m 152 1099 q 156 1049 152 1082 q 160 1001 160 1017 q 140 988 160 988 q 90 990 123 988 q 39 991 56 991 q -5 989 24 991 q -49 987 -34 987 q -66 1004 -66 987 q -64 1047 -66 1019 q -62 1090 -62 1076 q -65 1144 -62 1108 q -68 1199 -68 1181 q -45 1219 -68 1219 q 42 1218 -16 1219 q 129 1217 100 1217 q 158 1198 158 1217 q 155 1148 158 1181 q 152 1099 152 1115 z "},"":{"ha":414,"x_min":-41,"x_max":369,"o":"m 338 501 q 342 260 338 421 q 346 20 346 100 q 340 3 346 6 q 322 0 338 2 q 204 -5 278 -5 q 78 0 105 -5 q 58 21 58 4 q 64 140 58 10 q 77 501 77 415 q 72 719 77 574 q 67 937 67 864 q 83 951 67 951 q 146 949 104 951 q 210 947 189 947 q 272 949 231 947 q 334 951 313 951 q 353 937 353 951 q 346 719 353 864 q 338 501 338 574 m 369 995 q 354 982 369 982 l 349 982 q 148 1037 260 991 q -31 1143 31 1086 q -41 1158 -41 1152 q -31 1171 -41 1164 q 28 1207 -11 1183 q 79 1253 44 1223 q 91 1260 83 1257 q 224 1166 146 1219 q 355 1099 306 1119 q 369 1085 369 1093 q 367 1063 369 1078 q 365 1040 365 1048 q 367 1018 365 1033 q 369 995 369 1002 z "},"":{"ha":1043,"x_min":37,"x_max":1004,"o":"m 1004 475 q 869 120 1004 263 q 521 -25 732 -25 q 173 121 311 -25 q 37 475 37 264 q 173 829 37 686 q 521 977 311 977 q 868 829 729 977 q 1004 475 1004 684 m 747 476 q 686 649 747 578 q 521 724 621 724 q 359 646 425 724 q 294 475 294 572 q 355 302 294 371 q 521 229 418 229 q 684 306 616 229 q 747 476 747 379 m 409 997 q 396 1011 396 996 q 397 1028 396 1017 q 399 1046 399 1040 q 396 1071 399 1054 q 394 1096 394 1088 q 408 1111 394 1105 q 537 1178 441 1124 q 663 1267 578 1208 q 676 1274 667 1270 q 688 1267 681 1272 q 737 1221 703 1251 q 793 1186 756 1210 q 804 1173 804 1179 q 794 1158 804 1167 q 615 1052 734 1102 q 415 997 496 1001 l 409 997 z "},"":{"ha":1043,"x_min":37,"x_max":1004,"o":"m 1004 475 q 869 120 1004 263 q 521 -25 732 -25 q 173 121 311 -25 q 37 475 37 264 q 173 829 37 686 q 521 977 311 977 q 868 829 729 977 q 1004 475 1004 684 m 747 476 q 686 649 747 578 q 521 724 621 724 q 359 646 425 724 q 294 475 294 572 q 355 302 294 371 q 521 229 418 229 q 684 306 616 229 q 747 476 747 379 m 659 990 q 521 1116 625 990 l 515 1112 q 462 1040 503 1084 q 391 993 416 993 q 330 1015 390 993 q 284 1036 284 1033 q 292 1048 284 1040 q 378 1146 335 1097 q 448 1255 432 1211 q 465 1268 453 1268 l 583 1268 q 599 1255 595 1268 q 659 1156 613 1211 q 768 1036 713 1098 q 715 1012 766 1034 q 659 990 665 990 z "},"":{"ha":1043,"x_min":37,"x_max":1004,"o":"m 1004 475 q 869 120 1004 263 q 521 -25 732 -25 q 173 121 311 -25 q 37 475 37 264 q 173 829 37 686 q 521 977 311 977 q 868 829 729 977 q 1004 475 1004 684 m 747 476 q 686 649 747 578 q 521 724 621 724 q 359 646 425 724 q 294 475 294 572 q 355 302 294 371 q 521 229 418 229 q 684 306 616 229 q 747 476 747 379 m 704 1010 q 689 997 704 997 l 684 997 q 483 1052 595 1006 q 304 1158 366 1101 q 294 1173 294 1167 q 304 1186 294 1179 q 363 1222 324 1198 q 414 1268 379 1238 q 426 1275 418 1272 q 559 1181 481 1234 q 690 1114 641 1134 q 704 1100 704 1108 q 702 1078 704 1093 q 700 1055 700 1063 q 702 1033 700 1048 q 704 1010 704 1017 z "},"":{"ha":943,"x_min":59,"x_max":884,"o":"m 872 333 q 831 97 872 160 q 452 -18 755 -18 q 241 3 315 -18 q 87 132 123 37 q 70 299 70 179 q 72 382 70 327 q 74 464 74 437 q 66 700 74 543 q 59 935 59 857 q 73 951 59 951 q 198 948 115 951 q 323 945 282 945 q 340 930 340 945 q 335 662 340 840 q 329 393 329 483 q 351 250 329 287 q 476 199 381 199 q 615 334 615 199 q 610 629 615 432 q 606 924 606 825 q 623 945 606 945 q 743 948 663 945 q 864 951 824 951 q 884 935 884 951 q 877 700 884 857 q 871 464 871 543 q 871 398 871 442 q 872 333 872 355 m 357 986 q 345 1000 345 985 q 346 1017 345 1006 q 347 1035 347 1029 q 345 1060 347 1043 q 342 1085 342 1077 q 357 1100 342 1095 q 486 1167 390 1113 q 611 1256 527 1197 q 625 1263 615 1259 q 636 1256 629 1261 q 686 1210 652 1240 q 741 1175 705 1199 q 752 1162 752 1168 q 743 1147 752 1156 q 564 1041 683 1091 q 363 986 444 990 l 357 986 z "},"":{"ha":943,"x_min":59,"x_max":884,"o":"m 872 333 q 831 97 872 160 q 452 -18 755 -18 q 241 3 315 -18 q 87 132 123 37 q 70 299 70 179 q 72 382 70 327 q 74 464 74 437 q 66 700 74 543 q 59 935 59 857 q 73 951 59 951 q 198 948 115 951 q 323 945 282 945 q 340 930 340 945 q 335 662 340 840 q 329 393 329 483 q 351 250 329 287 q 476 199 381 199 q 615 334 615 199 q 610 629 615 432 q 606 924 606 825 q 623 945 606 945 q 743 948 663 945 q 864 951 824 951 q 884 935 884 951 q 877 700 884 857 q 871 464 871 543 q 871 398 871 442 q 872 333 872 355 m 608 989 q 469 1115 573 989 l 464 1111 q 410 1039 452 1082 q 339 991 364 991 q 279 1014 338 991 q 233 1035 233 1031 q 240 1047 233 1038 q 327 1145 283 1096 q 397 1254 380 1209 q 414 1267 401 1267 l 532 1267 q 547 1254 543 1267 q 607 1154 562 1209 q 716 1035 661 1097 q 664 1011 715 1033 q 608 989 613 989 z "},"":{"ha":943,"x_min":59,"x_max":884,"o":"m 872 333 q 831 97 872 160 q 452 -18 755 -18 q 241 3 315 -18 q 87 132 123 37 q 70 299 70 179 q 72 382 70 327 q 74 464 74 437 q 66 700 74 543 q 59 935 59 857 q 73 951 59 951 q 198 948 115 951 q 323 945 282 945 q 340 930 340 945 q 335 662 340 840 q 329 393 329 483 q 351 250 329 287 q 476 199 381 199 q 615 334 615 199 q 610 629 615 432 q 606 924 606 825 q 623 945 606 945 q 743 948 663 945 q 864 951 824 951 q 884 935 884 951 q 877 700 884 857 q 871 464 871 543 q 871 398 871 442 q 872 333 872 355 m 646 993 q 631 980 646 980 l 625 980 q 425 1035 537 989 q 246 1141 307 1084 q 236 1156 236 1150 q 246 1169 236 1162 q 304 1205 266 1181 q 355 1251 321 1221 q 368 1258 359 1255 q 501 1164 423 1217 q 632 1097 583 1117 q 646 1083 646 1091 q 644 1061 646 1076 q 642 1038 642 1046 q 644 1016 642 1031 q 646 993 646 1000 z "},"":{"ha":382,"x_min":55,"x_max":333,"o":"m 310 311 q 312 169 310 264 q 314 27 314 75 q 297 0 314 0 q 245 3 280 0 q 193 5 210 5 q 142 3 176 5 q 92 0 109 0 q 72 35 72 0 q 74 173 72 81 q 77 311 77 265 q 56 636 77 416 q 55 650 55 646 q 74 665 55 665 q 133 659 94 665 q 193 653 173 653 q 254 659 214 653 q 314 665 294 665 q 333 650 333 665 q 321 482 333 597 q 310 311 310 367 z "},"":{"ha":514,"x_min":23,"x_max":507,"o":"m 398 721 q 260 847 363 721 l 254 843 q 201 771 242 814 q 130 724 155 724 q 69 746 129 724 q 23 767 23 764 q 31 779 23 770 q 117 877 74 828 q 187 986 171 941 q 204 999 192 999 l 322 999 q 338 986 334 999 q 397 886 352 941 q 507 767 452 829 q 454 743 505 765 q 398 721 404 721 z "},"":{"ha":514,"x_min":17,"x_max":513,"o":"m 511 832 q 332 736 426 736 q 265 764 305 736 q 199 792 224 792 q 149 769 175 792 q 115 746 123 746 q 57 791 96 753 q 17 845 18 829 q 87 911 24 873 q 182 948 149 948 q 256 923 210 948 q 330 898 302 898 q 386 922 354 898 q 428 945 418 945 q 475 897 438 945 q 513 838 513 849 q 511 832 513 838 z "},"":{"ha":514,"x_min":15,"x_max":506,"o":"m 300 750 q 111 734 241 750 q 35 725 31 725 q 15 751 15 725 q 39 834 15 764 q 71 917 63 902 q 87 926 76 926 q 152 923 109 926 q 217 919 195 919 q 356 932 263 919 q 493 945 448 945 q 506 934 506 945 q 481 838 506 922 q 467 755 477 809 q 450 747 464 747 q 375 749 425 747 q 300 750 325 750 z "},"":{"ha":514,"x_min":25,"x_max":498,"o":"m 498 939 q 431 775 498 836 q 262 717 366 717 q 94 775 159 717 q 25 939 25 837 q 54 954 25 954 q 157 939 147 954 q 197 881 195 884 q 262 856 222 856 q 328 881 303 856 q 367 939 336 890 q 412 951 374 951 q 498 939 498 951 z "},"":{"ha":514,"x_min":127,"x_max":404,"o":"m 404 888 q 361 800 404 831 q 265 771 323 771 q 170 800 208 771 q 127 889 127 833 q 169 981 127 945 q 265 1015 208 1015 q 364 980 323 1015 q 404 888 404 945 z "},"":{"ha":514,"x_min":93,"x_max":436,"o":"m 436 860 q 384 747 436 792 q 264 701 332 701 q 144 747 196 701 q 93 860 93 793 q 144 975 93 928 q 264 1022 195 1022 q 385 977 334 1022 q 436 860 436 929 m 338 860 q 316 911 338 890 q 264 932 295 932 q 214 911 234 932 q 193 860 193 890 q 215 812 193 832 q 264 791 236 791 q 315 811 293 791 q 338 860 338 831 z "},"":{"ha":514,"x_min":78,"x_max":387,"o":"m 387 -77 q 192 -281 387 -281 q 124 -257 168 -281 q 78 -213 78 -232 q 110 -176 78 -211 q 131 -144 120 -160 q 155 -121 146 -121 q 177 -135 158 -121 q 211 -149 195 -149 q 251 -133 233 -149 q 269 -94 269 -116 q 214 -4 269 -37 l 345 -20 q 387 -77 359 -38 z "},"":{"ha":514,"x_min":-21,"x_max":547,"o":"m 547 922 q 536 907 547 917 q 160 741 399 785 q 149 739 153 739 q 131 755 140 739 q 121 781 121 771 q 59 750 100 767 q -6 731 14 731 q -20 743 -20 731 q -18 762 -20 749 q -16 782 -16 775 q -19 808 -16 791 q -21 833 -21 825 q -7 850 -21 843 q 126 920 37 871 q 258 1007 170 949 q 274 1015 271 1015 q 312 984 281 1015 q 348 954 342 954 q 388 982 355 954 q 428 1010 421 1010 q 538 935 509 956 q 547 922 547 928 z "},"":{"ha":514,"x_min":135,"x_max":447,"o":"m 334 -281 q 196 -235 252 -281 q 135 -106 135 -186 q 138 -77 135 -92 q 180 -20 152 -58 l 311 -4 q 256 -94 256 -37 q 274 -133 256 -116 q 314 -149 292 -149 q 348 -135 330 -149 q 370 -121 367 -121 q 394 -144 378 -121 q 415 -176 405 -160 q 447 -213 431 -190 q 399 -259 441 -235 q 334 -281 359 -281 z "},"":{"ha":514,"x_min":24,"x_max":507,"o":"m 321 726 l 204 726 q 187 737 192 726 q 117 848 166 789 q 31 946 116 849 q 24 958 27 949 q 73 982 25 961 q 128 1002 121 1002 q 197 952 149 1002 q 253 882 241 906 q 258 875 254 879 q 264 880 262 876 q 321 954 281 911 q 395 1003 370 1003 q 500 964 403 1003 q 507 958 507 961 q 397 839 458 905 q 338 737 355 788 q 321 726 334 726 z "},"":{"ha":760,"x_min":-17,"x_max":745,"o":"m 686 -12 q 534 -9 627 -12 q 382 -5 412 -6 l 179 -3 q 92 0 149 -3 q 72 21 72 3 q 74 242 72 95 q 77 464 77 390 q 72 700 77 543 q 67 935 67 857 q 87 950 67 950 q 148 948 108 950 q 208 946 189 946 q 275 948 231 946 q 341 951 319 951 q 351 938 351 951 l 350 929 q 332 546 342 802 l 331 367 q 332 240 331 280 q 333 224 332 232 q 343 214 334 216 q 361 214 344 214 q 544 220 422 214 q 726 227 665 227 q 745 211 745 227 q 728 11 745 95 q 713 -10 724 -7 q 686 -12 710 -12 m 535 522 q 524 511 535 514 q 35 335 26 335 q 24 350 30 335 q 2 437 22 369 q -17 511 -17 501 q -7 529 -17 524 q 269 621 40 539 q 489 702 491 702 q 500 686 496 702 q 535 522 535 529 z "},"":{"ha":454,"x_min":-32,"x_max":486,"o":"m 353 408 q 354 124 353 223 q 356 71 354 109 q 358 17 358 36 q 341 0 358 3 q 231 -5 311 -5 q 127 0 150 -5 q 111 18 113 3 q 111 47 111 20 q 112 228 111 108 q 113 408 113 349 q 114 668 113 693 q 97 926 112 818 q 96 938 96 934 q 113 953 96 953 l 355 953 q 371 939 372 953 l 370 926 q 353 408 353 633 m 486 485 q 477 475 486 478 q 177 366 286 408 q 41 311 124 342 q 35 310 39 310 q 18 326 28 310 q -9 402 16 337 q -32 472 -32 460 q -23 483 -32 479 q 109 528 22 498 q 410 644 281 591 q 416 646 413 646 q 431 628 424 646 q 449 570 437 608 q 484 490 461 538 q 486 485 486 487 z "},"":{"ha":575,"x_min":30,"x_max":534,"o":"m 525 312 q 409 76 525 174 q 161 -35 307 -11 q 153 -35 156 -35 q 83 60 137 -35 q 30 176 30 155 q 40 186 30 184 q 170 224 138 208 q 241 328 241 259 q 195 427 241 372 q 108 529 115 519 q 61 685 61 600 q 176 891 61 809 q 406 979 269 959 q 417 980 413 980 q 433 964 427 980 q 515 785 451 914 q 517 778 517 781 q 505 766 517 766 q 487 768 500 766 q 467 770 474 770 q 382 748 418 770 q 338 676 338 722 q 387 574 338 635 q 477 460 473 466 q 525 312 525 386 m 349 993 l 232 993 q 215 1004 220 993 q 145 1114 194 1055 q 58 1213 144 1116 q 52 1225 55 1216 q 101 1248 53 1227 q 156 1269 149 1269 q 224 1219 176 1269 q 281 1148 269 1173 q 286 1141 282 1145 q 292 1147 290 1143 q 349 1220 309 1178 q 422 1270 397 1270 q 528 1230 431 1270 q 534 1224 534 1227 q 425 1105 486 1172 q 366 1004 382 1055 q 349 993 361 993 z "},"":{"ha":494,"x_min":-15,"x_max":468,"o":"m 454 549 q 444 530 454 542 q 406 535 425 535 q 339 517 366 535 q 307 460 307 497 q 341 399 307 436 q 406 326 393 345 q 440 215 440 274 q 427 142 440 180 q 387 79 411 99 q 270 6 337 36 q 136 -25 197 -25 q 76 48 123 -25 q 28 138 28 122 q 36 146 28 144 q 132 163 83 155 q 191 226 191 182 q 157 295 191 256 q 92 368 95 363 q 58 471 58 416 q 161 644 58 572 q 358 707 253 707 q 412 634 369 707 q 454 549 454 561 m 282 726 l 165 726 q 149 737 153 726 q 79 848 127 789 q -8 946 77 849 q -15 958 -12 949 q 35 982 -14 961 q 90 1002 83 1002 q 158 952 110 1002 q 214 882 203 906 q 220 875 216 879 q 225 880 223 876 q 283 954 242 911 q 356 1003 331 1003 q 461 964 364 1003 q 468 958 468 961 q 359 839 419 905 q 299 737 316 788 q 282 726 295 726 z "},"":{"ha":750,"x_min":43,"x_max":710,"o":"m 673 -11 q 553 -7 633 -11 q 433 -3 473 -3 q 263 -1 376 -3 q 93 0 150 0 q 65 16 68 0 q 52 144 64 59 q 43 182 43 178 q 210 445 43 185 q 376 724 376 704 q 358 734 376 734 q 215 732 311 734 q 71 729 119 729 q 56 745 56 729 q 71 842 56 770 q 86 947 86 915 q 104 958 86 958 q 386 954 198 958 q 667 950 573 950 q 685 935 681 950 q 697 779 697 880 q 685 749 697 767 q 505 476 642 687 q 349 224 349 235 q 361 218 349 218 q 572 224 498 218 q 637 232 587 224 q 701 239 680 239 q 710 224 710 239 q 690 4 710 114 q 673 -11 688 -11 m 443 977 l 326 977 q 309 987 314 977 q 239 1098 288 1039 q 153 1196 238 1099 q 146 1208 149 1200 q 195 1232 147 1211 q 250 1253 243 1253 q 319 1202 271 1253 q 375 1132 363 1156 q 380 1125 376 1129 q 386 1131 384 1126 q 444 1204 403 1162 q 517 1253 492 1253 q 622 1214 525 1253 q 629 1208 629 1211 q 519 1089 580 1156 q 460 987 477 1038 q 443 977 456 977 z "},"":{"ha":650,"x_min":37,"x_max":641,"o":"m 580 -9 q 515 -4 557 -9 q 450 1 469 1 q 310 3 406 3 q 153 0 199 3 q 105 -4 143 -1 q 57 -7 75 -7 q 45 9 45 -7 q 45 55 44 26 q 46 100 46 88 q 42 138 46 113 q 37 174 37 163 q 47 192 37 183 q 301 433 186 310 q 254 435 286 433 q 205 436 222 436 q 131 434 181 436 q 57 431 81 431 q 45 439 45 431 q 66 531 45 455 q 87 643 87 606 q 111 654 87 654 q 192 646 113 654 q 368 639 257 639 q 478 640 405 639 q 587 642 551 642 q 610 623 610 642 l 610 476 q 351 201 610 453 q 623 215 551 201 q 631 216 629 216 q 641 209 641 216 q 612 102 641 220 q 596 5 608 69 q 580 -9 593 -9 m 390 709 l 273 709 q 256 720 261 709 q 186 831 235 772 q 100 929 185 832 q 93 941 96 932 q 142 965 94 944 q 197 985 191 985 q 266 935 218 985 q 322 865 311 889 q 328 858 323 862 q 333 863 331 859 q 391 937 350 895 q 464 986 439 986 q 569 947 472 986 q 576 941 576 944 q 467 822 527 888 q 407 720 424 771 q 390 709 403 709 z "},"":{"ha":393,"x_min":107,"x_max":290,"o":"m 290 481 q 277 473 290 474 q 119 464 201 464 q 114 471 114 464 l 114 761 q 111 896 114 806 q 107 1031 107 986 q 183 1053 107 1053 q 277 1045 273 1053 q 280 1025 280 1040 q 278 972 280 1007 q 276 920 276 938 q 278 725 276 810 q 284 603 279 690 q 290 481 290 526 m 290 -220 q 277 -229 290 -228 q 119 -238 201 -238 q 114 -231 114 -238 l 114 59 q 111 194 114 104 q 107 329 107 284 q 183 351 107 351 q 277 343 273 351 q 280 323 280 338 q 278 271 280 305 q 276 218 276 236 q 278 24 276 109 q 284 -98 279 -12 q 290 -220 290 -176 z "},"":{"ha":990,"x_min":3,"x_max":947,"o":"m 947 481 q 819 135 947 281 q 501 -3 706 4 q 285 -4 462 -4 q 185 -2 252 -4 q 85 0 118 0 q 65 16 65 0 q 71 240 65 90 q 77 464 77 389 q 71 697 77 542 q 65 930 65 853 q 85 947 65 945 q 243 953 133 953 q 513 947 452 953 q 765 865 674 930 q 900 694 850 804 q 947 481 947 591 m 688 481 q 619 668 688 595 q 436 743 550 743 q 332 715 332 743 q 330 595 332 675 q 329 475 329 515 q 330 356 329 435 q 332 237 332 277 q 440 208 332 208 q 625 286 557 208 q 688 481 688 360 m 528 556 q 521 469 528 527 q 514 381 514 410 q 500 369 514 369 l 494 370 q 300 375 490 370 l 241 376 q 244 376 242 376 l 246 376 l 247 376 l 243 376 l 234 376 l 193 374 q 20 367 41 367 q 3 386 3 367 q 21 567 3 399 q 40 581 26 581 q 266 573 239 581 l 258 573 q 252 573 254 573 l 513 581 q 528 556 528 570 z "},"":{"ha":819,"x_min":26,"x_max":833,"o":"m 777 962 q 771 918 777 977 q 760 725 764 842 q 754 422 754 592 q 770 24 754 142 q 771 7 771 11 q 761 -1 771 0 q 581 -5 736 -5 q 539 9 545 -5 q 536 61 538 35 q 531 72 536 66 q 521 64 527 70 q 338 -8 448 -8 q 109 92 195 -8 q 26 334 26 188 q 107 577 26 481 q 338 679 193 679 q 497 614 440 679 q 511 603 507 603 q 517 621 517 603 q 514 777 517 673 q 511 932 511 880 q 522 954 511 951 q 642 962 566 956 q 762 979 777 979 q 777 962 777 979 m 521 339 q 484 433 521 393 q 393 473 446 473 q 305 433 338 473 q 272 336 272 393 q 305 243 272 281 q 393 203 339 203 q 484 243 448 203 q 521 339 521 284 m 833 844 q 827 816 833 834 q 819 787 821 793 q 811 722 817 766 q 796 715 810 715 q 595 713 729 715 q 393 710 460 710 q 378 728 378 710 q 412 846 378 774 q 431 854 416 854 q 626 857 496 854 q 821 860 755 860 q 833 844 833 860 z "},"":{"ha":863,"x_min":21,"x_max":840,"o":"m 840 705 q 829 654 840 676 q 587 285 741 479 q 566 233 566 256 q 570 125 566 197 q 574 18 574 54 q 568 3 574 6 q 550 0 567 3 q 428 -4 526 -4 q 302 0 330 -4 q 283 20 283 3 q 290 129 283 56 q 296 239 296 203 q 279 286 296 261 q 45 642 197 402 q 29 685 29 668 q 25 807 29 726 q 21 929 21 888 q 35 951 21 951 q 160 948 76 951 q 286 945 244 945 q 302 935 302 945 q 299 830 302 900 q 296 726 296 761 q 355 625 296 706 q 433 526 403 561 q 507 624 461 559 q 566 722 566 705 q 561 825 566 756 q 555 928 555 894 q 562 944 555 942 q 578 944 562 944 q 701 948 619 944 q 824 951 783 951 q 838 922 838 951 q 839 814 838 886 q 840 705 840 742 m 298 976 q 285 990 285 975 q 286 1007 285 996 q 288 1025 288 1019 q 285 1050 288 1033 q 283 1075 283 1067 q 297 1090 283 1084 q 426 1157 330 1103 q 551 1246 467 1187 q 565 1253 555 1249 q 576 1246 570 1251 q 626 1200 592 1230 q 682 1165 645 1189 q 692 1152 692 1158 q 683 1137 692 1146 q 504 1030 623 1081 q 304 976 385 980 l 298 976 z "},"":{"ha":905,"x_min":56,"x_max":875,"o":"m 875 492 q 789 226 875 327 q 534 118 696 118 q 453 121 507 118 q 371 123 398 123 q 348 115 352 123 q 346 98 346 110 q 350 55 346 84 q 354 11 354 26 q 340 -5 354 -5 q 216 -2 298 -5 q 92 0 133 0 q 72 20 72 0 q 74 246 72 95 q 77 472 77 397 q 68 741 77 545 q 58 920 65 800 l 58 930 q 79 945 56 945 q 138 948 99 945 q 197 951 178 951 l 325 951 q 345 928 345 951 q 342 854 345 882 q 515 851 419 854 q 775 749 676 847 q 875 492 875 652 m 604 481 q 450 639 604 639 q 332 627 336 639 q 331 583 331 625 q 333 465 331 544 q 335 346 335 385 q 457 332 335 332 q 604 481 604 332 z "},"":{"ha":836,"x_min":58,"x_max":806,"o":"m 806 326 q 720 85 806 181 q 489 -14 632 -14 q 338 32 399 -14 q 323 39 328 39 q 314 18 314 39 q 317 -86 314 -17 q 321 -191 321 -156 q 298 -212 321 -212 l 160 -213 q 100 -210 113 -213 q 79 -184 79 -205 q 80 35 79 -120 q 81 254 81 138 l 81 338 q 74 704 81 499 q 58 939 70 820 l 58 946 q 79 958 58 957 q 197 968 94 959 q 315 975 270 975 q 328 953 328 975 q 324 883 328 926 q 319 812 320 829 q 317 629 317 745 q 327 608 317 608 q 338 614 332 608 q 485 667 387 667 q 720 570 632 667 q 806 326 806 476 m 554 328 q 521 422 554 382 q 432 465 485 465 q 345 422 378 465 q 317 328 317 384 q 347 232 317 270 q 435 191 378 191 q 554 328 554 191 z "},"":{"ha":586,"x_min":38,"x_max":547,"o":"m 547 496 q 543 408 547 480 q 536 327 538 332 q 528 319 534 319 q 404 322 486 319 q 281 325 322 325 q 165 322 243 325 q 50 319 88 319 q 38 332 38 319 q 53 509 38 493 q 62 511 56 511 q 174 506 100 511 q 287 500 249 500 q 411 504 328 500 q 534 507 493 507 q 547 496 547 507 z "},"":{"ha":370,"x_min":22,"x_max":315,"o":"m 315 818 q 314 808 315 819 q 304 554 304 723 q 305 423 304 510 q 306 292 306 336 q 280 269 306 269 q 197 268 252 269 q 115 267 142 267 q 96 281 96 267 q 100 449 96 337 q 104 618 104 562 q 94 630 104 627 q 70 631 85 632 q 50 629 50 629 q 22 643 22 629 l 22 748 q 33 763 22 758 q 124 817 92 787 q 159 848 155 848 q 271 833 197 848 q 315 818 315 823 z "},"":{"ha":550,"x_min":22,"x_max":529,"o":"m 529 359 q 520 264 529 294 q 507 258 518 258 q 422 262 479 258 q 336 267 365 267 q 199 263 290 267 q 62 260 108 260 q 45 278 50 260 q 22 397 22 371 q 57 416 22 412 q 105 418 81 416 q 187 523 139 451 q 242 639 242 606 q 203 679 242 679 q 111 651 163 679 q 64 624 58 624 l 56 627 q 39 694 55 627 q 24 769 24 761 q 121 815 24 794 q 243 832 200 832 q 350 810 302 832 q 441 758 422 776 q 475 659 475 725 q 331 425 475 551 q 424 429 361 425 q 516 433 485 433 q 529 359 529 433 z "},"":{"ha":539,"x_min":22,"x_max":503,"o":"m 503 427 q 418 290 503 334 q 249 256 352 256 q 123 269 206 256 q 22 302 22 284 q 51 396 22 288 q 68 435 62 435 q 124 420 76 435 q 199 406 172 406 q 298 458 298 406 q 189 512 298 512 q 143 511 171 512 q 109 509 115 509 q 80 525 80 509 q 100 625 80 625 q 154 621 119 625 q 208 617 189 617 q 254 656 254 617 q 169 699 254 699 q 108 690 146 699 q 63 680 70 680 q 56 694 59 680 q 47 793 47 730 q 132 831 47 817 q 238 840 189 840 q 393 808 323 840 q 481 691 481 766 q 400 565 481 603 q 503 427 503 527 z "},"":{"ha":1238,"x_min":22,"x_max":1212,"o":"m 315 818 q 314 808 315 819 q 304 554 304 723 q 305 423 304 510 q 306 292 306 336 q 280 269 306 269 q 197 268 252 269 q 115 267 142 267 q 96 281 96 267 q 100 449 96 337 q 104 618 104 562 q 94 630 104 627 q 70 631 85 632 q 50 629 50 629 q 22 643 22 629 l 22 748 q 33 763 22 758 q 124 817 92 787 q 159 848 155 848 q 271 833 197 848 q 315 818 315 823 m 780 789 q 776 776 780 785 q 581 380 710 644 q 444 73 536 277 q 407 -14 425 29 q 364 -83 375 -83 q 301 -47 362 -83 q 235 -7 241 -12 q 229 2 229 -2 q 456 470 332 213 q 583 747 499 562 q 612 816 598 781 q 646 871 637 871 q 721 837 662 871 q 780 789 780 802 m 1212 98 q 1203 3 1212 33 q 1190 -3 1201 -3 q 1105 1 1162 -3 q 1019 6 1048 6 q 882 2 973 6 q 745 -1 791 -1 q 728 17 732 -1 q 705 136 705 110 q 740 155 705 151 q 788 157 764 155 q 870 262 822 190 q 925 378 925 345 q 886 418 925 418 q 793 390 846 418 q 747 363 741 363 l 739 366 q 722 433 738 366 q 707 508 707 500 q 804 554 707 533 q 926 571 883 571 q 1033 549 985 571 q 1124 496 1105 515 q 1158 397 1158 464 q 1014 164 1158 290 q 1107 168 1044 164 q 1199 172 1168 172 q 1212 98 1212 172 z "},"":{"ha":1194,"x_min":22,"x_max":1170,"o":"m 315 818 q 314 808 315 819 q 304 554 304 723 q 305 423 304 510 q 306 292 306 336 q 280 269 306 269 q 197 268 252 269 q 115 267 142 267 q 96 281 96 267 q 100 449 96 337 q 104 618 104 562 q 94 630 104 627 q 70 631 85 632 q 50 629 50 629 q 22 643 22 629 l 22 748 q 33 763 22 758 q 124 817 92 787 q 159 848 155 848 q 271 833 197 848 q 315 818 315 823 m 788 789 q 784 776 788 785 q 589 380 718 644 q 452 73 544 277 q 415 -14 433 29 q 372 -83 383 -83 q 310 -47 370 -83 q 243 -7 249 -12 q 237 2 237 -2 q 465 470 340 213 q 591 747 507 562 q 621 816 606 781 q 654 871 645 871 q 729 837 670 871 q 788 789 788 802 m 1147 93 q 1122 81 1147 82 q 1089 83 1170 83 q 1074 61 1075 83 q 1074 29 1074 45 q 1064 8 1072 14 q 885 -13 1034 -13 q 848 3 848 -13 q 853 38 848 16 q 859 73 859 61 q 844 85 859 85 q 741 77 810 85 q 637 70 672 70 q 605 120 605 70 q 610 227 605 216 q 657 295 620 247 q 711 366 710 363 q 825 545 755 427 q 836 567 830 556 q 850 583 844 583 q 954 570 878 583 q 1061 550 1007 559 q 1079 533 1079 547 q 1075 462 1079 509 q 1070 391 1070 414 q 1069 334 1070 374 q 1069 278 1069 298 l 1069 231 q 1103 234 1080 231 q 1138 237 1126 237 q 1145 191 1145 237 q 1146 142 1145 174 q 1147 93 1147 109 m 882 408 l 880 414 q 743 224 819 330 q 870 233 804 239 q 882 408 875 291 z "},"":{"ha":1274,"x_min":-9,"x_max":1274,"o":"m 907 789 q 903 776 907 785 q 707 380 837 644 q 571 73 663 277 q 534 -14 552 29 q 491 -83 502 -83 q 428 -47 489 -83 q 362 -7 368 -12 q 356 2 356 -2 q 583 470 459 213 q 710 747 626 562 q 739 816 725 781 q 772 871 764 871 q 848 837 789 871 q 907 789 907 802 m 1252 89 q 1227 77 1252 78 q 1194 79 1274 79 q 1178 57 1179 79 q 1178 25 1178 41 q 1168 4 1177 9 q 989 -17 1139 -17 q 952 -1 952 -17 q 958 34 952 12 q 963 68 963 57 q 949 81 963 81 q 845 73 914 81 q 741 66 777 66 q 709 116 709 66 q 714 222 709 212 q 762 291 724 243 q 816 361 814 359 q 929 541 860 422 q 940 563 935 552 q 955 579 948 579 q 1058 566 982 579 q 1166 546 1112 555 q 1183 529 1183 543 q 1179 458 1183 505 q 1175 387 1175 410 q 1174 330 1175 370 q 1173 274 1173 294 l 1174 227 q 1207 230 1185 227 q 1242 233 1230 233 q 1249 186 1249 233 q 1251 138 1249 170 q 1252 89 1252 105 m 987 404 l 984 410 q 847 220 923 326 q 975 229 909 235 q 987 404 979 287 m 471 427 q 387 290 471 334 q 218 256 321 256 q 92 269 175 256 q -9 302 -9 284 q 20 396 -9 288 q 37 435 31 435 q 93 420 45 435 q 168 406 140 406 q 267 458 267 406 q 157 512 267 512 q 112 511 140 512 q 77 509 84 509 q 49 525 49 509 q 69 625 49 625 q 123 621 87 625 q 176 617 158 617 q 223 656 223 617 q 138 699 223 699 q 77 690 115 699 q 32 680 39 680 q 24 694 28 680 q 16 793 16 730 q 100 831 16 817 q 207 840 158 840 q 361 808 292 840 q 450 691 450 766 q 369 565 450 603 q 471 427 471 527 z "},"":{"ha":747,"x_min":32,"x_max":724,"o":"m 724 484 q 715 323 724 352 q 567 78 705 290 q 455 -76 545 45 q 342 -216 355 -209 q 134 -227 326 -227 q 94 -220 104 -227 q 72 -154 85 -192 q 50 -106 61 -130 q 35 -59 35 -71 q 46 -46 35 -46 q 235 40 235 -46 q 142 175 235 47 q 37 340 47 306 q 32 481 32 360 q 33 554 32 505 q 35 628 35 604 q 57 646 35 646 q 162 644 92 646 q 267 642 232 642 q 281 621 281 642 q 279 563 281 602 q 277 506 277 525 q 279 390 277 420 q 320 302 281 366 q 379 235 361 235 q 432 301 395 235 q 469 386 467 364 q 476 515 476 446 q 473 571 476 534 q 469 627 469 608 q 484 640 469 640 q 587 643 518 640 q 690 646 656 646 q 714 628 708 646 q 724 484 724 597 m 229 734 q 216 749 216 734 q 217 766 216 754 q 218 783 218 777 q 216 808 218 791 q 214 833 214 825 q 228 848 214 843 q 357 916 261 861 q 482 1004 398 945 q 496 1011 486 1008 q 507 1004 500 1010 q 557 958 523 988 q 612 924 576 947 q 623 910 623 916 q 614 896 623 905 q 435 789 554 840 q 235 734 315 739 l 229 734 z "},"":{"ha":656,"x_min":45,"x_max":604,"o":"m 604 557 q 537 478 604 542 q 452 405 479 423 q 601 254 601 282 q 547 180 601 236 q 476 124 494 124 q 398 193 463 124 q 323 277 340 253 q 250 195 302 250 q 174 128 187 128 q 102 184 160 128 q 45 254 45 240 q 193 404 45 271 q 113 478 168 424 q 48 554 48 542 q 104 626 48 568 q 174 684 160 684 q 324 533 197 684 q 474 682 452 682 q 548 628 492 682 q 604 557 604 574 z "},"":{"ha":710,"x_min":61,"x_max":635,"o":"m 635 372 q 625 291 635 359 q 616 284 623 283 l 610 284 q 391 290 503 288 q 555 197 443 197 q 599 203 573 197 q 625 209 625 209 q 633 193 633 209 l 633 16 q 546 -20 633 -20 q 285 64 391 -20 q 149 286 182 145 q 73 284 106 284 q 61 301 61 284 q 64 314 61 307 q 68 328 68 322 q 69 376 68 373 q 85 385 73 385 q 135 385 108 385 q 134 412 134 398 q 134 430 134 421 q 73 429 100 429 q 61 448 61 429 q 66 492 61 442 q 69 528 67 508 q 85 537 73 537 q 149 536 113 537 q 291 755 185 674 q 552 838 400 838 q 635 814 635 838 q 633 718 635 783 q 631 621 631 653 q 614 610 631 610 q 584 616 606 610 q 550 621 562 621 q 391 532 441 621 q 507 534 418 532 q 622 535 578 535 q 633 524 633 535 q 625 436 633 480 q 615 427 623 427 q 610 428 614 427 q 363 434 556 435 q 362 412 362 423 q 364 380 362 395 q 494 382 404 380 q 623 383 578 383 q 635 372 635 383 z "}}}
